{"glyphs":{"0":{"ha":529,"x_min":58,"x_max":469,"o":"m 163 214 q 192 124 163 154 q 264 93 221 93 q 337 124 307 93 q 367 214 367 154 l 367 872 q 337 964 367 933 q 264 994 307 994 q 192 964 221 994 q 163 872 163 933 l 163 214 m 58 864 q 76 965 58 921 q 124 1038 94 1008 q 190 1082 153 1067 q 264 1097 226 1097 q 340 1082 303 1097 q 406 1038 376 1067 q 452 965 435 1008 q 469 864 469 921 l 469 224 q 452 122 469 165 q 406 49 435 78 q 340 5 376 19 q 264 -10 303 -10 q 190 5 226 -10 q 124 49 153 19 q 76 122 94 78 q 58 224 58 165 l 58 864 z "},"1":{"ha":529,"x_min":47,"x_max":482,"o":"m 451 103 q 482 72 482 103 l 482 31 q 451 0 482 0 l 78 0 q 47 31 47 0 l 47 72 q 78 103 47 103 l 186 103 q 217 133 217 103 l 217 872 q 186 903 217 903 l 150 903 q 108 925 108 903 q 133 972 108 940 l 203 1057 q 231 1082 219 1076 q 261 1088 242 1088 l 289 1088 q 319 1057 319 1088 l 319 133 q 350 103 319 103 l 451 103 l 451 103 z "},"2":{"ha":529,"x_min":58,"x_max":482,"o":"m 163 118 q 178 103 163 103 l 451 103 q 482 72 482 103 l 482 31 q 451 0 482 0 l 89 0 q 58 31 58 0 l 58 121 q 72 226 58 168 q 114 336 85 283 l 331 731 q 363 805 350 767 q 375 878 375 843 q 346 963 375 931 q 272 994 317 994 q 223 982 243 994 q 190 951 203 969 q 160 933 176 933 q 143 938 151 933 l 110 956 q 94 981 94 964 q 99 994 94 986 q 166 1067 122 1036 q 272 1097 210 1097 q 356 1079 318 1097 q 420 1030 393 1061 q 463 958 447 999 q 478 872 478 918 q 465 787 478 836 q 418 675 453 738 l 201 285 q 170 204 178 243 q 163 118 163 165 z "},"3":{"ha":529,"x_min":75,"x_max":472,"o":"m 261 994 q 179 953 208 994 q 149 933 167 933 q 131 939 140 933 l 100 956 q 85 979 85 964 q 88 992 85 983 q 163 1071 115 1044 q 261 1097 210 1097 q 335 1083 299 1097 q 401 1040 372 1069 q 449 967 431 1011 q 467 864 467 924 l 467 731 q 452 648 467 685 q 413 583 438 611 q 400 556 400 568 q 414 525 400 539 q 457 456 442 497 q 472 367 472 415 l 472 224 q 455 120 472 164 q 408 47 438 76 q 341 4 379 18 q 261 -10 303 -10 q 183 3 221 -10 q 117 43 146 15 q 88 76 100 58 q 75 104 75 93 q 90 129 75 121 l 125 149 q 135 153 131 151 q 143 154 139 154 q 175 132 161 154 q 261 93 201 93 q 340 122 310 93 q 369 214 369 151 l 369 378 q 340 469 369 440 q 261 497 310 497 q 235 524 235 497 l 235 574 q 240 593 235 586 q 261 600 246 600 q 333 628 304 600 q 363 719 363 657 l 363 872 q 333 965 363 935 q 261 994 304 994 z "},"4":{"ha":529,"x_min":53,"x_max":476,"o":"m 422 31 q 392 0 422 0 l 349 0 q 318 31 318 0 l 318 103 q 288 133 318 133 l 83 133 q 53 164 53 133 l 53 211 q 55 253 53 236 q 63 297 57 269 l 196 1063 q 226 1088 200 1088 l 269 1088 q 300 1060 300 1088 q 298 1040 300 1054 q 293 1013 296 1025 l 164 313 q 158 281 161 294 q 156 264 156 267 q 186 236 156 236 l 288 236 q 318 267 318 236 l 318 319 q 321 350 318 338 q 331 378 324 363 l 375 464 q 401 481 385 481 q 417 474 411 481 q 422 456 422 467 l 422 264 q 431 244 422 249 q 449 236 439 239 q 468 228 460 233 q 476 210 476 224 l 476 161 q 468 141 476 146 q 449 133 460 136 q 431 126 439 131 q 422 107 422 121 l 422 31 l 422 31 z "},"5":{"ha":529,"x_min":58,"x_max":472,"o":"m 407 1088 q 438 1057 438 1088 l 438 1015 q 407 985 438 985 l 188 985 q 157 954 157 985 l 157 718 q 163 689 157 697 q 179 681 168 681 q 221 691 194 681 q 275 701 247 701 q 349 688 314 701 q 412 645 385 674 q 456 573 439 617 q 472 469 472 529 l 472 224 q 455 120 472 164 q 408 47 438 76 q 341 4 379 18 q 261 -10 303 -10 q 97 64 163 -10 q 82 84 89 74 q 75 104 75 94 q 90 129 75 121 l 125 149 q 143 153 133 153 q 175 132 163 153 q 261 93 201 93 q 340 122 310 93 q 369 214 369 151 l 369 478 q 340 570 369 540 q 261 600 310 600 q 164 544 189 600 q 151 528 158 535 q 132 522 143 522 l 89 522 q 58 553 58 522 l 58 1057 q 89 1088 58 1088 l 407 1088 l 407 1088 z "},"6":{"ha":529,"x_min":58,"x_max":469,"o":"m 163 214 q 192 124 163 154 q 264 93 221 93 q 337 124 307 93 q 367 214 367 154 l 367 339 q 337 429 367 399 q 264 460 307 460 q 192 429 221 460 q 163 339 163 399 l 163 214 m 58 329 q 83 553 58 442 q 147 763 108 664 q 233 944 185 863 q 326 1078 281 1025 q 349 1088 333 1088 l 401 1088 q 438 1068 438 1088 q 424 1039 438 1054 q 352 940 388 994 q 285 825 317 885 q 228 703 254 765 q 185 581 201 640 q 181 560 181 568 q 196 546 181 546 q 232 554 208 546 q 282 563 256 563 q 353 548 319 563 q 413 504 386 533 q 454 431 439 475 q 469 329 469 388 l 469 224 q 452 122 469 165 q 406 49 435 78 q 340 5 376 19 q 264 -10 303 -10 q 190 5 226 -10 q 124 49 153 19 q 76 122 94 78 q 58 224 58 165 l 58 329 z "},"7":{"ha":529,"x_min":58,"x_max":482,"o":"m 89 985 q 58 1015 58 985 l 58 1057 q 89 1088 58 1088 l 451 1088 q 482 1057 482 1088 l 482 985 q 478 942 482 958 q 463 899 474 926 q 406 748 433 825 q 353 585 378 671 q 310 402 329 499 q 281 193 292 306 q 268 29 272 115 q 238 0 265 0 l 194 0 q 164 32 164 0 q 165 58 164 38 q 169 105 167 79 q 173 158 171 131 q 178 206 175 185 q 209 407 190 314 q 250 582 228 500 q 298 735 272 664 q 349 869 324 806 q 374 928 364 906 q 383 968 383 951 q 367 985 383 985 l 89 985 l 89 985 z "},"8":{"ha":529,"x_min":53,"x_max":476,"o":"m 264 -10 q 184 4 222 -10 q 117 47 146 18 q 70 120 88 76 q 53 224 53 164 l 53 367 q 68 456 53 415 q 111 525 83 497 q 126 556 126 540 q 114 585 126 569 q 74 649 89 613 q 60 731 60 685 l 60 864 q 78 967 60 924 q 124 1040 96 1011 q 190 1083 153 1069 q 264 1097 226 1097 q 338 1083 301 1097 q 403 1040 374 1069 q 450 967 432 1011 q 468 864 468 924 l 468 731 q 454 649 468 685 q 415 585 440 613 q 401 556 401 571 q 417 525 401 540 q 460 456 444 497 q 476 367 476 415 l 476 224 q 459 120 476 164 q 412 47 442 76 q 344 4 382 18 q 264 -10 306 -10 m 264 994 q 192 965 221 994 q 163 872 163 935 l 163 719 q 192 628 163 657 q 264 599 221 599 q 337 628 307 599 q 367 719 367 657 l 367 872 q 337 965 367 935 q 264 994 307 994 m 264 499 q 186 469 215 499 q 157 378 157 440 l 157 214 q 186 122 157 151 q 264 93 215 93 q 343 122 314 93 q 372 214 372 151 l 372 378 q 343 469 372 440 q 264 499 314 499 z "},"9":{"ha":529,"x_min":58,"x_max":469,"o":"m 367 872 q 337 964 367 933 q 264 994 307 994 q 192 964 221 994 q 163 872 163 933 l 163 754 q 192 664 163 694 q 264 633 221 633 q 337 664 307 633 q 367 754 367 694 l 367 872 m 469 764 q 449 545 469 650 q 392 347 428 440 q 310 171 357 253 q 211 21 264 89 q 194 6 204 11 q 168 0 183 0 l 129 0 q 92 19 92 0 q 106 49 92 33 q 216 214 163 119 q 307 408 269 308 q 319 441 313 422 q 333 478 326 460 q 343 513 339 497 q 347 536 347 529 q 333 550 347 550 q 302 540 321 550 q 247 531 283 531 q 176 545 210 531 q 116 589 142 560 q 74 662 90 618 q 58 764 58 706 l 58 864 q 76 965 58 921 q 124 1038 94 1008 q 190 1082 153 1067 q 264 1097 226 1097 q 340 1082 303 1097 q 406 1038 376 1067 q 452 965 435 1008 q 469 864 469 921 l 469 764 z "}," ":{"ha":264,"x_min":0,"x_max":0,"o":""},"!":{"ha":264,"x_min":65,"x_max":199,"o":"m 175 308 q 165 288 174 296 q 144 279 157 279 l 119 279 q 98 288 107 279 q 89 308 89 296 l 67 1056 q 74 1079 65 1071 q 97 1088 82 1088 l 167 1088 q 190 1079 182 1088 q 197 1056 199 1071 l 175 308 m 185 31 q 154 0 185 0 l 111 0 q 81 31 81 0 l 81 88 q 111 118 81 118 l 154 118 q 185 88 185 118 l 185 31 z "},"\"":{"ha":529,"x_min":92,"x_max":435,"o":"m 189 728 q 158 699 186 699 l 135 699 q 104 728 104 699 l 93 1056 q 100 1079 92 1071 q 124 1088 108 1088 l 169 1088 q 193 1079 185 1088 q 200 1056 201 1071 l 189 728 m 424 728 q 414 707 422 715 q 393 699 406 699 l 367 699 q 345 707 354 699 q 336 728 336 715 l 326 1056 q 333 1079 325 1071 q 357 1088 342 1088 l 403 1088 q 426 1079 418 1088 q 433 1056 435 1071 l 424 728 z "},"#":{"ha":529,"x_min":25,"x_max":501,"o":"m 74 613 q 43 646 40 613 l 46 679 q 75 707 49 707 l 113 707 q 143 735 140 707 l 160 957 q 190 985 163 985 l 217 985 q 247 951 250 985 l 232 740 q 263 707 229 707 l 288 707 q 318 735 315 707 l 333 957 q 364 985 336 985 l 392 985 q 421 953 424 985 l 408 739 q 438 707 406 707 l 468 707 q 499 674 501 707 l 496 640 q 467 613 493 613 l 429 613 q 399 585 401 613 l 393 507 q 424 474 390 474 l 453 474 q 476 465 467 474 q 483 442 485 457 l 481 408 q 450 379 478 379 l 413 379 q 382 350 385 379 l 367 132 q 336 103 364 103 l 307 103 q 278 135 275 103 l 290 347 q 261 379 293 379 l 236 379 q 206 350 208 379 l 190 132 q 160 103 188 103 l 133 103 q 103 136 100 103 l 117 346 q 86 379 119 379 l 57 379 q 34 388 43 379 q 26 411 25 396 l 29 444 q 60 474 32 474 l 96 474 q 126 501 124 474 l 132 579 q 101 613 135 613 l 74 613 m 253 613 q 222 585 225 613 l 217 507 q 247 474 214 474 l 271 474 q 301 501 299 474 l 307 579 q 276 613 310 613 l 253 613 z "},"$":{"ha":529,"x_min":100,"x_max":444,"o":"m 274 0 q 249 25 249 0 l 249 69 q 222 101 249 97 q 134 158 168 113 q 100 278 100 203 q 122 300 100 300 l 175 300 q 192 296 186 300 q 197 278 197 292 q 217 213 197 235 q 269 192 238 192 q 320 212 299 192 q 342 275 342 232 q 315 369 342 321 l 144 678 q 119 736 128 708 q 111 800 111 764 q 143 913 111 871 q 224 969 175 954 q 242 981 235 972 q 249 1001 249 990 l 249 1063 q 274 1088 249 1088 q 299 1063 299 1088 l 299 1004 q 326 972 299 979 q 409 918 375 960 q 443 801 443 876 q 426 779 443 779 l 361 779 q 350 785 354 779 q 346 810 346 792 q 326 865 346 846 q 276 885 306 885 q 233 867 253 885 q 213 801 213 849 q 233 724 213 761 l 406 417 q 435 349 425 381 q 444 281 444 318 q 412 162 444 206 q 326 104 379 118 q 299 72 299 97 l 299 25 q 274 0 299 0 z "},"%":{"ha":529,"x_min":10,"x_max":517,"o":"m 89 771 q 101 733 89 746 q 131 721 114 721 q 160 733 147 721 q 172 771 172 746 l 172 960 q 160 999 172 986 q 131 1011 147 1011 q 101 999 114 1011 q 89 960 89 986 l 89 771 m 10 957 q 20 1016 10 990 q 48 1059 31 1042 q 87 1085 65 1076 q 131 1093 108 1093 q 174 1085 153 1093 q 213 1059 196 1076 q 240 1016 229 1042 q 250 957 250 990 l 250 775 q 240 716 250 742 q 213 673 229 690 q 174 647 196 656 q 131 639 153 639 q 87 647 108 639 q 48 673 65 656 q 20 716 31 690 q 10 775 10 742 l 10 957 m 57 0 q 25 26 25 0 q 28 42 25 31 l 419 1068 q 447 1088 426 1088 l 471 1088 q 503 1061 503 1088 q 500 1046 503 1057 l 108 19 q 81 0 101 0 l 57 0 m 356 126 q 367 89 356 101 q 396 76 379 76 q 426 89 414 76 q 438 126 438 101 l 438 315 q 426 354 438 342 q 396 367 414 367 q 367 354 379 367 q 356 315 356 342 l 356 126 m 274 313 q 284 372 274 346 q 312 415 294 397 q 351 440 329 432 q 396 449 374 449 q 440 440 418 449 q 478 415 461 432 q 506 372 496 397 q 517 313 517 346 l 517 131 q 506 72 517 97 q 478 28 496 46 q 440 3 461 11 q 396 -6 418 -6 q 351 3 374 -6 q 312 28 329 11 q 284 72 294 46 q 274 131 274 97 l 274 313 z "},"&":{"ha":529,"x_min":11,"x_max":517,"o":"m 275 1097 q 344 1083 314 1097 q 392 1045 374 1068 q 421 993 411 1022 q 431 933 431 964 l 431 872 q 421 774 431 817 q 392 695 411 732 q 347 626 374 658 q 283 560 319 594 q 274 536 274 550 q 276 516 274 531 q 283 483 279 501 q 292 444 288 464 q 301 408 297 424 q 316 352 308 379 q 331 305 324 325 q 347 272 339 285 q 361 260 354 260 q 378 281 371 260 q 390 331 385 301 q 399 395 396 361 q 406 456 403 429 q 436 485 408 485 q 448 483 438 485 q 482 478 458 482 q 507 447 507 474 q 503 379 507 418 q 489 299 499 340 q 465 217 479 258 q 432 139 451 175 q 429 124 429 135 q 442 101 429 108 q 471 93 456 93 q 492 98 482 93 q 508 103 503 103 q 517 88 517 103 l 517 33 q 509 13 517 21 q 491 0 501 6 q 468 -8 481 -6 q 447 -10 456 -10 q 410 -3 428 -10 q 375 19 392 4 q 349 29 364 29 q 329 24 336 29 q 272 -1 303 8 q 206 -10 242 -10 q 63 44 115 -10 q 11 206 11 97 l 11 292 q 19 371 11 336 q 43 437 26 406 q 85 499 60 468 q 149 567 111 529 q 158 589 158 576 q 152 622 158 597 q 140 668 146 647 q 123 765 129 718 q 117 861 117 811 l 117 933 q 162 1053 117 1008 q 275 1097 207 1097 m 281 107 q 293 129 293 113 q 290 142 293 138 q 241 273 263 203 q 200 419 219 343 q 176 449 193 449 q 151 432 164 449 q 122 372 129 403 q 114 288 114 340 l 114 208 q 138 120 114 147 q 214 93 163 93 q 246 96 229 93 q 281 107 263 99 m 279 994 q 233 976 251 994 q 214 921 214 957 l 214 861 q 215 819 214 849 q 221 758 217 789 q 233 704 225 728 q 254 681 240 681 q 281 697 268 681 q 326 773 315 738 q 338 865 338 808 l 338 924 q 322 976 338 957 q 279 994 307 994 z "},"'":{"ha":264,"x_min":76,"x_max":185,"o":"m 175 728 q 165 707 174 715 q 144 699 157 699 l 119 699 q 89 728 89 699 l 78 1056 q 85 1079 76 1071 q 108 1088 93 1088 l 154 1088 q 185 1056 185 1088 l 175 728 l 175 728 z "},"(":{"ha":264,"x_min":44,"x_max":250,"o":"m 44 956 q 69 1101 44 1043 q 131 1194 93 1158 q 174 1228 147 1210 q 225 1246 200 1246 q 250 1217 250 1246 l 250 1172 q 229 1142 250 1151 q 166 1085 193 1125 q 139 969 139 1046 l 139 118 q 147 51 139 79 q 167 1 154 22 q 195 -33 179 -19 q 229 -54 211 -46 q 250 -85 250 -64 l 250 -129 q 226 -158 250 -158 q 181 -144 204 -158 q 139 -115 158 -131 q 71 -20 97 -81 q 44 132 44 40 l 44 956 z "},")":{"ha":264,"x_min":14,"x_max":219,"o":"m 219 132 q 195 -13 219 44 q 133 -107 171 -71 q 90 -140 117 -122 q 39 -158 64 -158 q 14 -129 14 -158 l 14 -85 q 35 -54 14 -64 q 97 1 69 -37 q 125 118 125 40 l 125 969 q 117 1037 125 1008 q 97 1086 110 1065 q 69 1120 85 1107 q 35 1142 53 1133 q 14 1172 14 1151 l 14 1217 q 38 1246 14 1246 q 83 1232 60 1246 q 125 1203 106 1218 q 193 1108 167 1168 q 219 956 219 1047 l 219 132 z "},"*":{"ha":529,"x_min":49,"x_max":478,"o":"m 233 794 q 263 843 246 843 q 293 794 278 843 l 321 694 q 350 672 328 672 l 438 672 q 478 653 478 672 q 457 619 478 640 l 375 543 q 364 519 364 535 q 365 515 364 518 q 369 499 365 511 q 378 463 372 486 q 394 399 383 439 q 399 368 399 379 q 385 346 399 346 q 344 368 368 346 l 283 421 q 263 429 272 429 q 243 421 251 429 l 185 369 q 143 347 158 347 q 129 368 129 347 q 131 383 129 375 q 135 400 132 390 q 152 463 146 439 q 161 499 158 486 q 165 515 164 511 q 165 519 165 518 q 154 543 165 535 l 69 619 q 49 653 49 638 q 90 672 49 672 l 178 672 q 207 694 201 672 l 233 794 l 233 794 z "},"+":{"ha":529,"x_min":58,"x_max":469,"o":"m 217 736 q 247 767 217 767 l 282 767 q 313 736 313 767 l 313 631 q 343 600 313 600 l 439 600 q 469 569 469 600 l 469 528 q 439 497 469 497 l 343 497 q 313 467 313 497 l 313 360 q 282 329 313 329 l 247 329 q 217 360 217 329 l 217 467 q 186 497 217 497 l 89 497 q 58 528 58 497 l 58 569 q 89 600 58 600 l 186 600 q 217 631 217 600 l 217 736 l 217 736 z "},",":{"ha":264,"x_min":81,"x_max":185,"o":"m 185 36 q 183 4 185 17 q 176 -35 182 -8 l 151 -158 q 119 -183 144 -183 q 96 -162 96 -183 q 100 -131 96 -154 l 113 -49 q 116 -29 115 -36 q 117 -15 117 -22 q 111 -4 117 -7 q 99 1 106 -1 q 86 10 92 4 q 81 29 81 15 l 81 88 q 111 118 81 118 l 154 118 q 185 88 185 118 l 185 36 l 185 36 z "},"-":{"ha":264,"x_min":13,"x_max":250,"o":"m 43 497 q 13 528 13 497 l 13 569 q 43 600 13 600 l 219 600 q 250 569 250 600 l 250 528 q 219 497 250 497 l 43 497 l 43 497 z "},".":{"ha":264,"x_min":81,"x_max":185,"o":"m 185 31 q 154 0 185 0 l 111 0 q 81 31 81 0 l 81 88 q 111 118 81 118 l 154 118 q 185 88 185 118 l 185 31 l 185 31 z "},"/":{"ha":264,"x_min":6,"x_max":258,"o":"m 171 1117 q 201 1143 175 1143 l 229 1143 q 258 1114 258 1143 q 258 1102 258 1108 q 256 1088 257 1096 l 93 -29 q 63 -56 89 -56 l 35 -56 q 6 -26 6 -56 q 6 -15 6 -21 q 8 0 7 -8 l 171 1117 z "},":":{"ha":264,"x_min":81,"x_max":185,"o":"m 81 249 m 185 744 q 154 714 185 714 l 111 714 q 81 744 81 714 l 81 801 q 111 832 81 832 l 154 832 q 185 801 185 832 l 185 744 l 185 744 m 185 279 q 154 249 185 249 l 111 249 q 81 279 81 249 l 81 336 q 111 367 81 367 l 154 367 q 185 336 185 367 l 185 279 l 185 279 z "},";":{"ha":264,"x_min":81,"x_max":185,"o":"m 81 65 m 185 744 q 154 714 185 714 l 111 714 q 81 744 81 714 l 81 801 q 111 832 81 832 l 154 832 q 185 801 185 832 l 185 744 l 185 744 m 185 285 q 183 253 185 265 q 176 214 182 240 l 151 90 q 119 65 144 65 q 96 86 96 65 q 100 118 96 94 l 113 200 q 116 219 115 213 q 117 233 117 226 q 111 244 117 242 q 99 250 106 247 q 86 258 92 253 q 81 278 81 264 l 81 336 q 111 367 81 367 l 154 367 q 185 336 185 367 l 185 285 l 185 285 z "},"<":{"ha":529,"x_min":58,"x_max":469,"o":"m 75 519 q 58 547 58 529 q 75 576 58 567 l 425 763 q 446 768 435 768 q 469 735 469 768 l 469 688 q 453 660 469 669 l 285 576 q 261 549 261 564 q 285 521 261 532 l 453 438 q 469 410 469 428 l 469 361 q 446 329 469 329 q 425 335 435 329 l 75 519 l 75 519 z "},"=":{"ha":529,"x_min":58,"x_max":469,"o":"m 89 357 q 58 388 58 357 l 58 429 q 89 460 58 460 l 439 460 q 469 429 469 460 l 469 388 q 439 357 469 357 l 89 357 m 89 638 q 58 668 58 638 l 58 708 q 89 739 58 739 l 439 739 q 469 708 469 739 l 469 668 q 439 638 469 638 l 89 638 z "},">":{"ha":529,"x_min":60,"x_max":471,"o":"m 454 578 q 471 550 471 568 q 454 521 471 531 l 104 335 q 83 329 94 329 q 60 363 60 329 l 60 410 q 76 438 60 428 l 244 521 q 268 549 268 532 q 244 576 268 564 l 76 660 q 60 688 60 669 l 60 736 q 83 768 60 768 q 104 763 94 768 l 454 578 l 454 578 z "},"?":{"ha":529,"x_min":78,"x_max":460,"o":"m 300 310 q 269 279 300 279 l 239 279 q 208 310 208 279 l 208 354 q 217 458 208 401 q 249 568 225 515 l 321 731 q 348 804 338 767 q 358 875 358 842 q 328 963 358 931 q 254 994 299 994 q 205 982 225 994 q 172 951 185 969 q 143 933 158 933 q 133 935 139 933 q 110 947 126 938 q 84 966 90 958 q 78 981 78 974 q 82 994 78 986 q 149 1067 106 1036 q 254 1097 192 1097 q 338 1079 300 1097 q 403 1031 376 1061 q 445 958 431 1000 q 460 871 460 917 q 449 786 460 835 q 411 675 439 738 l 338 517 q 309 432 318 472 q 300 351 300 392 l 300 310 m 307 31 q 276 0 307 0 l 233 0 q 203 31 203 0 l 203 88 q 233 118 203 118 l 276 118 q 307 88 307 118 l 307 31 z "},"@":{"ha":529,"x_min":47,"x_max":481,"o":"m 311 704 q 319 699 314 699 q 328 706 324 699 q 349 713 333 713 q 369 690 369 713 l 353 381 q 369 360 353 360 q 387 369 378 360 q 403 405 396 378 q 414 481 410 432 q 418 608 418 529 q 413 733 418 676 q 394 828 408 789 q 353 888 379 867 q 285 910 328 910 q 156 812 197 910 q 114 493 114 714 q 125 297 114 376 q 157 169 136 218 q 208 98 178 119 q 279 76 239 76 q 376 107 331 76 q 397 114 388 114 q 425 93 411 114 q 433 71 433 79 q 417 43 433 57 q 382 18 401 29 q 332 -2 358 6 q 275 -10 306 -10 q 183 13 225 -10 q 111 94 142 36 q 64 247 81 151 q 47 489 47 343 q 63 726 47 629 q 109 882 79 822 q 183 968 139 942 q 282 994 226 994 q 382 965 343 994 q 442 885 421 936 q 472 765 464 835 q 481 615 481 696 q 472 460 481 522 q 449 359 464 397 q 414 305 435 321 q 368 289 393 289 q 334 299 349 289 q 308 310 319 310 q 285 297 297 310 q 244 283 272 283 q 208 297 222 283 q 185 335 193 311 q 174 392 176 360 q 171 461 171 425 q 201 661 171 596 q 272 726 232 726 q 311 704 300 726 m 283 647 q 248 601 261 647 q 235 457 235 554 q 241 381 235 403 q 263 358 247 358 q 283 369 275 358 q 293 396 292 379 l 307 621 q 298 642 307 638 q 283 647 289 647 z "},"C":{"ha":529,"x_min":58,"x_max":469,"o":"m 58 864 q 76 965 58 921 q 124 1038 94 1008 q 190 1082 153 1067 q 264 1097 226 1097 q 340 1082 303 1097 q 406 1038 376 1067 q 452 965 435 1008 q 469 864 469 921 l 469 835 q 461 813 469 821 q 440 804 453 804 l 400 804 q 369 835 369 804 l 369 872 q 339 964 369 933 q 267 994 308 994 q 192 964 222 994 q 163 872 163 933 l 163 214 q 192 124 163 154 q 267 93 222 93 q 339 124 308 93 q 369 214 369 154 l 369 268 q 400 299 369 299 l 439 299 q 469 268 469 299 l 469 224 q 452 122 469 165 q 406 49 435 78 q 340 5 376 19 q 264 -10 303 -10 q 190 5 226 -10 q 124 49 153 19 q 76 122 94 78 q 58 224 58 165 l 58 864 z "},"D":{"ha":529,"x_min":38,"x_max":489,"o":"m 221 985 q 190 954 190 985 l 190 133 q 221 103 190 103 l 283 103 q 356 133 326 103 q 385 224 385 164 l 385 864 q 356 954 385 924 q 283 985 326 985 l 221 985 m 68 0 q 38 31 38 0 l 38 78 q 45 96 38 92 q 63 103 53 100 q 80 110 72 106 q 88 128 88 114 l 88 960 q 80 978 88 974 q 63 985 72 982 q 45 992 53 988 q 38 1010 38 996 l 38 1057 q 68 1088 38 1088 l 283 1088 q 358 1073 321 1088 q 424 1029 394 1058 q 471 956 453 1000 q 489 854 489 913 l 489 233 q 471 131 489 175 q 424 58 453 88 q 358 15 394 29 q 283 0 321 0 l 68 0 z "},"E":{"ha":529,"x_min":58,"x_max":482,"o":"m 372 600 q 403 569 403 600 l 403 528 q 372 497 403 497 l 193 497 q 163 467 163 497 l 163 133 q 193 103 163 103 l 451 103 q 482 72 482 103 l 482 31 q 451 0 482 0 l 89 0 q 58 31 58 0 l 58 1057 q 89 1088 58 1088 l 451 1088 q 482 1057 482 1088 l 482 1015 q 451 985 482 985 l 193 985 q 163 954 163 985 l 163 631 q 193 600 163 600 l 372 600 l 372 600 z "},"F":{"ha":529,"x_min":58,"x_max":482,"o":"m 372 600 q 403 569 403 600 l 403 528 q 372 497 403 497 l 193 497 q 163 467 163 497 l 163 31 q 132 0 163 0 l 89 0 q 58 31 58 0 l 58 1057 q 89 1088 58 1088 l 451 1088 q 482 1057 482 1088 l 482 1015 q 451 985 482 985 l 193 985 q 163 954 163 985 l 163 631 q 193 600 163 600 l 372 600 l 372 600 z "},"G":{"ha":529,"x_min":58,"x_max":469,"o":"m 367 361 q 336 392 367 392 l 300 392 q 269 422 269 392 l 269 464 q 300 494 269 494 l 439 494 q 469 464 469 494 l 469 224 q 452 122 469 165 q 406 49 435 78 q 340 5 376 19 q 264 -10 303 -10 q 190 5 226 -10 q 124 49 153 19 q 76 122 94 78 q 58 224 58 165 l 58 864 q 76 965 58 921 q 124 1038 94 1008 q 190 1082 153 1067 q 264 1097 226 1097 q 340 1082 303 1097 q 406 1038 376 1067 q 452 965 435 1008 q 469 864 469 921 l 469 835 q 461 813 469 821 q 440 804 453 804 l 400 804 q 369 835 369 804 l 369 872 q 339 964 369 933 q 265 994 308 994 q 192 964 222 994 q 163 872 163 933 l 163 214 q 192 124 163 154 q 264 93 221 93 q 337 124 307 93 q 367 214 367 154 l 367 361 z "},"H":{"ha":529,"x_min":58,"x_max":469,"o":"m 132 1088 q 163 1057 163 1088 l 163 631 q 193 600 163 600 l 336 600 q 367 631 367 600 l 367 1057 q 397 1088 367 1088 l 439 1088 q 469 1057 469 1088 l 469 31 q 439 0 469 0 l 397 0 q 367 31 367 0 l 367 467 q 336 497 367 497 l 193 497 q 163 467 163 497 l 163 31 q 132 0 163 0 l 89 0 q 58 31 58 0 l 58 1057 q 89 1088 58 1088 l 132 1088 l 132 1088 z "},"I":{"ha":529,"x_min":47,"x_max":482,"o":"m 451 103 q 482 72 482 103 l 482 31 q 451 0 482 0 l 78 0 q 47 31 47 0 l 47 72 q 78 103 47 103 l 179 103 q 210 133 210 103 l 210 954 q 179 985 210 985 l 78 985 q 47 1015 47 985 l 47 1057 q 78 1088 47 1088 l 451 1088 q 482 1057 482 1088 l 482 1015 q 451 985 482 985 l 344 985 q 314 954 314 985 l 314 133 q 344 103 314 103 l 451 103 l 451 103 z "},"J":{"ha":529,"x_min":58,"x_max":469,"o":"m 439 1088 q 469 1057 469 1088 l 469 224 q 452 122 469 165 q 406 49 435 78 q 340 5 376 19 q 264 -10 303 -10 q 190 5 226 -10 q 124 49 153 19 q 76 122 94 78 q 58 224 58 165 l 58 268 q 89 299 58 299 l 129 299 q 160 268 160 299 l 160 214 q 190 124 160 154 q 263 93 221 93 q 336 124 306 93 q 367 214 367 154 l 367 1057 q 397 1088 367 1088 l 439 1088 l 439 1088 z "},"K":{"ha":529,"x_min":58,"x_max":458,"o":"m 132 1088 q 163 1057 163 1088 l 163 842 q 181 783 163 783 q 219 826 197 783 l 353 1071 q 379 1088 363 1088 l 421 1088 q 454 1064 454 1088 q 447 1042 454 1056 l 236 658 q 228 628 228 642 q 232 603 228 615 l 456 42 q 458 33 458 38 q 458 25 458 28 q 428 0 458 0 l 379 0 q 351 19 358 0 l 221 351 q 179 417 196 417 q 163 340 163 417 l 163 31 q 132 0 163 0 l 89 0 q 58 31 58 0 l 58 1057 q 89 1088 58 1088 l 132 1088 l 132 1088 z "},"M":{"ha":529,"x_min":51,"x_max":478,"o":"m 478 31 q 447 0 478 0 l 408 0 q 378 31 378 0 l 378 567 q 364 649 378 649 q 332 574 353 649 l 292 422 q 265 401 288 401 q 238 422 242 401 l 197 574 q 164 649 176 649 q 151 567 151 649 l 151 31 q 121 0 151 0 l 82 0 q 51 31 51 0 l 51 1057 q 82 1088 51 1088 l 135 1088 q 153 1081 146 1088 q 164 1064 161 1075 l 235 792 q 264 740 247 740 q 293 792 279 740 l 365 1065 q 394 1088 371 1088 l 447 1088 q 478 1057 478 1088 l 478 31 l 478 31 z "},"N":{"ha":529,"x_min":58,"x_max":469,"o":"m 469 31 q 439 0 469 0 l 389 0 q 358 22 365 0 l 219 518 q 176 611 193 611 q 160 510 160 611 l 160 31 q 129 0 160 0 l 89 0 q 58 31 58 0 l 58 1057 q 89 1088 58 1088 l 147 1088 q 166 1082 158 1088 q 176 1065 174 1076 l 310 582 q 353 486 336 486 q 369 590 369 486 l 369 1057 q 400 1088 369 1088 l 439 1088 q 469 1057 469 1088 l 469 31 l 469 31 z "},"O":{"ha":529,"x_min":58,"x_max":469,"o":"m 58 910 q 221 1088 58 1088 l 308 1088 q 469 910 469 1088 l 469 176 q 308 0 469 0 l 221 0 q 58 176 58 0 l 58 910 m 163 168 q 221 103 163 103 l 308 103 q 367 168 367 103 l 367 919 q 308 985 367 985 l 221 985 q 163 919 163 985 l 163 168 z "},"P":{"ha":529,"x_min":58,"x_max":465,"o":"m 193 985 q 163 954 163 985 l 163 631 q 193 600 163 600 l 258 600 q 331 631 301 600 q 360 721 360 661 l 360 864 q 331 954 360 924 q 258 985 301 985 l 193 985 m 163 31 q 132 0 163 0 l 89 0 q 58 31 58 0 l 58 1057 q 89 1088 58 1088 l 258 1088 q 333 1073 296 1088 q 400 1029 371 1058 q 447 956 429 1000 q 465 854 465 913 l 465 731 q 447 628 465 672 q 400 556 429 585 q 333 512 371 526 q 258 497 296 497 l 193 497 q 163 467 163 497 l 163 31 z "},"Q":{"ha":529,"x_min":58,"x_max":469,"o":"m 58 864 q 76 965 58 921 q 124 1038 94 1008 q 190 1082 153 1067 q 264 1097 226 1097 q 340 1082 303 1097 q 406 1038 376 1067 q 452 965 435 1008 q 469 864 469 921 l 469 319 q 445 201 469 250 q 382 125 421 153 q 367 99 367 114 q 371 83 367 92 q 399 49 386 60 q 422 32 413 38 q 436 22 431 26 q 442 10 442 18 q 436 -3 442 3 q 419 -10 431 -10 q 396 -5 410 -10 q 368 9 382 0 q 341 30 354 18 q 319 54 328 42 q 294 81 304 75 q 271 88 283 88 q 197 100 235 88 q 129 140 160 113 q 78 213 99 168 q 58 319 58 257 l 58 864 m 275 407 q 312 374 297 407 q 333 268 326 342 q 338 250 335 254 q 346 246 342 246 q 361 267 356 246 q 367 311 367 288 l 367 872 q 337 964 367 933 q 264 994 307 994 q 192 964 221 994 q 163 872 163 933 l 163 311 q 192 220 163 251 q 260 189 221 189 q 275 201 275 189 q 274 221 275 206 q 272 256 274 236 q 269 297 271 275 q 264 339 267 319 q 258 369 261 360 q 256 385 256 378 q 275 407 256 407 z "},"R":{"ha":529,"x_min":53,"x_max":471,"o":"m 157 31 q 126 0 157 0 l 83 0 q 53 31 53 0 l 53 1057 q 83 1088 53 1088 l 264 1088 q 340 1073 303 1088 q 406 1029 376 1058 q 452 956 435 1000 q 469 854 469 913 l 469 736 q 444 615 469 664 q 378 538 418 565 q 364 508 364 529 q 365 497 364 503 q 367 485 365 492 l 461 79 q 471 29 471 40 q 440 0 471 0 l 396 0 q 365 24 369 0 l 265 479 q 235 503 261 503 l 188 503 q 157 472 157 503 l 157 31 m 188 985 q 157 954 157 985 l 157 636 q 188 606 157 606 l 264 606 q 337 636 307 606 q 367 726 367 667 l 367 864 q 337 954 367 924 q 264 985 307 985 l 188 985 z "},"S":{"ha":529,"x_min":44,"x_max":485,"o":"m 446 919 q 415 889 446 889 l 379 889 q 349 919 349 889 q 326 975 349 956 q 276 994 304 994 q 231 976 253 994 q 210 915 210 957 q 214 873 210 896 q 229 831 218 850 l 436 411 q 474 317 463 358 q 485 231 485 275 q 468 127 485 172 q 423 51 451 82 q 355 6 394 21 q 269 -10 315 -10 q 181 6 222 -10 q 110 50 140 21 q 62 122 79 79 q 44 217 44 164 q 75 251 44 251 l 110 251 q 140 217 140 251 q 178 126 140 158 q 268 93 215 93 q 308 99 288 93 q 344 121 328 106 q 372 163 361 136 q 382 232 382 190 q 375 288 382 260 q 349 357 368 317 l 138 786 q 114 853 119 822 q 108 907 108 883 q 123 992 108 957 q 162 1051 138 1028 q 216 1086 186 1075 q 276 1097 246 1097 q 343 1083 313 1097 q 397 1046 374 1069 q 433 990 419 1022 q 446 919 446 957 z "},"U":{"ha":529,"x_min":58,"x_max":469,"o":"m 58 1057 q 89 1088 58 1088 l 132 1088 q 163 1057 163 1088 l 163 214 q 192 124 163 154 q 264 93 221 93 q 337 124 307 93 q 367 214 367 154 l 367 1057 q 397 1088 367 1088 l 439 1088 q 469 1057 469 1088 l 469 224 q 452 122 469 165 q 406 49 435 78 q 340 5 376 19 q 264 -10 303 -10 q 190 5 226 -10 q 124 49 153 19 q 76 122 94 78 q 58 224 58 165 l 58 1057 z "},"V":{"ha":529,"x_min":36,"x_max":490,"o":"m 107 1088 q 138 1061 133 1088 l 233 407 q 264 315 246 315 q 294 407 279 315 l 390 1061 q 421 1088 394 1088 l 460 1088 q 490 1058 490 1088 q 490 1048 490 1054 q 488 1032 489 1042 l 335 26 q 304 0 331 0 l 224 0 q 193 26 197 0 l 39 1032 q 37 1047 38 1040 q 36 1058 36 1053 q 67 1088 36 1088 l 107 1088 l 107 1088 z "},"W":{"ha":529,"x_min":21,"x_max":508,"o":"m 21 1056 q 51 1088 21 1088 l 90 1088 q 121 1058 118 1088 l 154 501 q 174 422 158 422 q 207 497 188 422 l 243 650 q 265 667 247 667 q 286 650 282 667 l 322 497 q 353 422 339 422 q 372 501 368 422 l 407 1058 q 438 1088 410 1088 l 478 1088 q 508 1056 508 1088 l 449 29 q 418 0 446 0 l 369 0 q 339 25 343 0 l 294 243 q 264 308 279 308 q 235 243 247 308 l 190 25 q 160 0 186 0 l 110 0 q 79 29 82 0 l 21 1056 l 21 1056 z "},"X":{"ha":529,"x_min":40,"x_max":486,"o":"m 382 1065 q 392 1082 385 1076 q 411 1088 400 1088 l 451 1088 q 482 1061 482 1088 q 481 1049 482 1053 l 343 576 q 338 543 338 558 q 338 526 338 533 q 342 507 339 518 l 483 39 q 486 25 486 28 q 454 0 486 0 l 406 0 q 387 6 394 0 q 376 22 379 11 l 290 328 q 261 375 278 375 q 232 328 244 375 l 147 22 q 137 6 144 11 q 118 0 129 0 l 72 0 q 40 26 40 0 q 42 39 40 35 l 189 531 q 196 568 196 554 q 192 593 196 581 l 57 1049 q 54 1061 54 1057 q 86 1088 54 1088 l 126 1088 q 157 1065 150 1088 l 240 771 q 269 724 253 724 q 300 771 288 724 l 382 1065 l 382 1065 z "},"Y":{"ha":529,"x_min":51,"x_max":475,"o":"m 211 508 q 203 567 211 539 l 60 1031 q 53 1055 54 1049 q 51 1064 51 1061 q 83 1088 51 1088 l 126 1088 q 156 1065 150 1088 l 233 803 q 263 758 246 758 q 292 803 278 758 l 372 1065 q 401 1088 378 1088 l 443 1088 q 475 1064 475 1088 q 474 1055 475 1061 q 467 1031 472 1049 l 324 567 q 315 508 315 539 l 315 31 q 285 0 315 0 l 242 0 q 211 31 211 0 l 211 508 l 211 508 z "},"Z":{"ha":529,"x_min":58,"x_max":478,"o":"m 447 103 q 478 72 478 103 l 478 31 q 447 0 478 0 l 89 0 q 58 31 58 0 l 58 83 q 60 106 58 99 q 65 126 61 114 l 353 944 q 356 958 356 956 q 324 985 356 985 l 89 985 q 58 1015 58 985 l 58 1057 q 89 1088 58 1088 l 447 1088 q 478 1057 478 1088 l 478 1013 q 476 985 478 996 q 467 957 474 975 l 179 143 q 177 135 178 139 q 176 128 176 132 q 208 103 176 103 l 447 103 l 447 103 z "},"[":{"ha":264,"x_min":44,"x_max":250,"o":"m 75 -165 q 44 -135 44 -165 l 44 1221 q 75 1251 44 1251 l 219 1251 q 250 1221 250 1251 l 250 1181 q 219 1150 250 1150 l 169 1150 q 139 1119 139 1150 l 139 -32 q 169 -62 139 -62 l 219 -62 q 250 -93 250 -62 l 250 -135 q 219 -165 250 -165 l 75 -165 l 75 -165 z "},"\\":{"ha":264,"x_min":6,"x_max":258,"o":"m 63 1143 q 93 1117 89 1143 l 256 0 q 258 -15 257 -8 q 258 -26 258 -21 q 229 -56 258 -56 l 201 -56 q 171 -29 175 -56 l 8 1088 q 6 1102 7 1096 q 6 1114 6 1108 q 35 1143 6 1143 l 63 1143 z "},"]":{"ha":264,"x_min":14,"x_max":219,"o":"m 189 1253 q 219 1222 219 1253 l 219 -133 q 189 -164 219 -164 l 44 -164 q 14 -133 14 -164 l 14 -93 q 44 -62 14 -62 l 94 -62 q 125 -32 125 -62 l 125 1119 q 94 1150 125 1150 l 44 1150 q 14 1181 14 1150 l 14 1222 q 44 1253 14 1253 l 189 1253 l 189 1253 z "},"^":{"ha":529,"x_min":51,"x_max":476,"o":"m 265 1088 q 290 1069 283 1088 l 474 567 q 476 550 476 556 q 446 525 476 525 l 400 525 q 371 546 378 525 l 293 774 q 264 811 281 811 q 235 774 247 811 l 158 546 q 129 525 151 525 l 83 525 q 51 550 51 525 q 56 567 51 558 l 239 1069 q 265 1088 246 1088 z "},"_":{"ha":529,"x_min":-3,"x_max":532,"o":"m 28 -157 q -3 -126 -3 -157 l -3 -85 q 28 -54 -3 -54 l 501 -54 q 532 -85 532 -54 l 532 -126 q 501 -157 532 -157 l 28 -157 l 28 -157 z "},"`":{"ha":529,"x_min":178,"x_max":357,"o":"m 353 1189 q 357 1171 357 1178 q 329 1150 357 1150 l 304 1150 q 278 1165 286 1150 l 186 1319 q 178 1343 178 1332 q 213 1365 178 1365 l 250 1365 q 278 1347 268 1365 l 353 1189 l 353 1189 z "},"B":{"ha":529,"x_min":36,"x_max":486,"o":"m 219 985 q 189 954 189 985 l 189 629 q 219 599 189 599 l 282 599 q 350 630 322 599 q 378 719 378 661 l 378 864 q 349 956 378 926 q 272 985 321 985 l 219 985 m 67 0 q 36 31 36 0 l 36 78 q 44 96 36 92 q 61 103 51 100 q 78 110 71 106 q 86 128 86 114 l 86 960 q 78 978 86 974 q 61 985 71 982 q 44 992 51 988 q 36 1010 36 996 l 36 1057 q 67 1088 36 1088 l 272 1088 q 352 1074 314 1088 q 418 1031 390 1060 q 463 958 446 1001 q 479 854 479 914 l 479 731 q 465 648 479 685 q 426 583 451 611 q 413 556 413 569 q 428 525 413 540 q 470 456 454 497 q 486 367 486 415 l 486 233 q 470 130 486 174 q 426 57 454 86 q 361 14 399 28 q 282 0 324 0 l 67 0 m 219 499 q 189 468 189 499 l 189 133 q 219 103 189 103 l 282 103 q 382 224 382 103 l 382 378 q 353 468 382 438 q 279 499 325 499 l 219 499 z "},"L":{"ha":529,"x_min":58,"x_max":482,"o":"m 451 103 q 482 72 482 103 l 482 31 q 451 0 482 0 l 89 0 q 58 31 58 0 l 58 1057 q 89 1088 58 1088 l 132 1088 q 163 1057 163 1088 l 163 133 q 193 103 163 103 l 451 103 l 451 103 z "},"T":{"ha":529,"x_min":47,"x_max":482,"o":"m 451 1088 q 482 1057 482 1088 l 482 1015 q 451 985 482 985 l 344 985 q 314 954 314 985 l 314 31 q 283 0 314 0 l 240 0 q 210 31 210 0 l 210 954 q 179 985 210 985 l 78 985 q 47 1015 47 985 l 47 1057 q 78 1088 47 1088 l 451 1088 l 451 1088 z "},"{":{"ha":264,"x_min":14,"x_max":250,"o":"m 82 431 q 72 472 82 460 q 48 492 61 485 q 24 510 35 500 q 14 543 14 519 q 24 576 14 565 q 48 596 35 588 q 72 617 61 604 q 82 657 82 629 l 82 1076 q 116 1203 82 1156 q 219 1250 150 1250 q 250 1221 250 1250 l 250 1181 q 238 1157 250 1165 q 213 1140 226 1149 q 188 1117 200 1131 q 176 1076 176 1103 l 176 661 q 172 615 176 633 q 161 583 167 596 q 151 560 156 569 q 146 543 146 551 q 151 524 146 532 q 161 505 156 517 q 172 474 167 493 q 176 425 176 456 l 176 11 q 188 -30 176 -17 q 213 -52 200 -43 q 238 -69 226 -61 q 250 -93 250 -78 l 250 -135 q 219 -164 250 -164 q 116 -116 150 -164 q 82 11 82 -68 l 82 431 z "},"|":{"ha":264,"x_min":85,"x_max":181,"o":"m 115 -87 q 85 -57 85 -87 l 85 1143 q 115 1174 85 1174 l 150 1174 q 181 1143 181 1174 l 181 -57 q 150 -87 181 -87 l 115 -87 l 115 -87 z "},"}":{"ha":264,"x_min":14,"x_max":250,"o":"m 182 656 q 192 614 182 626 q 216 594 203 601 q 240 576 229 586 q 250 543 250 567 q 240 509 250 519 q 216 490 229 499 q 192 469 203 482 q 182 429 182 456 l 182 10 q 148 -117 182 -69 q 44 -164 114 -164 q 14 -135 14 -164 l 14 -94 q 26 -71 14 -79 q 51 -53 38 -62 q 76 -31 64 -44 q 88 10 88 -18 l 88 425 q 92 472 88 453 q 103 503 97 490 q 113 526 108 517 q 118 543 118 535 q 113 561 118 553 q 103 581 108 569 q 92 612 97 593 q 88 661 88 631 l 88 1075 q 76 1115 88 1101 q 51 1138 64 1129 q 26 1156 38 1147 q 14 1179 14 1164 l 14 1221 q 44 1250 14 1250 q 148 1202 114 1250 q 182 1075 182 1154 l 182 656 z "},"~":{"ha":529,"x_min":14,"x_max":513,"o":"m 400 456 q 326 469 360 456 q 260 499 292 483 q 199 529 229 515 q 138 543 169 543 q 99 533 114 543 q 79 496 85 524 q 43 465 72 465 q 22 474 31 465 q 14 504 14 483 q 46 610 14 579 q 126 640 78 640 q 201 626 167 640 q 266 596 235 613 q 328 565 297 579 q 390 551 358 551 q 426 561 413 551 q 446 599 440 571 q 483 629 450 629 q 504 621 496 629 q 513 593 513 613 q 481 485 513 515 q 400 456 449 456 z "},"¡":{"ha":264,"x_min":65,"x_max":199,"o":"m 89 779 q 99 800 90 792 q 119 808 107 808 l 144 808 q 166 800 157 808 q 175 779 175 792 l 197 32 q 190 8 199 17 q 167 0 182 0 l 97 0 q 74 8 82 0 q 67 32 65 17 l 89 779 m 79 1057 q 110 1088 79 1088 l 153 1088 q 183 1057 183 1088 l 183 1000 q 153 969 183 969 l 110 969 q 79 1000 79 969 l 79 1057 z "},"¢":{"ha":529,"x_min":99,"x_max":436,"o":"m 99 771 q 135 904 99 854 q 221 971 171 954 q 246 1003 246 978 l 246 1063 q 271 1088 246 1088 q 296 1063 296 1088 l 296 1000 q 319 968 296 978 q 402 901 368 950 q 436 771 436 853 l 436 744 q 410 718 436 718 l 379 718 q 349 749 349 718 l 349 778 q 326 858 349 832 q 269 883 304 883 q 210 858 233 883 q 188 778 188 832 l 188 292 q 210 213 188 239 q 269 188 233 188 q 326 213 304 188 q 349 292 349 239 l 349 338 q 379 368 349 368 l 406 368 q 436 338 436 368 l 436 301 q 402 170 436 219 q 319 103 368 121 q 296 71 296 93 l 296 25 q 271 0 296 0 q 246 25 246 0 l 246 68 q 239 88 246 79 q 221 100 232 97 q 135 166 171 117 q 99 301 99 215 l 99 771 z "},"£":{"ha":529,"x_min":4,"x_max":521,"o":"m 222 888 q 232 774 222 843 q 257 625 242 704 q 286 600 261 600 l 360 600 q 390 569 390 600 l 390 528 q 360 497 390 497 l 314 497 q 289 488 294 497 q 283 463 283 478 q 295 382 290 414 q 302 325 300 350 q 306 278 304 300 q 307 228 307 256 q 316 162 308 188 q 334 121 324 136 q 356 99 344 106 q 378 93 368 93 q 410 113 397 93 q 422 167 422 132 q 412 227 422 203 q 401 263 401 251 q 408 281 401 271 q 424 299 414 290 q 447 313 435 307 q 472 318 460 318 q 485 307 476 318 q 501 276 493 296 q 515 228 510 256 q 521 169 521 201 q 513 101 521 133 q 488 44 504 69 q 446 5 471 19 q 388 -10 421 -10 q 344 -2 361 -10 q 315 15 326 6 q 293 33 303 25 q 274 40 283 40 q 251 33 261 40 q 226 15 240 25 q 193 -2 213 6 q 146 -10 174 -10 q 44 34 83 -10 q 4 153 4 78 q 43 274 4 229 q 136 318 82 318 q 181 309 165 318 q 208 300 197 300 q 221 322 221 300 q 214 379 221 343 q 194 474 207 415 q 164 497 190 497 l 128 497 q 97 528 97 497 l 97 569 q 107 591 97 586 q 128 599 117 596 q 150 606 140 601 q 160 625 160 610 q 153 663 160 640 q 144 706 147 686 q 126 809 133 761 q 119 897 119 857 q 161 1043 119 989 q 293 1097 203 1097 q 399 1062 365 1097 q 443 972 432 1026 q 435 949 443 957 q 417 936 426 940 q 397 931 407 932 q 386 929 388 929 q 370 940 375 929 q 358 962 365 950 q 337 984 350 974 q 297 994 324 994 q 222 888 222 994 m 97 156 q 113 108 97 124 q 150 93 128 93 q 198 110 175 93 q 221 154 221 126 q 197 201 221 183 q 150 219 174 219 q 114 203 131 219 q 97 156 97 188 z "},"¤":{"ha":529,"x_min":14,"x_max":519,"o":"m 267 382 q 325 394 297 382 q 373 429 353 407 q 405 483 393 451 q 417 551 417 514 q 405 620 417 589 q 373 674 393 651 q 325 708 353 696 q 267 721 297 721 q 208 708 235 721 q 160 674 181 696 q 128 620 140 651 q 117 551 117 589 q 128 483 117 514 q 160 429 140 451 q 208 394 181 407 q 267 382 235 382 m 267 299 q 213 306 239 299 q 164 326 186 313 q 146 333 153 333 q 124 326 133 333 q 104 304 115 318 q 78 280 86 285 q 67 275 71 275 q 49 281 58 275 q 32 296 40 288 q 19 313 24 304 q 14 329 14 322 q 19 342 14 333 q 44 374 24 350 q 64 399 60 392 q 68 414 68 407 q 64 435 68 424 q 54 462 60 446 q 44 500 49 478 q 40 551 40 522 q 44 603 40 581 q 54 641 49 625 q 64 668 60 657 q 68 689 68 679 q 64 703 68 696 q 44 729 60 711 q 19 761 24 753 q 14 774 14 769 q 19 789 14 779 q 32 807 24 799 q 49 822 40 815 q 67 828 58 828 q 78 823 71 828 q 104 799 86 818 q 124 777 115 785 q 146 769 133 769 q 164 776 153 769 q 213 797 186 790 q 267 804 239 804 q 321 797 294 804 q 369 776 347 790 q 388 769 379 769 q 409 777 400 769 q 429 799 418 785 q 455 823 447 818 q 467 828 463 828 q 484 822 475 828 q 501 807 493 815 q 515 789 510 799 q 519 774 519 779 q 515 761 519 769 q 489 729 510 753 q 469 703 474 711 q 465 689 465 696 q 469 668 465 679 q 479 641 474 657 q 489 603 485 625 q 493 551 493 581 q 489 500 493 522 q 479 462 485 478 q 469 435 474 446 q 465 414 465 424 q 469 399 465 407 q 489 374 474 392 q 515 342 510 350 q 519 329 519 333 q 515 313 519 322 q 501 296 510 304 q 484 281 493 288 q 467 275 475 275 q 455 280 463 275 q 429 304 447 285 q 409 326 418 318 q 388 333 400 333 q 369 326 379 333 q 321 306 347 313 q 267 299 294 299 z "},"¥":{"ha":529,"x_min":53,"x_max":474,"o":"m 89 435 q 58 465 58 435 l 58 507 q 89 538 58 538 l 169 538 q 192 544 183 538 q 201 563 201 550 q 201 572 201 565 q 193 597 200 578 l 61 1026 q 54 1048 56 1042 q 53 1061 53 1054 q 83 1088 53 1088 l 126 1088 q 156 1065 149 1088 l 233 803 q 263 758 246 758 q 292 803 276 758 l 372 1065 q 401 1088 379 1088 l 443 1088 q 474 1061 474 1088 l 465 1026 l 333 597 q 326 569 326 576 q 325 560 325 563 q 357 538 325 538 l 439 538 q 469 507 469 538 l 469 465 q 439 435 469 435 l 346 435 q 315 404 315 435 l 315 382 q 346 351 315 351 l 439 351 q 469 321 469 351 l 469 279 q 439 249 469 249 l 346 249 q 315 218 315 249 l 315 31 q 285 0 315 0 l 242 0 q 211 31 211 0 l 211 218 q 181 249 211 249 l 89 249 q 58 279 58 249 l 58 321 q 89 351 58 351 l 181 351 q 211 382 211 351 l 211 404 q 181 435 211 435 l 89 435 l 89 435 z "},"¦":{"ha":264,"x_min":85,"x_max":181,"o":"m 115 690 q 85 721 85 690 l 85 1143 q 115 1174 85 1174 l 150 1174 q 181 1143 181 1174 l 181 721 q 150 690 181 690 l 115 690 m 115 -87 q 85 -57 85 -87 l 85 367 q 115 397 85 397 l 150 397 q 181 367 181 397 l 181 -57 q 150 -87 181 -87 l 115 -87 z "},"§":{"ha":529,"x_min":60,"x_max":468,"o":"m 269 38 q 339 63 308 38 q 369 147 369 89 q 359 200 369 176 q 319 251 349 224 l 140 419 q 98 467 114 443 q 74 513 82 490 q 63 558 65 536 q 60 601 60 581 q 66 665 60 643 q 80 701 72 688 q 94 724 88 714 q 100 750 100 733 q 94 768 100 760 q 80 790 88 776 q 66 826 72 804 q 60 885 60 847 q 75 981 60 940 q 116 1047 90 1021 q 176 1085 142 1074 q 250 1097 211 1097 q 329 1085 292 1097 q 395 1048 367 1072 q 440 988 424 1024 q 456 908 456 953 q 425 872 456 872 l 392 872 q 361 910 361 872 q 332 974 361 946 q 258 1003 303 1003 q 189 977 219 1003 q 158 893 158 951 q 169 840 158 864 q 207 789 179 815 l 386 621 q 426 572 411 597 q 451 522 442 546 q 465 476 461 497 q 468 438 468 454 q 462 370 468 393 q 447 335 456 347 q 433 314 439 322 q 426 289 426 306 q 433 269 426 278 q 447 247 439 260 q 462 212 456 233 q 468 156 468 190 q 453 60 468 100 q 412 -5 438 21 q 351 -43 386 -31 q 275 -56 315 -56 q 196 -44 233 -56 q 131 -8 158 -32 q 88 53 104 17 q 72 138 72 89 q 103 168 72 168 l 133 168 q 164 133 164 168 q 194 66 164 94 q 269 38 224 38 m 307 560 q 242 620 265 599 q 206 652 218 642 q 189 665 193 663 q 182 667 185 667 q 162 646 165 667 q 158 603 158 625 q 168 549 158 576 q 221 482 178 522 q 285 420 261 442 q 320 388 308 399 q 336 376 332 378 q 343 374 340 374 q 364 394 358 374 q 369 438 369 414 q 358 491 369 461 q 307 560 347 521 z "},"¨":{"ha":529,"x_min":88,"x_max":440,"o":"m 190 1194 q 160 1164 190 1164 l 118 1164 q 88 1194 88 1164 l 88 1251 q 118 1282 88 1282 l 160 1282 q 190 1251 190 1282 l 190 1194 m 440 1194 q 410 1164 440 1164 l 367 1164 q 336 1194 336 1164 l 336 1251 q 367 1282 336 1282 l 410 1282 q 440 1251 440 1282 l 440 1194 z "},"©":{"ha":529,"x_min":10,"x_max":518,"o":"m 10 808 q 32 933 10 879 q 90 1024 54 988 q 171 1079 125 1061 q 264 1097 217 1097 q 357 1079 311 1097 q 438 1024 403 1061 q 496 933 474 988 q 518 808 518 879 l 518 279 q 496 154 518 208 q 438 63 474 100 q 357 8 403 26 q 264 -10 311 -10 q 171 8 217 -10 q 90 63 125 26 q 32 154 54 100 q 10 279 10 208 l 10 808 m 67 279 q 83 180 67 222 q 128 108 100 138 q 191 65 156 79 q 264 50 226 50 q 335 65 300 50 q 397 108 369 79 q 442 180 425 138 q 460 279 460 222 l 460 808 q 442 907 460 864 q 397 979 425 950 q 335 1023 369 1008 q 264 1038 300 1038 q 191 1023 226 1038 q 128 979 156 1008 q 83 907 100 950 q 67 808 67 864 l 67 279 m 147 715 q 183 812 147 779 q 261 844 219 844 q 341 812 306 844 q 376 715 376 779 l 376 699 q 360 682 376 682 l 340 682 q 321 701 321 682 l 321 721 q 304 771 321 754 q 264 788 288 788 q 222 771 239 788 q 206 721 206 754 l 206 354 q 222 305 206 322 q 264 288 239 288 q 304 305 288 288 q 321 354 321 322 l 321 378 q 344 401 321 401 l 356 401 q 376 381 376 401 l 376 360 q 341 263 376 296 q 261 231 306 231 q 183 263 219 231 q 147 360 147 296 l 147 715 z "},"ª":{"ha":264,"x_min":4,"x_max":258,"o":"m 211 475 q 190 481 196 475 q 182 501 185 488 l 171 581 q 163 601 168 594 q 142 607 157 607 l 121 607 q 100 599 108 607 q 90 581 92 590 l 81 501 q 71 483 79 492 q 50 475 63 475 l 36 475 q 4 503 4 475 l 90 1061 q 121 1088 94 1088 l 142 1088 q 172 1061 168 1088 l 258 503 q 226 475 258 475 l 211 475 m 131 686 q 153 711 153 686 q 151 733 153 714 q 145 772 149 751 q 138 810 142 793 q 131 828 133 828 q 122 810 126 828 q 115 772 118 793 q 110 733 113 751 q 108 711 108 714 q 131 686 108 686 z "},"«":{"ha":529,"x_min":40,"x_max":481,"o":"m 215 746 q 246 722 246 746 q 238 690 246 711 l 135 404 q 130 388 132 397 q 128 372 128 378 q 135 340 128 364 l 238 56 q 246 24 246 35 q 215 0 246 0 l 190 0 q 163 19 169 0 l 47 335 q 40 372 40 360 q 47 410 40 385 l 163 726 q 190 746 169 746 l 215 746 m 450 746 q 481 722 481 746 q 472 690 481 711 l 369 404 q 365 388 367 397 q 363 372 363 378 q 369 340 363 364 l 472 56 q 481 24 481 35 q 450 0 481 0 l 425 0 q 397 19 404 0 l 282 335 q 275 372 275 360 q 282 410 275 385 l 397 726 q 425 746 404 746 l 450 746 z "},"¬":{"ha":529,"x_min":58,"x_max":469,"o":"m 58 569 q 89 600 58 600 l 439 600 q 469 569 469 600 l 469 133 q 439 103 469 103 l 404 103 q 374 133 374 103 l 374 467 q 343 497 374 497 l 89 497 q 58 528 58 497 l 58 569 l 58 569 z "},"®":{"ha":264,"x_min":0,"x_max":264,"o":"m 0 947 q 11 1013 0 985 q 41 1059 22 1040 q 84 1088 60 1078 q 133 1097 108 1097 q 181 1088 157 1097 q 223 1059 204 1078 q 253 1013 242 1040 q 264 947 264 985 l 264 746 q 253 680 264 708 q 223 633 242 651 q 181 605 204 614 q 133 596 157 596 q 84 605 108 596 q 41 633 60 614 q 11 680 22 651 q 0 746 0 708 l 0 947 m 29 746 q 63 657 29 688 q 133 626 96 626 q 203 657 171 626 q 235 746 235 688 l 235 947 q 203 1036 235 1006 q 133 1067 171 1067 q 63 1036 96 1067 q 29 947 29 1006 l 29 746 m 106 704 q 90 688 106 688 q 74 704 74 688 l 74 983 q 104 1014 74 1014 l 138 1014 q 180 997 161 1014 q 199 943 199 979 l 199 908 q 182 858 199 878 q 172 842 175 851 q 171 822 168 833 l 197 703 q 186 688 201 688 q 167 703 169 688 l 139 824 q 121 839 136 839 q 106 824 106 839 l 106 704 m 122 983 q 106 968 106 983 l 106 886 q 122 869 106 869 l 138 869 q 159 878 150 869 q 168 906 168 888 l 168 947 q 159 974 168 965 q 138 983 150 983 l 122 983 z "},"¯":{"ha":529,"x_min":83,"x_max":444,"o":"m 444 1218 q 414 1188 444 1188 l 114 1188 q 83 1218 83 1188 l 83 1251 q 114 1282 83 1282 l 414 1282 q 444 1251 444 1282 l 444 1218 l 444 1218 z "},"°":{"ha":264,"x_min":0,"x_max":264,"o":"m 132 813 q 83 822 107 813 q 41 849 60 831 q 11 893 22 867 q 0 954 0 919 q 11 1016 0 989 q 41 1061 22 1043 q 83 1088 60 1079 q 132 1097 107 1097 q 179 1088 156 1097 q 222 1061 203 1079 q 252 1016 240 1043 q 264 953 264 989 q 252 891 264 917 q 222 847 240 865 q 179 821 203 829 q 132 813 156 813 m 65 956 q 85 897 65 917 q 132 876 106 876 q 179 897 160 876 q 199 956 199 917 q 179 1013 199 993 q 132 1032 160 1032 q 85 1013 106 1032 q 65 956 65 993 z "},"±":{"ha":529,"x_min":58,"x_max":469,"o":"m 58 106 m 217 736 q 247 767 217 767 l 282 767 q 313 736 313 767 l 313 631 q 343 600 313 600 l 439 600 q 469 569 469 600 l 469 528 q 439 497 469 497 l 343 497 q 313 467 313 497 l 313 360 q 282 329 313 329 l 247 329 q 217 360 217 329 l 217 467 q 186 497 217 497 l 89 497 q 58 528 58 497 l 58 569 q 89 600 58 600 l 186 600 q 217 631 217 600 l 217 736 l 217 736 m 89 106 q 58 136 58 106 l 58 178 q 89 208 58 208 l 439 208 q 469 178 469 208 l 469 136 q 439 106 469 106 l 89 106 l 89 106 z "},"²":{"ha":264,"x_min":8,"x_max":256,"o":"m 8 489 m 135 1093 q 183 1082 161 1093 q 221 1052 206 1071 q 245 1010 236 1033 q 254 960 254 986 q 248 912 254 939 q 222 851 242 885 l 108 646 q 90 593 90 615 q 118 569 90 569 l 225 569 q 256 539 256 569 l 256 519 q 225 489 256 489 l 39 489 q 8 519 8 489 l 8 565 q 15 626 8 593 q 38 686 22 658 l 151 893 q 168 929 161 911 q 175 963 175 947 q 163 997 175 983 q 135 1011 151 1011 q 116 1006 124 1011 q 102 995 108 1001 q 90 984 96 989 q 75 979 83 979 q 53 986 67 979 q 33 1000 38 993 q 29 1015 29 1007 q 39 1040 29 1026 q 60 1064 49 1054 q 135 1093 93 1093 z "},"³":{"ha":264,"x_min":19,"x_max":251,"o":"m 19 483 m 131 1011 q 110 1006 118 1011 q 97 994 103 1000 q 85 982 90 988 q 71 976 79 976 q 63 978 68 976 q 49 985 58 979 q 22 1014 22 997 q 43 1051 22 1025 q 83 1082 60 1071 q 131 1093 107 1093 q 172 1085 151 1093 q 210 1060 193 1076 q 238 1017 226 1043 q 249 957 249 992 l 249 886 q 235 831 249 850 q 222 797 222 813 q 227 780 222 789 q 237 760 232 771 q 247 733 242 749 q 251 696 251 718 l 251 619 q 241 559 251 585 q 213 517 231 533 q 174 492 196 500 q 131 483 153 483 q 42 521 79 483 q 19 558 19 543 q 24 572 19 565 q 43 586 29 579 q 60 594 54 593 q 68 596 65 596 q 83 591 76 596 q 96 581 89 586 q 110 570 103 575 q 131 565 118 565 q 174 615 174 565 l 174 701 q 161 738 174 726 q 128 750 149 750 q 101 781 101 750 l 101 800 q 128 831 101 831 q 157 842 144 831 q 169 881 169 854 l 169 960 q 158 999 169 988 q 131 1011 146 1011 z "},"´":{"ha":529,"x_min":172,"x_max":351,"o":"m 317 1365 q 351 1343 351 1365 q 343 1319 351 1332 l 251 1165 q 225 1150 243 1150 l 200 1150 q 172 1171 172 1150 q 176 1189 172 1178 l 251 1347 q 279 1365 260 1365 l 317 1365 l 317 1365 z "},"¶":{"ha":529,"x_min":28,"x_max":492,"o":"m 492 -89 q 461 -119 492 -119 l 443 -119 q 413 -89 413 -119 l 413 979 q 382 1010 413 1010 l 331 1010 q 300 979 300 1010 l 300 -89 q 269 -119 300 -119 l 253 -119 q 222 -89 222 -119 l 222 668 q 203 688 222 688 l 183 688 q 126 699 154 688 q 76 732 99 710 q 41 787 54 754 q 28 864 28 819 l 28 911 q 41 988 28 954 q 76 1043 54 1021 q 126 1076 99 1065 q 183 1088 154 1088 l 461 1088 q 492 1057 492 1088 l 492 -89 l 492 -89 z "},"·":{"ha":264,"x_min":81,"x_max":185,"o":"m 81 488 m 185 518 q 154 488 185 488 l 111 488 q 81 518 81 488 l 81 575 q 111 606 81 606 l 154 606 q 185 575 185 606 l 185 518 l 185 518 z "},"¸":{"ha":264,"x_min":81,"x_max":185,"o":"m 185 -118 q 183 -140 185 -129 q 179 -165 182 -151 l 157 -276 q 125 -301 153 -301 q 101 -281 101 -301 q 102 -269 101 -276 q 104 -251 103 -262 l 113 -194 q 117 -162 117 -172 q 111 -151 117 -154 q 99 -144 106 -147 q 86 -135 92 -142 q 81 -115 81 -129 l 81 -58 q 111 -28 81 -28 l 154 -28 q 185 -58 185 -28 l 185 -118 l 185 -118 z "},"¹":{"ha":264,"x_min":4,"x_max":258,"o":"m 4 489 m 228 569 q 258 539 258 569 l 258 519 q 228 489 258 489 l 35 489 q 4 519 4 489 l 4 539 q 35 569 4 569 l 64 569 q 94 600 94 569 l 94 932 q 84 954 94 949 q 62 962 74 960 q 40 967 50 964 q 29 982 29 971 q 33 995 29 989 q 43 1008 38 1001 l 89 1065 q 111 1084 100 1081 q 133 1088 122 1088 q 174 1057 174 1088 l 174 600 q 204 569 174 569 l 228 569 l 228 569 z "},"º":{"ha":264,"x_min":15,"x_max":247,"o":"m 15 988 q 107 1088 15 1088 l 157 1088 q 247 988 247 1088 l 247 575 q 157 475 247 475 l 107 475 q 15 575 15 475 l 15 988 m 96 569 q 107 554 96 554 l 157 554 q 168 569 168 554 l 168 993 q 157 1008 168 1008 l 107 1008 q 96 993 96 1008 l 96 569 z "},"»":{"ha":529,"x_min":47,"x_max":488,"o":"m 338 746 q 365 726 358 746 l 481 410 q 488 372 488 385 q 481 335 488 360 l 365 19 q 338 0 358 0 l 313 0 q 282 24 282 0 q 290 56 282 35 l 393 340 q 400 372 400 364 q 398 388 400 378 q 393 404 396 397 l 290 690 q 282 722 282 711 q 313 746 282 746 l 338 746 m 103 746 q 131 726 124 746 l 246 410 q 253 372 253 385 q 246 335 253 360 l 131 19 q 103 0 124 0 l 78 0 q 47 24 47 0 q 56 56 47 35 l 158 340 q 165 372 165 364 q 163 388 165 378 q 158 404 161 397 l 56 690 q 47 722 47 711 q 78 746 47 746 l 103 746 z "},"¼":{"ha":793,"x_min":4,"x_max":785,"o":"m 4 0 m 228 569 q 258 539 258 569 l 258 519 q 228 489 258 489 l 35 489 q 4 519 4 489 l 4 539 q 35 569 4 569 l 64 569 q 94 600 94 569 l 94 932 q 84 954 94 949 q 62 962 74 960 q 40 967 50 964 q 29 982 29 971 q 33 995 29 989 q 43 1008 38 1001 l 89 1065 q 111 1084 100 1081 q 133 1088 122 1088 q 174 1057 174 1088 l 174 600 q 204 569 174 569 l 228 569 l 228 569 m 132 0 q 103 22 103 0 q 105 32 103 26 q 114 53 107 38 l 610 1071 q 638 1088 619 1088 l 663 1088 q 692 1065 692 1088 q 690 1055 692 1061 q 679 1031 688 1049 l 185 17 q 157 0 175 0 l 132 0 l 132 0 m 756 31 q 725 0 756 0 l 707 0 q 685 11 690 0 q 677 35 681 22 q 668 60 674 49 q 646 71 663 71 l 568 71 q 538 101 538 71 l 538 118 q 539 150 538 138 q 543 178 540 163 l 610 574 q 640 599 614 599 l 661 599 q 690 571 690 599 q 688 551 690 564 q 681 508 686 538 l 628 211 q 624 189 625 194 q 624 179 624 183 q 651 150 624 150 q 668 156 664 150 q 674 173 672 163 q 678 197 676 183 q 688 224 681 210 l 707 261 q 736 278 717 278 q 756 253 756 278 l 756 165 q 760 155 756 157 q 770 151 765 153 q 780 147 775 149 q 785 136 785 144 l 785 86 q 780 76 785 78 q 770 72 775 74 q 760 67 765 69 q 756 57 756 65 l 756 31 l 756 31 z "},"½":{"ha":793,"x_min":4,"x_max":785,"o":"m 4 0 m 228 569 q 258 539 258 569 l 258 519 q 228 489 258 489 l 35 489 q 4 519 4 489 l 4 539 q 35 569 4 569 l 64 569 q 94 600 94 569 l 94 932 q 84 954 94 949 q 62 962 74 960 q 40 967 50 964 q 29 982 29 971 q 33 995 29 989 q 43 1008 38 1001 l 89 1065 q 111 1084 100 1081 q 133 1088 122 1088 q 174 1057 174 1088 l 174 600 q 204 569 174 569 l 228 569 l 228 569 m 132 0 q 103 22 103 0 q 105 32 103 26 q 114 53 107 38 l 610 1071 q 638 1088 619 1088 l 663 1088 q 692 1065 692 1088 q 690 1055 692 1061 q 679 1031 688 1049 l 185 17 q 157 0 175 0 l 132 0 l 132 0 m 664 604 q 713 593 690 604 q 750 563 735 582 q 774 521 765 544 q 783 471 783 497 q 777 423 783 450 q 751 363 771 396 l 638 157 q 619 104 619 126 q 647 81 619 81 l 754 81 q 785 50 785 81 l 785 31 q 754 0 785 0 l 568 0 q 538 31 538 0 l 538 76 q 544 137 538 104 q 567 197 551 169 l 681 404 q 697 440 690 422 q 704 474 704 458 q 692 508 704 494 q 664 522 681 522 q 645 517 653 522 q 631 506 638 513 q 619 495 625 500 q 604 490 613 490 q 582 497 596 490 q 563 511 567 504 q 558 526 558 518 q 568 551 558 538 q 589 575 578 565 q 664 604 622 604 z "},"¾":{"ha":793,"x_min":19,"x_max":785,"o":"m 19 0 m 131 1011 q 110 1006 118 1011 q 97 994 103 1000 q 85 982 90 988 q 71 976 79 976 q 63 978 68 976 q 49 985 58 979 q 22 1014 22 997 q 43 1051 22 1025 q 83 1082 60 1071 q 131 1093 107 1093 q 172 1085 151 1093 q 210 1060 193 1076 q 238 1017 226 1043 q 249 957 249 992 l 249 886 q 235 831 249 850 q 222 797 222 813 q 227 780 222 789 q 237 760 232 771 q 247 733 242 749 q 251 696 251 718 l 251 619 q 241 559 251 585 q 213 517 231 533 q 174 492 196 500 q 131 483 153 483 q 42 521 79 483 q 19 558 19 543 q 24 572 19 565 q 43 586 29 579 q 60 594 54 593 q 68 596 65 596 q 83 591 76 596 q 96 581 89 586 q 110 570 103 575 q 131 565 118 565 q 174 615 174 565 l 174 701 q 161 738 174 726 q 128 750 149 750 q 101 781 101 750 l 101 800 q 128 831 101 831 q 157 842 144 831 q 169 881 169 854 l 169 960 q 158 999 169 988 q 131 1011 146 1011 m 132 0 q 103 22 103 0 q 105 32 103 26 q 114 53 107 38 l 610 1071 q 638 1088 619 1088 l 663 1088 q 692 1065 692 1088 q 690 1055 692 1061 q 679 1031 688 1049 l 185 17 q 157 0 175 0 l 132 0 l 132 0 m 756 31 q 725 0 756 0 l 707 0 q 685 11 690 0 q 677 35 681 22 q 668 60 674 49 q 646 71 663 71 l 568 71 q 538 101 538 71 l 538 118 q 539 150 538 138 q 543 178 540 163 l 610 574 q 640 599 614 599 l 661 599 q 690 571 690 599 q 688 551 690 564 q 681 508 686 538 l 628 211 q 624 189 625 194 q 624 179 624 183 q 651 150 624 150 q 668 156 664 150 q 674 173 672 163 q 678 197 676 183 q 688 224 681 210 l 707 261 q 736 278 717 278 q 756 253 756 278 l 756 165 q 760 155 756 157 q 770 151 765 153 q 780 147 775 149 q 785 136 785 144 l 785 86 q 780 76 785 78 q 770 72 775 74 q 760 67 765 69 q 756 57 756 65 l 756 31 l 756 31 z "},"¿":{"ha":529,"x_min":69,"x_max":451,"o":"m 229 778 q 260 808 229 808 l 290 808 q 321 778 321 808 l 321 733 q 313 629 321 686 q 281 519 304 572 l 208 357 q 181 283 192 321 q 171 213 171 246 q 201 125 171 157 q 275 93 231 93 q 324 106 304 93 q 357 136 344 118 q 386 154 371 154 q 397 152 390 154 q 419 140 403 150 q 445 122 439 129 q 451 107 451 114 q 447 93 451 101 q 381 21 424 51 q 275 -10 338 -10 q 191 8 229 -10 q 126 57 153 26 q 84 129 99 88 q 69 217 69 171 q 80 301 69 253 q 118 413 90 350 l 192 571 q 220 656 211 615 q 229 736 229 696 l 229 778 m 222 1057 q 253 1088 222 1088 l 296 1088 q 326 1057 326 1088 l 326 1000 q 296 969 326 969 l 253 969 q 222 1000 222 969 l 222 1057 z "},"À":{"ha":529,"x_min":36,"x_max":490,"o":"m 36 0 m 424 0 q 393 26 397 0 l 363 226 q 332 253 358 253 l 193 253 q 163 226 167 253 l 135 26 q 104 0 131 0 l 67 0 q 36 29 36 0 q 37 35 36 31 q 40 61 38 39 l 193 1061 q 224 1088 197 1088 l 304 1088 q 335 1061 331 1088 l 486 61 q 490 35 489 39 q 490 29 490 31 q 460 0 490 0 l 424 0 m 293 688 q 263 779 278 779 q 232 688 246 779 l 193 419 q 189 382 189 394 q 218 356 189 356 l 307 356 q 338 382 338 356 q 333 419 338 394 l 293 688 m 311 1189 q 315 1171 315 1178 q 288 1150 315 1150 l 263 1150 q 236 1165 244 1150 l 144 1319 q 136 1343 136 1332 q 171 1365 136 1365 l 208 1365 q 236 1347 226 1365 l 311 1189 l 311 1189 z "},"Á":{"ha":529,"x_min":36,"x_max":490,"o":"m 36 0 m 424 0 q 393 26 397 0 l 363 226 q 332 253 358 253 l 193 253 q 163 226 167 253 l 135 26 q 104 0 131 0 l 67 0 q 36 29 36 0 q 37 35 36 31 q 40 61 38 39 l 193 1061 q 224 1088 197 1088 l 304 1088 q 335 1061 331 1088 l 486 61 q 490 35 489 39 q 490 29 490 31 q 460 0 490 0 l 424 0 m 293 688 q 263 779 278 779 q 232 688 246 779 l 193 419 q 189 382 189 394 q 218 356 189 356 l 307 356 q 338 382 338 356 q 333 419 338 394 l 293 688 m 361 1365 q 396 1343 396 1365 q 388 1319 396 1332 l 296 1165 q 269 1150 288 1150 l 244 1150 q 217 1171 217 1150 q 221 1189 217 1178 l 296 1347 q 324 1365 304 1365 l 361 1365 l 361 1365 z "},"Â":{"ha":529,"x_min":36,"x_max":490,"o":"m 36 0 m 424 0 q 393 26 397 0 l 363 226 q 332 253 358 253 l 193 253 q 163 226 167 253 l 135 26 q 104 0 131 0 l 67 0 q 36 29 36 0 q 37 35 36 31 q 40 61 38 39 l 193 1061 q 224 1088 197 1088 l 304 1088 q 335 1061 331 1088 l 486 61 q 490 35 489 39 q 490 29 490 31 q 460 0 490 0 l 424 0 m 293 688 q 263 779 278 779 q 232 688 246 779 l 193 419 q 189 382 189 394 q 218 356 189 356 l 307 356 q 338 382 338 356 q 333 419 338 394 l 293 688 m 353 1150 q 328 1164 333 1150 l 289 1225 q 263 1243 276 1243 q 238 1225 247 1243 l 199 1164 q 174 1150 193 1150 l 143 1150 q 114 1169 114 1150 q 121 1190 114 1179 l 222 1349 q 250 1365 232 1365 l 278 1365 q 306 1349 294 1365 l 407 1190 q 414 1169 414 1179 q 385 1150 414 1150 l 353 1150 l 353 1150 z "},"Ã":{"ha":529,"x_min":36,"x_max":490,"o":"m 36 0 m 424 0 q 393 26 397 0 l 363 226 q 332 253 358 253 l 193 253 q 163 226 167 253 l 135 26 q 104 0 131 0 l 67 0 q 36 29 36 0 q 37 35 36 31 q 40 61 38 39 l 193 1061 q 224 1088 197 1088 l 304 1088 q 335 1061 331 1088 l 486 61 q 490 35 489 39 q 490 29 490 31 q 460 0 490 0 l 424 0 m 293 688 q 263 779 278 779 q 232 688 246 779 l 193 419 q 189 382 189 394 q 218 356 189 356 l 307 356 q 338 382 338 356 q 333 419 338 394 l 293 688 m 376 1151 q 317 1164 344 1151 q 263 1192 289 1176 q 212 1219 238 1207 q 161 1232 186 1232 q 127 1221 142 1232 q 100 1176 113 1210 q 90 1158 97 1167 q 68 1150 83 1150 q 48 1159 53 1150 q 43 1188 43 1168 q 50 1238 43 1213 q 70 1282 57 1263 q 104 1314 83 1301 q 153 1326 125 1326 q 210 1314 182 1326 q 265 1285 239 1301 q 315 1257 290 1269 q 364 1244 340 1244 q 404 1262 392 1244 q 426 1301 417 1279 q 439 1320 432 1313 q 458 1328 446 1328 q 485 1303 485 1328 q 473 1222 485 1251 q 444 1176 461 1192 q 409 1156 428 1160 q 376 1151 390 1151 z "},"Ä":{"ha":529,"x_min":36,"x_max":490,"o":"m 36 0 m 424 0 q 393 26 397 0 l 363 226 q 332 253 358 253 l 193 253 q 163 226 167 253 l 135 26 q 104 0 131 0 l 67 0 q 36 29 36 0 q 37 35 36 31 q 40 61 38 39 l 193 1061 q 224 1088 197 1088 l 304 1088 q 335 1061 331 1088 l 486 61 q 490 35 489 39 q 490 29 490 31 q 460 0 490 0 l 424 0 m 293 688 q 263 779 278 779 q 232 688 246 779 l 193 419 q 189 382 189 394 q 218 356 189 356 l 307 356 q 338 382 338 356 q 333 419 338 394 l 293 688 m 190 1194 q 160 1164 190 1164 l 118 1164 q 88 1194 88 1164 l 88 1251 q 118 1282 88 1282 l 160 1282 q 190 1251 190 1282 l 190 1194 m 440 1194 q 410 1164 440 1164 l 367 1164 q 336 1194 336 1164 l 336 1251 q 367 1282 336 1282 l 410 1282 q 440 1251 440 1282 l 440 1194 z "},"Å":{"ha":529,"x_min":36,"x_max":490,"o":"m 36 0 m 424 0 q 393 26 397 0 l 363 226 q 332 253 358 253 l 193 253 q 163 226 167 253 l 135 26 q 104 0 131 0 l 67 0 q 36 29 36 0 q 37 35 36 31 q 40 61 38 39 l 193 1061 q 224 1088 197 1088 l 304 1088 q 335 1061 331 1088 l 486 61 q 490 35 489 39 q 490 29 490 31 q 460 0 490 0 l 424 0 m 293 688 q 263 779 278 779 q 232 688 246 779 l 193 419 q 189 382 189 394 q 218 356 189 356 l 307 356 q 338 382 338 356 q 333 419 338 394 l 293 688 m 389 1231 q 353 1134 389 1171 q 264 1097 317 1097 q 176 1135 211 1097 q 142 1232 142 1174 q 177 1328 142 1292 q 265 1365 213 1365 q 353 1328 317 1365 q 389 1231 389 1292 m 311 1232 q 265 1289 311 1289 q 215 1232 215 1289 q 228 1189 215 1206 q 264 1172 240 1172 q 299 1189 288 1172 q 311 1232 311 1206 z "},"Æ":{"ha":529,"x_min":6,"x_max":529,"o":"m 428 600 q 458 569 458 600 l 458 528 q 428 497 458 497 l 397 497 q 367 467 367 497 l 367 133 q 397 103 367 103 l 499 103 q 529 72 529 103 l 529 31 q 499 0 529 0 l 293 0 q 263 31 263 0 l 263 222 q 232 253 263 253 l 164 253 q 133 226 138 253 l 103 26 q 72 0 99 0 l 36 0 q 13 8 21 0 q 6 29 6 17 q 8 46 6 32 q 13 79 10 60 l 161 1061 q 192 1088 165 1088 l 499 1088 q 529 1057 529 1088 l 529 1015 q 499 985 529 985 l 397 985 q 367 954 367 985 l 367 631 q 397 600 367 600 l 428 600 m 263 938 q 260 962 263 956 q 253 968 258 968 q 244 963 247 968 q 239 939 242 957 l 163 426 q 158 392 158 397 q 157 385 157 388 q 165 364 157 372 q 188 356 172 356 l 232 356 q 263 386 263 356 l 263 938 z "},"Ç":{"ha":529,"x_min":58,"x_max":469,"o":"m 58 0 m 58 864 q 76 965 58 921 q 124 1038 94 1008 q 190 1082 153 1067 q 264 1097 226 1097 q 340 1082 303 1097 q 406 1038 376 1067 q 452 965 435 1008 q 469 864 469 921 l 469 835 q 461 813 469 821 q 440 804 453 804 l 400 804 q 369 835 369 804 l 369 872 q 339 964 369 933 q 267 994 308 994 q 192 964 222 994 q 163 872 163 933 l 163 214 q 192 124 163 154 q 267 93 222 93 q 339 124 308 93 q 369 214 369 154 l 369 268 q 400 299 369 299 l 439 299 q 469 268 469 299 l 469 224 q 452 122 469 165 q 406 49 435 78 q 340 5 376 19 q 264 -10 303 -10 q 190 5 226 -10 q 124 49 153 19 q 76 122 94 78 q 58 224 58 165 l 58 864 m 317 -118 q 315 -140 317 -129 q 311 -165 314 -151 l 289 -276 q 257 -301 285 -301 q 233 -281 233 -301 q 234 -269 233 -276 q 236 -251 235 -262 l 244 -194 q 249 -162 249 -172 q 243 -151 249 -154 q 231 -144 238 -147 q 218 -135 224 -142 q 213 -115 213 -129 l 213 -58 q 243 -28 213 -28 l 286 -28 q 317 -58 317 -28 l 317 -118 l 317 -118 z "},"È":{"ha":529,"x_min":58,"x_max":482,"o":"m 58 0 m 372 600 q 403 569 403 600 l 403 528 q 372 497 403 497 l 193 497 q 163 467 163 497 l 163 133 q 193 103 163 103 l 451 103 q 482 72 482 103 l 482 31 q 451 0 482 0 l 89 0 q 58 31 58 0 l 58 1057 q 89 1088 58 1088 l 451 1088 q 482 1057 482 1088 l 482 1015 q 451 985 482 985 l 193 985 q 163 954 163 985 l 163 631 q 193 600 163 600 l 372 600 l 372 600 m 317 1189 q 321 1171 321 1178 q 293 1150 321 1150 l 268 1150 q 242 1165 250 1150 l 150 1319 q 142 1343 142 1332 q 176 1365 142 1365 l 214 1365 q 242 1347 232 1365 l 317 1189 l 317 1189 z "},"É":{"ha":529,"x_min":58,"x_max":482,"o":"m 58 0 m 372 600 q 403 569 403 600 l 403 528 q 372 497 403 497 l 193 497 q 163 467 163 497 l 163 133 q 193 103 163 103 l 451 103 q 482 72 482 103 l 482 31 q 451 0 482 0 l 89 0 q 58 31 58 0 l 58 1057 q 89 1088 58 1088 l 451 1088 q 482 1057 482 1088 l 482 1015 q 451 985 482 985 l 193 985 q 163 954 163 985 l 163 631 q 193 600 163 600 l 372 600 l 372 600 m 317 1365 q 351 1343 351 1365 q 343 1319 351 1332 l 251 1165 q 225 1150 243 1150 l 200 1150 q 172 1171 172 1150 q 176 1189 172 1178 l 251 1347 q 279 1365 260 1365 l 317 1365 l 317 1365 z "},"Ê":{"ha":529,"x_min":58,"x_max":482,"o":"m 58 0 m 372 600 q 403 569 403 600 l 403 528 q 372 497 403 497 l 193 497 q 163 467 163 497 l 163 133 q 193 103 163 103 l 451 103 q 482 72 482 103 l 482 31 q 451 0 482 0 l 89 0 q 58 31 58 0 l 58 1057 q 89 1088 58 1088 l 451 1088 q 482 1057 482 1088 l 482 1015 q 451 985 482 985 l 193 985 q 163 954 163 985 l 163 631 q 193 600 163 600 l 372 600 l 372 600 m 361 1150 q 336 1164 342 1150 l 297 1225 q 271 1243 285 1243 q 246 1225 256 1243 l 207 1164 q 182 1150 201 1150 l 151 1150 q 122 1169 122 1150 q 129 1190 122 1179 l 231 1349 q 258 1365 240 1365 l 286 1365 q 314 1349 303 1365 l 415 1190 q 422 1169 422 1179 q 393 1150 422 1150 l 361 1150 l 361 1150 z "},"Ë":{"ha":529,"x_min":58,"x_max":482,"o":"m 58 0 m 372 600 q 403 569 403 600 l 403 528 q 372 497 403 497 l 193 497 q 163 467 163 497 l 163 133 q 193 103 163 103 l 451 103 q 482 72 482 103 l 482 31 q 451 0 482 0 l 89 0 q 58 31 58 0 l 58 1057 q 89 1088 58 1088 l 451 1088 q 482 1057 482 1088 l 482 1015 q 451 985 482 985 l 193 985 q 163 954 163 985 l 163 631 q 193 600 163 600 l 372 600 l 372 600 m 199 1194 q 168 1164 199 1164 l 126 1164 q 96 1194 96 1164 l 96 1251 q 126 1282 96 1282 l 168 1282 q 199 1251 199 1282 l 199 1194 m 449 1194 q 418 1164 449 1164 l 375 1164 q 344 1194 344 1164 l 344 1251 q 375 1282 344 1282 l 418 1282 q 449 1251 449 1282 l 449 1194 z "},"Ì":{"ha":529,"x_min":47,"x_max":482,"o":"m 47 0 m 451 103 q 482 72 482 103 l 482 31 q 451 0 482 0 l 78 0 q 47 31 47 0 l 47 72 q 78 103 47 103 l 179 103 q 210 133 210 103 l 210 954 q 179 985 210 985 l 78 985 q 47 1015 47 985 l 47 1057 q 78 1088 47 1088 l 451 1088 q 482 1057 482 1088 l 482 1015 q 451 985 482 985 l 344 985 q 314 954 314 985 l 314 133 q 344 103 314 103 l 451 103 l 451 103 m 308 1189 q 313 1171 313 1178 q 285 1150 313 1150 l 260 1150 q 233 1165 242 1150 l 142 1319 q 133 1343 133 1332 q 168 1365 133 1365 l 206 1365 q 233 1347 224 1365 l 308 1189 l 308 1189 z "},"Í":{"ha":529,"x_min":47,"x_max":482,"o":"m 47 0 m 451 103 q 482 72 482 103 l 482 31 q 451 0 482 0 l 78 0 q 47 31 47 0 l 47 72 q 78 103 47 103 l 179 103 q 210 133 210 103 l 210 954 q 179 985 210 985 l 78 985 q 47 1015 47 985 l 47 1057 q 78 1088 47 1088 l 451 1088 q 482 1057 482 1088 l 482 1015 q 451 985 482 985 l 344 985 q 314 954 314 985 l 314 133 q 344 103 314 103 l 451 103 l 451 103 m 361 1365 q 396 1343 396 1365 q 388 1319 396 1332 l 296 1165 q 269 1150 288 1150 l 244 1150 q 217 1171 217 1150 q 221 1189 217 1178 l 296 1347 q 324 1365 304 1365 l 361 1365 l 361 1365 z "},"Î":{"ha":529,"x_min":47,"x_max":482,"o":"m 47 0 m 451 103 q 482 72 482 103 l 482 31 q 451 0 482 0 l 78 0 q 47 31 47 0 l 47 72 q 78 103 47 103 l 179 103 q 210 133 210 103 l 210 954 q 179 985 210 985 l 78 985 q 47 1015 47 985 l 47 1057 q 78 1088 47 1088 l 451 1088 q 482 1057 482 1088 l 482 1015 q 451 985 482 985 l 344 985 q 314 954 314 985 l 314 133 q 344 103 314 103 l 451 103 l 451 103 m 353 1150 q 328 1164 333 1150 l 289 1225 q 263 1243 276 1243 q 238 1225 247 1243 l 199 1164 q 174 1150 193 1150 l 143 1150 q 114 1169 114 1150 q 121 1190 114 1179 l 222 1349 q 250 1365 232 1365 l 278 1365 q 306 1349 294 1365 l 407 1190 q 414 1169 414 1179 q 385 1150 414 1150 l 353 1150 l 353 1150 z "},"Ï":{"ha":529,"x_min":47,"x_max":482,"o":"m 47 0 m 451 103 q 482 72 482 103 l 482 31 q 451 0 482 0 l 78 0 q 47 31 47 0 l 47 72 q 78 103 47 103 l 179 103 q 210 133 210 103 l 210 954 q 179 985 210 985 l 78 985 q 47 1015 47 985 l 47 1057 q 78 1088 47 1088 l 451 1088 q 482 1057 482 1088 l 482 1015 q 451 985 482 985 l 344 985 q 314 954 314 985 l 314 133 q 344 103 314 103 l 451 103 l 451 103 m 190 1194 q 160 1164 190 1164 l 118 1164 q 88 1194 88 1164 l 88 1251 q 118 1282 88 1282 l 160 1282 q 190 1251 190 1282 l 190 1194 m 440 1194 q 410 1164 440 1164 l 367 1164 q 336 1194 336 1164 l 336 1251 q 367 1282 336 1282 l 410 1282 q 440 1251 440 1282 l 440 1194 z "},"Ð":{"ha":529,"x_min":-1,"x_max":489,"o":"m 68 0 q 38 31 38 0 l 38 78 q 45 96 38 92 q 63 103 53 100 q 80 110 72 106 q 88 128 88 114 l 88 467 q 57 497 88 497 l 29 497 q -1 528 -1 497 l -1 569 q 29 600 -1 600 l 57 600 q 88 631 88 600 l 88 960 q 80 978 88 974 q 63 985 72 982 q 45 992 53 988 q 38 1010 38 996 l 38 1057 q 68 1088 38 1088 l 283 1088 q 358 1073 321 1088 q 424 1029 394 1058 q 471 956 453 1000 q 489 854 489 913 l 489 233 q 471 131 489 175 q 424 58 453 88 q 358 15 394 29 q 283 0 321 0 l 68 0 m 221 985 q 190 954 190 985 l 190 631 q 221 600 190 600 l 281 600 q 311 569 311 600 l 311 528 q 281 497 311 497 l 221 497 q 190 467 190 497 l 190 133 q 221 103 190 103 l 283 103 q 356 133 326 103 q 385 224 385 164 l 385 864 q 356 954 385 924 q 283 985 326 985 l 221 985 z "},"Ñ":{"ha":529,"x_min":43,"x_max":485,"o":"m 43 0 m 469 31 q 439 0 469 0 l 389 0 q 358 22 365 0 l 219 518 q 176 611 193 611 q 160 510 160 611 l 160 31 q 129 0 160 0 l 89 0 q 58 31 58 0 l 58 1057 q 89 1088 58 1088 l 147 1088 q 166 1082 158 1088 q 176 1065 174 1076 l 310 582 q 353 486 336 486 q 369 590 369 486 l 369 1057 q 400 1088 369 1088 l 439 1088 q 469 1057 469 1088 l 469 31 l 469 31 m 376 1151 q 317 1164 344 1151 q 263 1192 289 1176 q 212 1219 238 1207 q 161 1232 186 1232 q 127 1221 142 1232 q 100 1176 113 1210 q 90 1158 97 1167 q 68 1150 83 1150 q 48 1159 53 1150 q 43 1188 43 1168 q 50 1238 43 1213 q 70 1282 57 1263 q 104 1314 83 1301 q 153 1326 125 1326 q 210 1314 182 1326 q 265 1285 239 1301 q 315 1257 290 1269 q 364 1244 340 1244 q 404 1262 392 1244 q 426 1301 417 1279 q 439 1320 432 1313 q 458 1328 446 1328 q 485 1303 485 1328 q 473 1222 485 1251 q 444 1176 461 1192 q 409 1156 428 1160 q 376 1151 390 1151 z "},"Ò":{"ha":529,"x_min":58,"x_max":469,"o":"m 58 0 m 58 910 q 221 1088 58 1088 l 308 1088 q 469 910 469 1088 l 469 176 q 308 0 469 0 l 221 0 q 58 176 58 0 l 58 910 m 163 168 q 221 103 163 103 l 308 103 q 367 168 367 103 l 367 919 q 308 985 367 985 l 221 985 q 163 919 163 985 l 163 168 m 308 1189 q 313 1171 313 1178 q 285 1150 313 1150 l 260 1150 q 233 1165 242 1150 l 142 1319 q 133 1343 133 1332 q 168 1365 133 1365 l 206 1365 q 233 1347 224 1365 l 308 1189 l 308 1189 z "},"Ó":{"ha":529,"x_min":58,"x_max":469,"o":"m 58 0 m 58 910 q 221 1088 58 1088 l 308 1088 q 469 910 469 1088 l 469 176 q 308 0 469 0 l 221 0 q 58 176 58 0 l 58 910 m 163 168 q 221 103 163 103 l 308 103 q 367 168 367 103 l 367 919 q 308 985 367 985 l 221 985 q 163 919 163 985 l 163 168 m 361 1365 q 396 1343 396 1365 q 388 1319 396 1332 l 296 1165 q 269 1150 288 1150 l 244 1150 q 217 1171 217 1150 q 221 1189 217 1178 l 296 1347 q 324 1365 304 1365 l 361 1365 l 361 1365 z "},"Ô":{"ha":529,"x_min":58,"x_max":469,"o":"m 58 0 m 58 910 q 221 1088 58 1088 l 308 1088 q 469 910 469 1088 l 469 176 q 308 0 469 0 l 221 0 q 58 176 58 0 l 58 910 m 163 168 q 221 103 163 103 l 308 103 q 367 168 367 103 l 367 919 q 308 985 367 985 l 221 985 q 163 919 163 985 l 163 168 m 353 1150 q 328 1164 333 1150 l 289 1225 q 263 1243 276 1243 q 238 1225 247 1243 l 199 1164 q 174 1150 193 1150 l 143 1150 q 114 1169 114 1150 q 121 1190 114 1179 l 222 1349 q 250 1365 232 1365 l 278 1365 q 306 1349 294 1365 l 407 1190 q 414 1169 414 1179 q 385 1150 414 1150 l 353 1150 l 353 1150 z "},"Õ":{"ha":529,"x_min":43,"x_max":485,"o":"m 43 0 m 58 910 q 221 1088 58 1088 l 308 1088 q 469 910 469 1088 l 469 176 q 308 0 469 0 l 221 0 q 58 176 58 0 l 58 910 m 163 168 q 221 103 163 103 l 308 103 q 367 168 367 103 l 367 919 q 308 985 367 985 l 221 985 q 163 919 163 985 l 163 168 m 376 1151 q 317 1164 344 1151 q 263 1192 289 1176 q 212 1219 238 1207 q 161 1232 186 1232 q 127 1221 142 1232 q 100 1176 113 1210 q 90 1158 97 1167 q 68 1150 83 1150 q 48 1159 53 1150 q 43 1188 43 1168 q 50 1238 43 1213 q 70 1282 57 1263 q 104 1314 83 1301 q 153 1326 125 1326 q 210 1314 182 1326 q 265 1285 239 1301 q 315 1257 290 1269 q 364 1244 340 1244 q 404 1262 392 1244 q 426 1301 417 1279 q 439 1320 432 1313 q 458 1328 446 1328 q 485 1303 485 1328 q 473 1222 485 1251 q 444 1176 461 1192 q 409 1156 428 1160 q 376 1151 390 1151 z "},"Ö":{"ha":529,"x_min":58,"x_max":469,"o":"m 58 0 m 58 910 q 221 1088 58 1088 l 308 1088 q 469 910 469 1088 l 469 176 q 308 0 469 0 l 221 0 q 58 176 58 0 l 58 910 m 163 168 q 221 103 163 103 l 308 103 q 367 168 367 103 l 367 919 q 308 985 367 985 l 221 985 q 163 919 163 985 l 163 168 m 190 1194 q 160 1164 190 1164 l 118 1164 q 88 1194 88 1164 l 88 1251 q 118 1282 88 1282 l 160 1282 q 190 1251 190 1282 l 190 1194 m 440 1194 q 410 1164 440 1164 l 367 1164 q 336 1194 336 1164 l 336 1251 q 367 1282 336 1282 l 410 1282 q 440 1251 440 1282 l 440 1194 z "},"×":{"ha":529,"x_min":86,"x_max":443,"o":"m 94 657 q 86 678 86 665 q 94 699 86 688 l 121 726 q 143 736 131 736 q 165 726 156 736 l 242 644 q 264 633 253 633 q 286 644 275 633 l 363 726 q 385 736 372 736 q 407 726 397 736 l 435 699 q 443 678 443 688 q 435 657 443 665 l 353 569 q 344 549 344 558 q 353 528 344 536 l 435 440 q 443 419 443 429 q 435 399 443 407 l 407 369 q 385 358 396 358 q 363 369 374 358 l 286 451 q 264 461 276 461 q 242 451 251 461 l 165 369 q 143 358 154 358 q 121 369 132 358 l 94 399 q 86 419 86 407 q 94 440 86 429 l 176 528 q 185 549 185 536 q 176 569 185 558 l 94 657 l 94 657 z "},"Ø":{"ha":529,"x_min":25,"x_max":504,"o":"m 58 910 q 221 1088 58 1088 l 308 1088 q 344 1085 331 1088 q 367 1080 358 1083 q 383 1074 376 1076 q 397 1072 390 1072 q 428 1096 418 1072 l 439 1124 q 467 1143 446 1143 l 481 1143 q 504 1122 504 1143 q 500 1103 504 1115 l 467 1014 q 460 989 460 994 q 465 962 460 978 q 469 910 469 946 l 469 176 q 308 0 469 0 l 221 0 q 158 7 176 0 q 128 14 140 14 q 100 -10 110 14 l 90 -35 q 63 -56 83 -56 l 49 -56 q 25 -33 25 -56 q 29 -14 25 -25 l 65 88 q 68 100 68 93 q 63 135 68 115 q 58 176 58 154 l 58 910 m 308 103 q 367 168 367 103 l 367 558 q 349 639 367 639 q 307 568 332 639 l 175 200 q 167 177 169 185 q 165 158 165 169 q 221 103 165 103 l 308 103 m 163 531 q 179 449 163 449 q 222 521 196 449 l 357 893 q 364 928 364 913 q 308 985 364 985 l 221 985 q 163 919 163 985 l 163 531 z "},"Ù":{"ha":529,"x_min":58,"x_max":469,"o":"m 58 0 m 58 1057 q 89 1088 58 1088 l 132 1088 q 163 1057 163 1088 l 163 214 q 192 124 163 154 q 264 93 221 93 q 337 124 307 93 q 367 214 367 154 l 367 1057 q 397 1088 367 1088 l 439 1088 q 469 1057 469 1088 l 469 224 q 452 122 469 165 q 406 49 435 78 q 340 5 376 19 q 264 -10 303 -10 q 190 5 226 -10 q 124 49 153 19 q 76 122 94 78 q 58 224 58 165 l 58 1057 m 308 1189 q 313 1171 313 1178 q 285 1150 313 1150 l 260 1150 q 233 1165 242 1150 l 142 1319 q 133 1343 133 1332 q 168 1365 133 1365 l 206 1365 q 233 1347 224 1365 l 308 1189 l 308 1189 z "},"Ú":{"ha":529,"x_min":58,"x_max":469,"o":"m 58 0 m 58 1057 q 89 1088 58 1088 l 132 1088 q 163 1057 163 1088 l 163 214 q 192 124 163 154 q 264 93 221 93 q 337 124 307 93 q 367 214 367 154 l 367 1057 q 397 1088 367 1088 l 439 1088 q 469 1057 469 1088 l 469 224 q 452 122 469 165 q 406 49 435 78 q 340 5 376 19 q 264 -10 303 -10 q 190 5 226 -10 q 124 49 153 19 q 76 122 94 78 q 58 224 58 165 l 58 1057 m 361 1365 q 396 1343 396 1365 q 388 1319 396 1332 l 296 1165 q 269 1150 288 1150 l 244 1150 q 217 1171 217 1150 q 221 1189 217 1178 l 296 1347 q 324 1365 304 1365 l 361 1365 l 361 1365 z "},"Û":{"ha":529,"x_min":58,"x_max":469,"o":"m 58 0 m 58 1057 q 89 1088 58 1088 l 132 1088 q 163 1057 163 1088 l 163 214 q 192 124 163 154 q 264 93 221 93 q 337 124 307 93 q 367 214 367 154 l 367 1057 q 397 1088 367 1088 l 439 1088 q 469 1057 469 1088 l 469 224 q 452 122 469 165 q 406 49 435 78 q 340 5 376 19 q 264 -10 303 -10 q 190 5 226 -10 q 124 49 153 19 q 76 122 94 78 q 58 224 58 165 l 58 1057 m 353 1150 q 328 1164 333 1150 l 289 1225 q 263 1243 276 1243 q 238 1225 247 1243 l 199 1164 q 174 1150 193 1150 l 143 1150 q 114 1169 114 1150 q 121 1190 114 1179 l 222 1349 q 250 1365 232 1365 l 278 1365 q 306 1349 294 1365 l 407 1190 q 414 1169 414 1179 q 385 1150 414 1150 l 353 1150 l 353 1150 z "},"Ü":{"ha":529,"x_min":58,"x_max":469,"o":"m 58 0 m 58 1057 q 89 1088 58 1088 l 132 1088 q 163 1057 163 1088 l 163 214 q 192 124 163 154 q 264 93 221 93 q 337 124 307 93 q 367 214 367 154 l 367 1057 q 397 1088 367 1088 l 439 1088 q 469 1057 469 1088 l 469 224 q 452 122 469 165 q 406 49 435 78 q 340 5 376 19 q 264 -10 303 -10 q 190 5 226 -10 q 124 49 153 19 q 76 122 94 78 q 58 224 58 165 l 58 1057 m 190 1194 q 160 1164 190 1164 l 118 1164 q 88 1194 88 1164 l 88 1251 q 118 1282 88 1282 l 160 1282 q 190 1251 190 1282 l 190 1194 m 440 1194 q 410 1164 440 1164 l 367 1164 q 336 1194 336 1164 l 336 1251 q 367 1282 336 1282 l 410 1282 q 440 1251 440 1282 l 440 1194 z "},"Ý":{"ha":529,"x_min":51,"x_max":475,"o":"m 51 0 m 211 508 q 203 567 211 539 l 60 1031 q 53 1055 54 1049 q 51 1064 51 1061 q 83 1088 51 1088 l 126 1088 q 156 1065 150 1088 l 233 803 q 263 758 246 758 q 292 803 278 758 l 372 1065 q 401 1088 378 1088 l 443 1088 q 475 1064 475 1088 q 474 1055 475 1061 q 467 1031 472 1049 l 324 567 q 315 508 315 539 l 315 31 q 285 0 315 0 l 242 0 q 211 31 211 0 l 211 508 l 211 508 m 361 1365 q 396 1343 396 1365 q 388 1319 396 1332 l 296 1165 q 269 1150 288 1150 l 244 1150 q 217 1171 217 1150 q 221 1189 217 1178 l 296 1347 q 324 1365 304 1365 l 361 1365 l 361 1365 z "},"Þ":{"ha":529,"x_min":58,"x_max":465,"o":"m 360 674 q 331 765 360 733 q 258 796 301 796 l 193 796 q 163 765 163 796 l 163 317 q 193 286 163 286 l 258 286 q 331 317 301 286 q 360 407 360 347 l 360 674 m 89 0 q 58 31 58 0 l 58 1057 q 89 1088 58 1088 l 132 1088 q 163 1057 163 1088 l 163 928 q 193 897 163 897 l 258 897 q 333 883 296 897 q 400 839 371 868 q 447 766 429 810 q 465 665 465 722 l 465 417 q 447 315 465 358 q 400 242 429 271 q 333 198 371 213 q 258 183 296 183 l 193 183 q 163 153 163 183 l 163 31 q 132 0 163 0 l 89 0 z "},"ß":{"ha":1057,"x_min":44,"x_max":1014,"o":"m 44 0 m 446 919 q 415 889 446 889 l 379 889 q 349 919 349 889 q 326 975 349 956 q 276 994 304 994 q 231 976 253 994 q 210 915 210 957 q 214 873 210 896 q 229 831 218 850 l 436 411 q 474 317 463 358 q 485 231 485 275 q 468 127 485 172 q 423 51 451 82 q 355 6 394 21 q 269 -10 315 -10 q 181 6 222 -10 q 110 50 140 21 q 62 122 79 79 q 44 217 44 164 q 75 251 44 251 l 110 251 q 140 217 140 251 q 178 126 140 158 q 268 93 215 93 q 308 99 288 93 q 344 121 328 106 q 372 163 361 136 q 382 232 382 190 q 375 288 382 260 q 349 357 368 317 l 138 786 q 114 853 119 822 q 108 907 108 883 q 123 992 108 957 q 162 1051 138 1028 q 216 1086 186 1075 q 276 1097 246 1097 q 343 1083 313 1097 q 397 1046 374 1069 q 433 990 419 1022 q 446 919 446 957 m 975 919 q 944 889 975 889 l 908 889 q 878 919 878 889 q 856 975 878 956 q 806 994 833 994 q 760 976 782 994 q 739 915 739 957 q 743 873 739 896 q 758 831 747 850 l 965 411 q 1003 317 992 358 q 1014 231 1014 275 q 997 127 1014 172 q 952 51 981 82 q 884 6 924 21 q 799 -10 844 -10 q 710 6 751 -10 q 639 50 669 21 q 591 122 608 79 q 574 217 574 164 q 604 251 574 251 l 639 251 q 669 217 669 251 q 707 126 669 158 q 797 93 744 93 q 837 99 817 93 q 874 121 857 106 q 901 163 890 136 q 911 232 911 190 q 904 288 911 260 q 878 357 897 317 l 667 786 q 643 853 649 822 q 638 907 638 883 q 652 992 638 957 q 691 1051 667 1028 q 745 1086 715 1075 q 806 1097 775 1097 q 872 1083 842 1097 q 926 1046 903 1069 q 962 990 949 1022 q 975 919 975 957 z "},"÷":{"ha":529,"x_min":58,"x_max":469,"o":"m 58 301 m 317 704 q 286 674 317 674 l 243 674 q 213 704 213 674 l 213 761 q 243 792 213 792 l 286 792 q 317 761 317 792 l 317 704 l 317 704 m 317 332 q 286 301 317 301 l 243 301 q 213 332 213 301 l 213 389 q 243 419 213 419 l 286 419 q 317 389 317 419 l 317 332 l 317 332 m 89 497 q 58 528 58 497 l 58 569 q 89 600 58 600 l 439 600 q 469 569 469 600 l 469 528 q 439 497 469 497 l 89 497 l 89 497 z "},"ÿ":{"ha":529,"x_min":51,"x_max":475,"o":"m 51 0 m 211 508 q 203 567 211 539 l 60 1031 q 53 1055 54 1049 q 51 1064 51 1061 q 83 1088 51 1088 l 126 1088 q 156 1065 150 1088 l 233 803 q 263 758 246 758 q 292 803 278 758 l 372 1065 q 401 1088 378 1088 l 443 1088 q 475 1064 475 1088 q 474 1055 475 1061 q 467 1031 472 1049 l 324 567 q 315 508 315 539 l 315 31 q 285 0 315 0 l 242 0 q 211 31 211 0 l 211 508 l 211 508 m 190 1194 q 160 1164 190 1164 l 118 1164 q 88 1194 88 1164 l 88 1251 q 118 1282 88 1282 l 160 1282 q 190 1251 190 1282 l 190 1194 m 440 1194 q 410 1164 440 1164 l 367 1164 q 336 1194 336 1164 l 336 1251 q 367 1282 336 1282 l 410 1282 q 440 1251 440 1282 l 440 1194 z "},"Ā":{"ha":529,"x_min":36,"x_max":490,"o":"m 36 0 m 424 0 q 393 26 397 0 l 363 226 q 332 253 358 253 l 193 253 q 163 226 167 253 l 135 26 q 104 0 131 0 l 67 0 q 36 29 36 0 q 37 35 36 31 q 40 61 38 39 l 193 1061 q 224 1088 197 1088 l 304 1088 q 335 1061 331 1088 l 486 61 q 490 35 489 39 q 490 29 490 31 q 460 0 490 0 l 424 0 m 293 688 q 263 779 278 779 q 232 688 246 779 l 193 419 q 189 382 189 394 q 218 356 189 356 l 307 356 q 338 382 338 356 q 333 419 338 394 l 293 688 m 444 1218 q 414 1188 444 1188 l 114 1188 q 83 1218 83 1188 l 83 1251 q 114 1282 83 1282 l 414 1282 q 444 1251 444 1282 l 444 1218 l 444 1218 z "},"Ă":{"ha":529,"x_min":36,"x_max":490,"o":"m 36 0 m 424 0 q 393 26 397 0 l 363 226 q 332 253 358 253 l 193 253 q 163 226 167 253 l 135 26 q 104 0 131 0 l 67 0 q 36 29 36 0 q 37 35 36 31 q 40 61 38 39 l 193 1061 q 224 1088 197 1088 l 304 1088 q 335 1061 331 1088 l 486 61 q 490 35 489 39 q 490 29 490 31 q 460 0 490 0 l 424 0 m 293 688 q 263 779 278 779 q 232 688 246 779 l 193 419 q 189 382 189 394 q 218 356 189 356 l 307 356 q 338 382 338 356 q 333 419 338 394 l 293 688 m 265 1129 q 159 1148 207 1129 q 85 1226 111 1167 q 69 1271 74 1250 q 65 1304 65 1292 q 93 1339 65 1339 l 122 1339 q 144 1332 138 1339 q 153 1311 150 1325 q 189 1228 165 1253 q 264 1204 213 1204 q 339 1228 315 1204 q 375 1311 363 1253 q 384 1332 378 1325 q 406 1339 390 1339 l 435 1339 q 463 1304 463 1339 q 458 1271 463 1292 q 443 1226 454 1250 q 370 1148 417 1167 q 265 1129 324 1129 z "},"Ą":{"ha":529,"x_min":36,"x_max":496,"o":"m 488 57 q 492 24 492 29 q 467 -6 492 1 q 401 -26 426 -14 q 361 -53 375 -39 q 342 -85 347 -68 q 338 -118 338 -101 q 358 -176 338 -154 q 426 -199 378 -199 l 465 -199 q 496 -229 496 -199 l 496 -271 q 465 -301 496 -301 l 413 -301 q 285 -263 328 -301 q 243 -156 243 -225 q 368 -6 243 -39 q 392 25 392 1 q 392 35 392 28 q 389 58 392 43 l 363 226 q 332 253 358 253 l 193 253 q 163 226 167 253 l 135 26 q 104 0 131 0 l 67 0 q 36 29 36 0 q 37 35 36 31 q 40 61 38 39 l 193 1061 q 224 1088 197 1088 l 304 1088 q 335 1061 331 1088 l 488 57 m 293 688 q 263 779 278 779 q 232 688 246 779 l 193 419 q 189 382 189 394 q 218 356 189 356 l 307 356 q 338 382 338 356 q 333 419 338 394 l 293 688 z "},"Ć":{"ha":529,"x_min":58,"x_max":469,"o":"m 58 0 m 58 864 q 76 965 58 921 q 124 1038 94 1008 q 190 1082 153 1067 q 264 1097 226 1097 q 340 1082 303 1097 q 406 1038 376 1067 q 452 965 435 1008 q 469 864 469 921 l 469 835 q 461 813 469 821 q 440 804 453 804 l 400 804 q 369 835 369 804 l 369 872 q 339 964 369 933 q 267 994 308 994 q 192 964 222 994 q 163 872 163 933 l 163 214 q 192 124 163 154 q 267 93 222 93 q 339 124 308 93 q 369 214 369 154 l 369 268 q 400 299 369 299 l 439 299 q 469 268 469 299 l 469 224 q 452 122 469 165 q 406 49 435 78 q 340 5 376 19 q 264 -10 303 -10 q 190 5 226 -10 q 124 49 153 19 q 76 122 94 78 q 58 224 58 165 l 58 864 m 361 1365 q 396 1343 396 1365 q 388 1319 396 1332 l 296 1165 q 269 1150 288 1150 l 244 1150 q 217 1171 217 1150 q 221 1189 217 1178 l 296 1347 q 324 1365 304 1365 l 361 1365 l 361 1365 z "},"Ċ":{"ha":529,"x_min":58,"x_max":469,"o":"m 58 0 m 58 864 q 76 965 58 921 q 124 1038 94 1008 q 190 1082 153 1067 q 264 1097 226 1097 q 340 1082 303 1097 q 406 1038 376 1067 q 452 965 435 1008 q 469 864 469 921 l 469 835 q 461 813 469 821 q 440 804 453 804 l 400 804 q 369 835 369 804 l 369 872 q 339 964 369 933 q 267 994 308 994 q 192 964 222 994 q 163 872 163 933 l 163 214 q 192 124 163 154 q 267 93 222 93 q 339 124 308 93 q 369 214 369 154 l 369 268 q 400 299 369 299 l 439 299 q 469 268 469 299 l 469 224 q 452 122 469 165 q 406 49 435 78 q 340 5 376 19 q 264 -10 303 -10 q 190 5 226 -10 q 124 49 153 19 q 76 122 94 78 q 58 224 58 165 l 58 864 m 317 1194 q 286 1164 317 1164 l 243 1164 q 213 1194 213 1164 l 213 1251 q 243 1282 213 1282 l 286 1282 q 317 1251 317 1282 l 317 1194 l 317 1194 z "},"Č":{"ha":529,"x_min":58,"x_max":469,"o":"m 58 0 m 58 864 q 76 965 58 921 q 124 1038 94 1008 q 190 1082 153 1067 q 264 1097 226 1097 q 340 1082 303 1097 q 406 1038 376 1067 q 452 965 435 1008 q 469 864 469 921 l 469 835 q 461 813 469 821 q 440 804 453 804 l 400 804 q 369 835 369 804 l 369 872 q 339 964 369 933 q 267 994 308 994 q 192 964 222 994 q 163 872 163 933 l 163 214 q 192 124 163 154 q 267 93 222 93 q 339 124 308 93 q 369 214 369 154 l 369 268 q 400 299 369 299 l 439 299 q 469 268 469 299 l 469 224 q 452 122 469 165 q 406 49 435 78 q 340 5 376 19 q 264 -10 303 -10 q 190 5 226 -10 q 124 49 153 19 q 76 122 94 78 q 58 224 58 165 l 58 864 m 175 1365 q 200 1351 194 1365 l 239 1290 q 265 1272 251 1272 q 290 1290 281 1272 l 329 1351 q 354 1365 335 1365 l 385 1365 q 414 1346 414 1365 q 407 1325 414 1336 l 306 1167 q 278 1150 294 1150 l 250 1150 q 222 1167 232 1150 l 121 1325 q 114 1346 114 1336 q 143 1365 114 1365 l 175 1365 z "},"Ď":{"ha":529,"x_min":38,"x_max":489,"o":"m 38 0 m 221 985 q 190 954 190 985 l 190 133 q 221 103 190 103 l 283 103 q 356 133 326 103 q 385 224 385 164 l 385 864 q 356 954 385 924 q 283 985 326 985 l 221 985 m 68 0 q 38 31 38 0 l 38 78 q 45 96 38 92 q 63 103 53 100 q 80 110 72 106 q 88 128 88 114 l 88 960 q 80 978 88 974 q 63 985 72 982 q 45 992 53 988 q 38 1010 38 996 l 38 1057 q 68 1088 38 1088 l 283 1088 q 358 1073 321 1088 q 424 1029 394 1058 q 471 956 453 1000 q 489 854 489 913 l 489 233 q 471 131 489 175 q 424 58 453 88 q 358 15 394 29 q 283 0 321 0 l 68 0 m 161 1365 q 186 1351 181 1365 l 225 1290 q 251 1272 238 1272 q 276 1290 267 1272 l 315 1351 q 340 1365 321 1365 l 371 1365 q 400 1346 400 1365 q 393 1325 400 1336 l 292 1167 q 264 1150 281 1150 l 236 1150 q 208 1167 218 1150 l 107 1325 q 100 1346 100 1336 q 129 1365 100 1365 l 161 1365 z "},"Ē":{"ha":529,"x_min":58,"x_max":482,"o":"m 58 0 m 372 600 q 403 569 403 600 l 403 528 q 372 497 403 497 l 193 497 q 163 467 163 497 l 163 133 q 193 103 163 103 l 451 103 q 482 72 482 103 l 482 31 q 451 0 482 0 l 89 0 q 58 31 58 0 l 58 1057 q 89 1088 58 1088 l 451 1088 q 482 1057 482 1088 l 482 1015 q 451 985 482 985 l 193 985 q 163 954 163 985 l 163 631 q 193 600 163 600 l 372 600 l 372 600 m 453 1218 q 422 1188 453 1188 l 122 1188 q 92 1218 92 1188 l 92 1251 q 122 1282 92 1282 l 422 1282 q 453 1251 453 1282 l 453 1218 l 453 1218 z "},"Ĕ":{"ha":529,"x_min":58,"x_max":482,"o":"m 58 0 m 372 600 q 403 569 403 600 l 403 528 q 372 497 403 497 l 193 497 q 163 467 163 497 l 163 133 q 193 103 163 103 l 451 103 q 482 72 482 103 l 482 31 q 451 0 482 0 l 89 0 q 58 31 58 0 l 58 1057 q 89 1088 58 1088 l 451 1088 q 482 1057 482 1088 l 482 1015 q 451 985 482 985 l 193 985 q 163 954 163 985 l 163 631 q 193 600 163 600 l 372 600 l 372 600 m 274 1129 q 167 1148 215 1129 q 93 1226 119 1167 q 78 1271 82 1250 q 74 1304 74 1292 q 101 1339 74 1339 l 131 1339 q 152 1332 146 1339 q 161 1311 158 1325 q 197 1228 174 1253 q 272 1204 221 1204 q 347 1228 324 1204 q 383 1311 371 1253 q 392 1332 386 1325 q 414 1339 399 1339 l 443 1339 q 471 1304 471 1339 q 467 1271 471 1292 q 451 1226 463 1250 q 378 1148 425 1167 q 274 1129 332 1129 z "},"Ė":{"ha":529,"x_min":58,"x_max":482,"o":"m 58 0 m 372 600 q 403 569 403 600 l 403 528 q 372 497 403 497 l 193 497 q 163 467 163 497 l 163 133 q 193 103 163 103 l 451 103 q 482 72 482 103 l 482 31 q 451 0 482 0 l 89 0 q 58 31 58 0 l 58 1057 q 89 1088 58 1088 l 451 1088 q 482 1057 482 1088 l 482 1015 q 451 985 482 985 l 193 985 q 163 954 163 985 l 163 631 q 193 600 163 600 l 372 600 l 372 600 m 324 1194 q 293 1164 324 1164 l 250 1164 q 219 1194 219 1164 l 219 1251 q 250 1282 219 1282 l 293 1282 q 324 1251 324 1282 l 324 1194 l 324 1194 z "},"Ę":{"ha":529,"x_min":58,"x_max":482,"o":"m 482 -271 q 451 -301 482 -301 l 399 -301 q 272 -263 314 -301 q 229 -156 229 -225 q 281 -40 229 -83 q 301 -23 292 -32 q 311 -8 311 -14 q 298 -1 311 -1 q 263 0 285 0 l 89 0 q 58 31 58 0 l 58 1057 q 89 1088 58 1088 l 451 1088 q 482 1057 482 1088 l 482 1015 q 451 985 482 985 l 193 985 q 163 954 163 985 l 163 631 q 193 600 163 600 l 372 600 q 403 569 403 600 l 403 528 q 372 497 403 497 l 193 497 q 163 467 163 497 l 163 133 q 193 103 163 103 l 451 103 q 482 72 482 103 l 482 26 q 475 5 482 11 q 457 -4 468 -1 q 401 -22 425 -14 q 359 -42 376 -31 q 333 -72 342 -54 q 324 -115 324 -89 q 344 -176 324 -153 q 413 -199 364 -199 l 451 -199 q 482 -229 482 -199 l 482 -271 l 482 -271 z "},"Ě":{"ha":529,"x_min":58,"x_max":482,"o":"m 58 0 m 372 600 q 403 569 403 600 l 403 528 q 372 497 403 497 l 193 497 q 163 467 163 497 l 163 133 q 193 103 163 103 l 451 103 q 482 72 482 103 l 482 31 q 451 0 482 0 l 89 0 q 58 31 58 0 l 58 1057 q 89 1088 58 1088 l 451 1088 q 482 1057 482 1088 l 482 1015 q 451 985 482 985 l 193 985 q 163 954 163 985 l 163 631 q 193 600 163 600 l 372 600 l 372 600 m 183 1365 q 208 1351 203 1365 l 247 1290 q 274 1272 260 1272 q 299 1290 289 1272 l 338 1351 q 363 1365 343 1365 l 393 1365 q 422 1346 422 1365 q 415 1325 422 1336 l 314 1167 q 286 1150 303 1150 l 258 1150 q 231 1167 240 1150 l 129 1325 q 122 1346 122 1336 q 151 1365 122 1365 l 183 1365 z "},"Ğ":{"ha":529,"x_min":58,"x_max":469,"o":"m 58 0 m 367 361 q 336 392 367 392 l 300 392 q 269 422 269 392 l 269 464 q 300 494 269 494 l 439 494 q 469 464 469 494 l 469 224 q 452 122 469 165 q 406 49 435 78 q 340 5 376 19 q 264 -10 303 -10 q 190 5 226 -10 q 124 49 153 19 q 76 122 94 78 q 58 224 58 165 l 58 864 q 76 965 58 921 q 124 1038 94 1008 q 190 1082 153 1067 q 264 1097 226 1097 q 340 1082 303 1097 q 406 1038 376 1067 q 452 965 435 1008 q 469 864 469 921 l 469 835 q 461 813 469 821 q 440 804 453 804 l 400 804 q 369 835 369 804 l 369 872 q 339 964 369 933 q 265 994 308 994 q 192 964 222 994 q 163 872 163 933 l 163 214 q 192 124 163 154 q 264 93 221 93 q 337 124 307 93 q 367 214 367 154 l 367 361 m 265 1129 q 159 1148 207 1129 q 85 1226 111 1167 q 69 1271 74 1250 q 65 1304 65 1292 q 93 1339 65 1339 l 122 1339 q 144 1332 138 1339 q 153 1311 150 1325 q 189 1228 165 1253 q 264 1204 213 1204 q 339 1228 315 1204 q 375 1311 363 1253 q 384 1332 378 1325 q 406 1339 390 1339 l 435 1339 q 463 1304 463 1339 q 458 1271 463 1292 q 443 1226 454 1250 q 370 1148 417 1167 q 265 1129 324 1129 z "},"Ġ":{"ha":529,"x_min":58,"x_max":469,"o":"m 58 0 m 367 361 q 336 392 367 392 l 300 392 q 269 422 269 392 l 269 464 q 300 494 269 494 l 439 494 q 469 464 469 494 l 469 224 q 452 122 469 165 q 406 49 435 78 q 340 5 376 19 q 264 -10 303 -10 q 190 5 226 -10 q 124 49 153 19 q 76 122 94 78 q 58 224 58 165 l 58 864 q 76 965 58 921 q 124 1038 94 1008 q 190 1082 153 1067 q 264 1097 226 1097 q 340 1082 303 1097 q 406 1038 376 1067 q 452 965 435 1008 q 469 864 469 921 l 469 835 q 461 813 469 821 q 440 804 453 804 l 400 804 q 369 835 369 804 l 369 872 q 339 964 369 933 q 265 994 308 994 q 192 964 222 994 q 163 872 163 933 l 163 214 q 192 124 163 154 q 264 93 221 93 q 337 124 307 93 q 367 214 367 154 l 367 361 m 317 1194 q 286 1164 317 1164 l 243 1164 q 213 1194 213 1164 l 213 1251 q 243 1282 213 1282 l 286 1282 q 317 1251 317 1282 l 317 1194 l 317 1194 z "},"Ģ":{"ha":529,"x_min":58,"x_max":469,"o":"m 58 0 m 367 361 q 336 392 367 392 l 300 392 q 269 422 269 392 l 269 464 q 300 494 269 494 l 439 494 q 469 464 469 494 l 469 224 q 452 122 469 165 q 406 49 435 78 q 340 5 376 19 q 264 -10 303 -10 q 190 5 226 -10 q 124 49 153 19 q 76 122 94 78 q 58 224 58 165 l 58 864 q 76 965 58 921 q 124 1038 94 1008 q 190 1082 153 1067 q 264 1097 226 1097 q 340 1082 303 1097 q 406 1038 376 1067 q 452 965 435 1008 q 469 864 469 921 l 469 835 q 461 813 469 821 q 440 804 453 804 l 400 804 q 369 835 369 804 l 369 872 q 339 964 369 933 q 265 994 308 994 q 192 964 222 994 q 163 872 163 933 l 163 214 q 192 124 163 154 q 264 93 221 93 q 337 124 307 93 q 367 214 367 154 l 367 361 m 317 -118 q 315 -140 317 -129 q 311 -165 314 -151 l 289 -276 q 257 -301 285 -301 q 233 -281 233 -301 q 234 -269 233 -276 q 236 -251 235 -262 l 244 -194 q 249 -162 249 -172 q 243 -151 249 -154 q 231 -144 238 -147 q 218 -135 224 -142 q 213 -115 213 -129 l 213 -58 q 243 -28 213 -28 l 286 -28 q 317 -58 317 -28 l 317 -118 l 317 -118 z "},"Ħ":{"ha":529,"x_min":0,"x_max":529,"o":"m 132 1088 q 163 1057 163 1088 l 163 908 q 193 878 163 878 l 336 878 q 367 908 367 878 l 367 1057 q 397 1088 367 1088 l 439 1088 q 469 1057 469 1088 l 469 908 q 478 886 469 892 q 499 878 488 881 q 520 870 511 875 q 529 849 529 865 l 529 815 q 520 793 529 799 q 499 784 511 788 q 478 776 488 781 q 469 756 469 771 l 469 31 q 439 0 469 0 l 397 0 q 367 31 367 0 l 367 467 q 336 497 367 497 l 193 497 q 163 467 163 497 l 163 31 q 132 0 163 0 l 89 0 q 58 31 58 0 l 58 756 q 49 777 58 772 q 29 785 40 782 q 9 792 18 788 q 0 814 0 797 l 0 849 q 9 870 0 865 q 29 878 18 875 q 49 885 40 881 q 58 907 58 890 l 58 1057 q 89 1088 58 1088 l 132 1088 m 163 631 q 193 600 163 600 l 336 600 q 367 631 367 600 l 367 754 q 336 785 367 785 l 193 785 q 163 754 163 785 l 163 631 z "},"Ĩ":{"ha":529,"x_min":43,"x_max":485,"o":"m 43 0 m 451 103 q 482 72 482 103 l 482 31 q 451 0 482 0 l 78 0 q 47 31 47 0 l 47 72 q 78 103 47 103 l 179 103 q 210 133 210 103 l 210 954 q 179 985 210 985 l 78 985 q 47 1015 47 985 l 47 1057 q 78 1088 47 1088 l 451 1088 q 482 1057 482 1088 l 482 1015 q 451 985 482 985 l 344 985 q 314 954 314 985 l 314 133 q 344 103 314 103 l 451 103 l 451 103 m 376 1151 q 317 1164 344 1151 q 263 1192 289 1176 q 212 1219 238 1207 q 161 1232 186 1232 q 127 1221 142 1232 q 100 1176 113 1210 q 90 1158 97 1167 q 68 1150 83 1150 q 48 1159 53 1150 q 43 1188 43 1168 q 50 1238 43 1213 q 70 1282 57 1263 q 104 1314 83 1301 q 153 1326 125 1326 q 210 1314 182 1326 q 265 1285 239 1301 q 315 1257 290 1269 q 364 1244 340 1244 q 404 1262 392 1244 q 426 1301 417 1279 q 439 1320 432 1313 q 458 1328 446 1328 q 485 1303 485 1328 q 473 1222 485 1251 q 444 1176 461 1192 q 409 1156 428 1160 q 376 1151 390 1151 z "},"Ī":{"ha":529,"x_min":47,"x_max":482,"o":"m 47 0 m 451 103 q 482 72 482 103 l 482 31 q 451 0 482 0 l 78 0 q 47 31 47 0 l 47 72 q 78 103 47 103 l 179 103 q 210 133 210 103 l 210 954 q 179 985 210 985 l 78 985 q 47 1015 47 985 l 47 1057 q 78 1088 47 1088 l 451 1088 q 482 1057 482 1088 l 482 1015 q 451 985 482 985 l 344 985 q 314 954 314 985 l 314 133 q 344 103 314 103 l 451 103 l 451 103 m 444 1218 q 414 1188 444 1188 l 114 1188 q 83 1218 83 1188 l 83 1251 q 114 1282 83 1282 l 414 1282 q 444 1251 444 1282 l 444 1218 l 444 1218 z "},"Ĭ":{"ha":529,"x_min":47,"x_max":482,"o":"m 47 0 m 451 103 q 482 72 482 103 l 482 31 q 451 0 482 0 l 78 0 q 47 31 47 0 l 47 72 q 78 103 47 103 l 179 103 q 210 133 210 103 l 210 954 q 179 985 210 985 l 78 985 q 47 1015 47 985 l 47 1057 q 78 1088 47 1088 l 451 1088 q 482 1057 482 1088 l 482 1015 q 451 985 482 985 l 344 985 q 314 954 314 985 l 314 133 q 344 103 314 103 l 451 103 l 451 103 m 265 1129 q 159 1148 207 1129 q 85 1226 111 1167 q 69 1271 74 1250 q 65 1304 65 1292 q 93 1339 65 1339 l 122 1339 q 144 1332 138 1339 q 153 1311 150 1325 q 189 1228 165 1253 q 264 1204 213 1204 q 339 1228 315 1204 q 375 1311 363 1253 q 384 1332 378 1325 q 406 1339 390 1339 l 435 1339 q 463 1304 463 1339 q 458 1271 463 1292 q 443 1226 454 1250 q 370 1148 417 1167 q 265 1129 324 1129 z "},"Į":{"ha":529,"x_min":47,"x_max":482,"o":"m 390 -271 q 360 -301 390 -301 l 307 -301 q 180 -263 222 -301 q 138 -156 138 -225 q 189 -40 138 -81 q 213 -22 204 -29 q 222 -10 222 -15 q 171 0 222 0 l 78 0 q 47 31 47 0 l 47 72 q 78 103 47 103 l 179 103 q 210 133 210 103 l 210 954 q 179 985 210 985 l 78 985 q 47 1015 47 985 l 47 1057 q 78 1088 47 1088 l 451 1088 q 482 1057 482 1088 l 482 1015 q 451 985 482 985 l 344 985 q 314 954 314 985 l 314 133 q 344 103 314 103 l 451 103 q 482 72 482 103 l 482 31 q 451 0 482 0 l 417 0 q 327 -12 363 0 q 271 -42 292 -24 q 241 -81 250 -60 q 232 -122 232 -103 q 252 -176 232 -154 q 321 -199 272 -199 l 360 -199 q 390 -229 390 -199 l 390 -271 l 390 -271 z "},"İ":{"ha":529,"x_min":47,"x_max":482,"o":"m 47 0 m 451 103 q 482 72 482 103 l 482 31 q 451 0 482 0 l 78 0 q 47 31 47 0 l 47 72 q 78 103 47 103 l 179 103 q 210 133 210 103 l 210 954 q 179 985 210 985 l 78 985 q 47 1015 47 985 l 47 1057 q 78 1088 47 1088 l 451 1088 q 482 1057 482 1088 l 482 1015 q 451 985 482 985 l 344 985 q 314 954 314 985 l 314 133 q 344 103 314 103 l 451 103 l 451 103 m 317 1194 q 286 1164 317 1164 l 243 1164 q 213 1194 213 1164 l 213 1251 q 243 1282 213 1282 l 286 1282 q 317 1251 317 1282 l 317 1194 l 317 1194 z "},"Ĳ":{"ha":529,"x_min":58,"x_max":469,"o":"m 163 429 q 132 399 163 399 l 89 399 q 58 429 58 399 l 58 1057 q 89 1088 58 1088 l 132 1088 q 163 1057 163 1088 l 163 429 m 439 1088 q 469 1057 469 1088 l 469 224 q 452 122 469 165 q 406 49 435 78 q 340 5 376 19 q 264 -10 303 -10 q 190 5 226 -10 q 124 49 153 19 q 76 122 94 78 q 58 224 58 165 l 58 268 q 89 299 58 299 l 132 299 q 163 268 163 299 l 163 214 q 192 124 163 154 q 263 93 221 93 q 336 124 306 93 q 367 214 367 154 l 367 1057 q 397 1088 367 1088 l 439 1088 z "},"Ķ":{"ha":529,"x_min":58,"x_max":458,"o":"m 58 0 m 132 1088 q 163 1057 163 1088 l 163 842 q 181 783 163 783 q 219 826 197 783 l 353 1071 q 379 1088 363 1088 l 421 1088 q 454 1064 454 1088 q 447 1042 454 1056 l 236 658 q 228 628 228 642 q 232 603 228 615 l 456 42 q 458 33 458 38 q 458 25 458 28 q 428 0 458 0 l 379 0 q 351 19 358 0 l 221 351 q 179 417 196 417 q 163 340 163 417 l 163 31 q 132 0 163 0 l 89 0 q 58 31 58 0 l 58 1057 q 89 1088 58 1088 l 132 1088 l 132 1088 m 317 -118 q 315 -140 317 -129 q 311 -165 314 -151 l 289 -276 q 257 -301 285 -301 q 233 -281 233 -301 q 234 -269 233 -276 q 236 -251 235 -262 l 244 -194 q 249 -162 249 -172 q 243 -151 249 -154 q 231 -144 238 -147 q 218 -135 224 -142 q 213 -115 213 -129 l 213 -58 q 243 -28 213 -28 l 286 -28 q 317 -58 317 -28 l 317 -118 l 317 -118 z "},"Ĺ":{"ha":529,"x_min":58,"x_max":482,"o":"m 58 0 m 451 103 q 482 72 482 103 l 482 31 q 451 0 482 0 l 89 0 q 58 31 58 0 l 58 1057 q 89 1088 58 1088 l 132 1088 q 163 1057 163 1088 l 163 133 q 193 103 163 103 l 451 103 l 451 103 m 229 1365 q 264 1343 264 1365 q 256 1319 264 1332 l 164 1165 q 138 1150 156 1150 l 113 1150 q 85 1171 85 1150 q 89 1189 85 1178 l 164 1347 q 192 1365 172 1365 l 229 1365 l 229 1365 z "},"Ļ":{"ha":529,"x_min":58,"x_max":482,"o":"m 58 0 m 451 103 q 482 72 482 103 l 482 31 q 451 0 482 0 l 89 0 q 58 31 58 0 l 58 1057 q 89 1088 58 1088 l 132 1088 q 163 1057 163 1088 l 163 133 q 193 103 163 103 l 451 103 l 451 103 m 324 -118 q 322 -140 324 -129 q 318 -165 321 -151 l 296 -276 q 264 -301 292 -301 q 240 -281 240 -301 q 241 -269 240 -276 q 243 -251 242 -262 l 251 -194 q 256 -162 256 -172 q 250 -151 256 -154 q 238 -144 244 -147 q 225 -135 231 -142 q 219 -115 219 -129 l 219 -58 q 250 -28 219 -28 l 293 -28 q 324 -58 324 -28 l 324 -118 l 324 -118 z "},"Ľ":{"ha":529,"x_min":58,"x_max":482,"o":"m 58 0 m 451 103 q 482 72 482 103 l 482 31 q 451 0 482 0 l 89 0 q 58 31 58 0 l 58 1057 q 89 1088 58 1088 l 132 1088 q 163 1057 163 1088 l 163 133 q 193 103 163 103 l 451 103 l 451 103 m 394 1006 q 393 974 394 986 q 386 935 392 961 l 361 811 q 329 786 354 786 q 306 807 306 786 q 310 839 306 815 l 322 921 q 326 940 325 933 q 326 954 326 947 q 321 965 326 963 q 308 971 315 968 q 296 979 301 974 q 290 999 290 985 l 290 1057 q 321 1088 290 1088 l 364 1088 q 394 1057 394 1088 l 394 1006 l 394 1006 z "},"Ł":{"ha":529,"x_min":0,"x_max":482,"o":"m 43 422 q 30 419 36 422 q 15 415 24 415 q 0 436 0 415 l 0 497 q 17 525 0 515 l 42 538 q 58 565 58 547 l 58 1057 q 89 1088 58 1088 l 132 1088 q 163 1057 163 1088 l 163 650 q 185 617 163 617 q 207 624 193 617 l 279 660 q 300 665 290 665 q 324 633 324 665 l 324 589 q 307 563 324 572 l 179 496 q 163 469 163 486 l 163 133 q 193 103 163 103 l 451 103 q 482 72 482 103 l 482 31 q 451 0 482 0 l 89 0 q 58 31 58 0 l 58 401 q 43 422 58 422 z "},"Ń":{"ha":529,"x_min":58,"x_max":469,"o":"m 58 0 m 469 31 q 439 0 469 0 l 389 0 q 358 22 365 0 l 219 518 q 176 611 193 611 q 160 510 160 611 l 160 31 q 129 0 160 0 l 89 0 q 58 31 58 0 l 58 1057 q 89 1088 58 1088 l 147 1088 q 166 1082 158 1088 q 176 1065 174 1076 l 310 582 q 353 486 336 486 q 369 590 369 486 l 369 1057 q 400 1088 369 1088 l 439 1088 q 469 1057 469 1088 l 469 31 l 469 31 m 361 1365 q 396 1343 396 1365 q 388 1319 396 1332 l 296 1165 q 269 1150 288 1150 l 244 1150 q 217 1171 217 1150 q 221 1189 217 1178 l 296 1347 q 324 1365 304 1365 l 361 1365 l 361 1365 z "},"Ņ":{"ha":529,"x_min":58,"x_max":469,"o":"m 58 0 m 469 31 q 439 0 469 0 l 389 0 q 358 22 365 0 l 219 518 q 176 611 193 611 q 160 510 160 611 l 160 31 q 129 0 160 0 l 89 0 q 58 31 58 0 l 58 1057 q 89 1088 58 1088 l 147 1088 q 166 1082 158 1088 q 176 1065 174 1076 l 310 582 q 353 486 336 486 q 369 590 369 486 l 369 1057 q 400 1088 369 1088 l 439 1088 q 469 1057 469 1088 l 469 31 l 469 31 m 317 -118 q 315 -140 317 -129 q 311 -165 314 -151 l 289 -276 q 257 -301 285 -301 q 233 -281 233 -301 q 234 -269 233 -276 q 236 -251 235 -262 l 244 -194 q 249 -162 249 -172 q 243 -151 249 -154 q 231 -144 238 -147 q 218 -135 224 -142 q 213 -115 213 -129 l 213 -58 q 243 -28 213 -28 l 286 -28 q 317 -58 317 -28 l 317 -118 l 317 -118 z "},"Ň":{"ha":529,"x_min":58,"x_max":469,"o":"m 58 0 m 469 31 q 439 0 469 0 l 389 0 q 358 22 365 0 l 219 518 q 176 611 193 611 q 160 510 160 611 l 160 31 q 129 0 160 0 l 89 0 q 58 31 58 0 l 58 1057 q 89 1088 58 1088 l 147 1088 q 166 1082 158 1088 q 176 1065 174 1076 l 310 582 q 353 486 336 486 q 369 590 369 486 l 369 1057 q 400 1088 369 1088 l 439 1088 q 469 1057 469 1088 l 469 31 l 469 31 m 175 1365 q 200 1351 194 1365 l 239 1290 q 265 1272 251 1272 q 290 1290 281 1272 l 329 1351 q 354 1365 335 1365 l 385 1365 q 414 1346 414 1365 q 407 1325 414 1336 l 306 1167 q 278 1150 294 1150 l 250 1150 q 222 1167 232 1150 l 121 1325 q 114 1346 114 1336 q 143 1365 114 1365 l 175 1365 z "},"Ŋ":{"ha":529,"x_min":58,"x_max":469,"o":"m 469 -68 q 452 -170 469 -126 q 406 -243 435 -214 q 340 -287 376 -272 q 264 -301 303 -301 l 193 -301 q 163 -271 163 -301 l 163 -229 q 193 -199 163 -199 l 263 -199 q 335 -168 306 -199 q 365 -78 365 -137 l 365 -43 q 363 -3 365 -21 q 354 43 361 15 l 219 518 q 176 611 193 611 q 160 510 160 611 l 160 31 q 129 0 160 0 l 89 0 q 58 31 58 0 l 58 1057 q 89 1088 58 1088 l 147 1088 q 176 1065 169 1088 l 310 582 q 353 486 336 486 q 369 590 369 486 l 369 1057 q 400 1088 369 1088 l 439 1088 q 469 1057 469 1088 l 469 -68 l 469 -68 z "},"Ō":{"ha":529,"x_min":58,"x_max":469,"o":"m 58 0 m 58 910 q 221 1088 58 1088 l 308 1088 q 469 910 469 1088 l 469 176 q 308 0 469 0 l 221 0 q 58 176 58 0 l 58 910 m 163 168 q 221 103 163 103 l 308 103 q 367 168 367 103 l 367 919 q 308 985 367 985 l 221 985 q 163 919 163 985 l 163 168 m 444 1218 q 414 1188 444 1188 l 114 1188 q 83 1218 83 1188 l 83 1251 q 114 1282 83 1282 l 414 1282 q 444 1251 444 1282 l 444 1218 l 444 1218 z "},"Ŏ":{"ha":529,"x_min":58,"x_max":469,"o":"m 58 0 m 58 910 q 221 1088 58 1088 l 308 1088 q 469 910 469 1088 l 469 176 q 308 0 469 0 l 221 0 q 58 176 58 0 l 58 910 m 163 168 q 221 103 163 103 l 308 103 q 367 168 367 103 l 367 919 q 308 985 367 985 l 221 985 q 163 919 163 985 l 163 168 m 265 1129 q 159 1148 207 1129 q 85 1226 111 1167 q 69 1271 74 1250 q 65 1304 65 1292 q 93 1339 65 1339 l 122 1339 q 144 1332 138 1339 q 153 1311 150 1325 q 189 1228 165 1253 q 264 1204 213 1204 q 339 1228 315 1204 q 375 1311 363 1253 q 384 1332 378 1325 q 406 1339 390 1339 l 435 1339 q 463 1304 463 1339 q 458 1271 463 1292 q 443 1226 454 1250 q 370 1148 417 1167 q 265 1129 324 1129 z "},"Ő":{"ha":529,"x_min":58,"x_max":497,"o":"m 58 0 m 58 910 q 221 1088 58 1088 l 308 1088 q 469 910 469 1088 l 469 176 q 308 0 469 0 l 221 0 q 58 176 58 0 l 58 910 m 163 168 q 221 103 163 103 l 308 103 q 367 168 367 103 l 367 919 q 308 985 367 985 l 221 985 q 163 919 163 985 l 163 168 m 463 1365 q 497 1343 497 1365 q 489 1319 497 1332 l 397 1165 q 371 1150 389 1150 l 346 1150 q 318 1171 318 1150 q 322 1189 318 1178 l 397 1347 q 425 1365 406 1365 l 463 1365 m 260 1365 q 294 1343 294 1365 q 286 1319 294 1332 l 194 1165 q 168 1150 186 1150 l 143 1150 q 115 1171 115 1150 q 119 1189 115 1178 l 194 1347 q 222 1365 203 1365 l 260 1365 z "},"Œ":{"ha":529,"x_min":0,"x_max":529,"o":"m 428 600 q 458 569 458 600 l 458 528 q 428 497 458 497 l 388 497 q 357 467 357 497 l 357 133 q 388 103 357 103 l 499 103 q 529 72 529 103 l 529 31 q 499 0 529 0 l 207 0 q 131 15 168 0 q 64 58 93 29 q 17 131 35 88 q 0 233 0 175 l 0 854 q 17 956 0 913 q 64 1029 35 1000 q 131 1073 93 1058 q 207 1088 168 1088 l 499 1088 q 529 1057 529 1088 l 529 1015 q 499 985 529 985 l 388 985 q 357 954 357 985 l 357 631 q 388 600 357 600 l 428 600 m 251 963 q 229 985 251 985 l 207 985 q 133 954 163 985 q 103 864 103 924 l 103 224 q 133 133 103 164 q 207 103 163 103 l 229 103 q 251 125 251 103 l 251 963 z "},"Ŕ":{"ha":529,"x_min":53,"x_max":471,"o":"m 53 0 m 157 31 q 126 0 157 0 l 83 0 q 53 31 53 0 l 53 1057 q 83 1088 53 1088 l 264 1088 q 340 1073 303 1088 q 406 1029 376 1058 q 452 956 435 1000 q 469 854 469 913 l 469 736 q 444 615 469 664 q 378 538 418 565 q 364 508 364 529 q 365 497 364 503 q 367 485 365 492 l 461 79 q 471 29 471 40 q 440 0 471 0 l 396 0 q 365 24 369 0 l 265 479 q 235 503 261 503 l 188 503 q 157 472 157 503 l 157 31 m 188 985 q 157 954 157 985 l 157 636 q 188 606 157 606 l 264 606 q 337 636 307 606 q 367 726 367 667 l 367 864 q 337 954 367 924 q 264 985 307 985 l 188 985 m 346 1365 q 381 1343 381 1365 q 372 1319 381 1332 l 281 1165 q 254 1150 272 1150 l 229 1150 q 201 1171 201 1150 q 206 1189 201 1178 l 281 1347 q 308 1365 289 1365 l 346 1365 l 346 1365 z "},"Ŗ":{"ha":529,"x_min":53,"x_max":471,"o":"m 53 0 m 157 31 q 126 0 157 0 l 83 0 q 53 31 53 0 l 53 1057 q 83 1088 53 1088 l 264 1088 q 340 1073 303 1088 q 406 1029 376 1058 q 452 956 435 1000 q 469 854 469 913 l 469 736 q 444 615 469 664 q 378 538 418 565 q 364 508 364 529 q 365 497 364 503 q 367 485 365 492 l 461 79 q 471 29 471 40 q 440 0 471 0 l 396 0 q 365 24 369 0 l 265 479 q 235 503 261 503 l 188 503 q 157 472 157 503 l 157 31 m 188 985 q 157 954 157 985 l 157 636 q 188 606 157 606 l 264 606 q 337 636 307 606 q 367 726 367 667 l 367 864 q 337 954 367 924 q 264 985 307 985 l 188 985 m 317 -118 q 315 -140 317 -129 q 311 -165 314 -151 l 289 -276 q 257 -301 285 -301 q 233 -281 233 -301 q 234 -269 233 -276 q 236 -251 235 -262 l 244 -194 q 249 -162 249 -172 q 243 -151 249 -154 q 231 -144 238 -147 q 218 -135 224 -142 q 213 -115 213 -129 l 213 -58 q 243 -28 213 -28 l 286 -28 q 317 -58 317 -28 l 317 -118 l 317 -118 z "},"Ř":{"ha":529,"x_min":53,"x_max":471,"o":"m 53 0 m 157 31 q 126 0 157 0 l 83 0 q 53 31 53 0 l 53 1057 q 83 1088 53 1088 l 264 1088 q 340 1073 303 1088 q 406 1029 376 1058 q 452 956 435 1000 q 469 854 469 913 l 469 736 q 444 615 469 664 q 378 538 418 565 q 364 508 364 529 q 365 497 364 503 q 367 485 365 492 l 461 79 q 471 29 471 40 q 440 0 471 0 l 396 0 q 365 24 369 0 l 265 479 q 235 503 261 503 l 188 503 q 157 472 157 503 l 157 31 m 188 985 q 157 954 157 985 l 157 636 q 188 606 157 606 l 264 606 q 337 636 307 606 q 367 726 367 667 l 367 864 q 337 954 367 924 q 264 985 307 985 l 188 985 m 161 1365 q 186 1351 181 1365 l 225 1290 q 251 1272 238 1272 q 276 1290 267 1272 l 315 1351 q 340 1365 321 1365 l 371 1365 q 400 1346 400 1365 q 393 1325 400 1336 l 292 1167 q 264 1150 281 1150 l 236 1150 q 208 1167 218 1150 l 107 1325 q 100 1346 100 1336 q 129 1365 100 1365 l 161 1365 z "},"Ś":{"ha":529,"x_min":44,"x_max":485,"o":"m 44 0 m 446 919 q 415 889 446 889 l 379 889 q 349 919 349 889 q 326 975 349 956 q 276 994 304 994 q 231 976 253 994 q 210 915 210 957 q 214 873 210 896 q 229 831 218 850 l 436 411 q 474 317 463 358 q 485 231 485 275 q 468 127 485 172 q 423 51 451 82 q 355 6 394 21 q 269 -10 315 -10 q 181 6 222 -10 q 110 50 140 21 q 62 122 79 79 q 44 217 44 164 q 75 251 44 251 l 110 251 q 140 217 140 251 q 178 126 140 158 q 268 93 215 93 q 308 99 288 93 q 344 121 328 106 q 372 163 361 136 q 382 232 382 190 q 375 288 382 260 q 349 357 368 317 l 138 786 q 114 853 119 822 q 108 907 108 883 q 123 992 108 957 q 162 1051 138 1028 q 216 1086 186 1075 q 276 1097 246 1097 q 343 1083 313 1097 q 397 1046 374 1069 q 433 990 419 1022 q 446 919 446 957 m 375 1365 q 410 1343 410 1365 q 401 1319 410 1332 l 310 1165 q 283 1150 301 1150 l 258 1150 q 231 1171 231 1150 q 235 1189 231 1178 l 310 1347 q 338 1365 318 1365 l 375 1365 l 375 1365 z "},"Ş":{"ha":529,"x_min":44,"x_max":485,"o":"m 44 0 m 446 919 q 415 889 446 889 l 379 889 q 349 919 349 889 q 326 975 349 956 q 276 994 304 994 q 231 976 253 994 q 210 915 210 957 q 214 873 210 896 q 229 831 218 850 l 436 411 q 474 317 463 358 q 485 231 485 275 q 468 127 485 172 q 423 51 451 82 q 355 6 394 21 q 269 -10 315 -10 q 181 6 222 -10 q 110 50 140 21 q 62 122 79 79 q 44 217 44 164 q 75 251 44 251 l 110 251 q 140 217 140 251 q 178 126 140 158 q 268 93 215 93 q 308 99 288 93 q 344 121 328 106 q 372 163 361 136 q 382 232 382 190 q 375 288 382 260 q 349 357 368 317 l 138 786 q 114 853 119 822 q 108 907 108 883 q 123 992 108 957 q 162 1051 138 1028 q 216 1086 186 1075 q 276 1097 246 1097 q 343 1083 313 1097 q 397 1046 374 1069 q 433 990 419 1022 q 446 919 446 957 m 317 -118 q 315 -140 317 -129 q 311 -165 314 -151 l 289 -276 q 257 -301 285 -301 q 233 -281 233 -301 q 234 -269 233 -276 q 236 -251 235 -262 l 244 -194 q 249 -162 249 -172 q 243 -151 249 -154 q 231 -144 238 -147 q 218 -135 224 -142 q 213 -115 213 -129 l 213 -58 q 243 -28 213 -28 l 286 -28 q 317 -58 317 -28 l 317 -118 l 317 -118 z "},"Š":{"ha":529,"x_min":44,"x_max":485,"o":"m 44 0 m 446 919 q 415 889 446 889 l 379 889 q 349 919 349 889 q 326 975 349 956 q 276 994 304 994 q 231 976 253 994 q 210 915 210 957 q 214 873 210 896 q 229 831 218 850 l 436 411 q 474 317 463 358 q 485 231 485 275 q 468 127 485 172 q 423 51 451 82 q 355 6 394 21 q 269 -10 315 -10 q 181 6 222 -10 q 110 50 140 21 q 62 122 79 79 q 44 217 44 164 q 75 251 44 251 l 110 251 q 140 217 140 251 q 178 126 140 158 q 268 93 215 93 q 308 99 288 93 q 344 121 328 106 q 372 163 361 136 q 382 232 382 190 q 375 288 382 260 q 349 357 368 317 l 138 786 q 114 853 119 822 q 108 907 108 883 q 123 992 108 957 q 162 1051 138 1028 q 216 1086 186 1075 q 276 1097 246 1097 q 343 1083 313 1097 q 397 1046 374 1069 q 433 990 419 1022 q 446 919 446 957 m 189 1365 q 214 1351 208 1365 l 253 1290 q 279 1272 265 1272 q 304 1290 294 1272 l 343 1351 q 368 1365 349 1365 l 399 1365 q 428 1346 428 1365 q 421 1325 428 1336 l 319 1167 q 292 1150 308 1150 l 264 1150 q 236 1167 246 1150 l 135 1325 q 128 1346 128 1336 q 157 1365 128 1365 l 189 1365 z "},"Ţ":{"ha":529,"x_min":47,"x_max":482,"o":"m 47 0 m 451 1088 q 482 1057 482 1088 l 482 1015 q 451 985 482 985 l 344 985 q 314 954 314 985 l 314 31 q 283 0 314 0 l 240 0 q 210 31 210 0 l 210 954 q 179 985 210 985 l 78 985 q 47 1015 47 985 l 47 1057 q 78 1088 47 1088 l 451 1088 l 451 1088 m 317 -118 q 315 -140 317 -129 q 311 -165 314 -151 l 289 -276 q 257 -301 285 -301 q 233 -281 233 -301 q 234 -269 233 -276 q 236 -251 235 -262 l 244 -194 q 249 -162 249 -172 q 243 -151 249 -154 q 231 -144 238 -147 q 218 -135 224 -142 q 213 -115 213 -129 l 213 -58 q 243 -28 213 -28 l 286 -28 q 317 -58 317 -28 l 317 -118 l 317 -118 z "},"Ť":{"ha":529,"x_min":47,"x_max":482,"o":"m 47 0 m 451 1088 q 482 1057 482 1088 l 482 1015 q 451 985 482 985 l 344 985 q 314 954 314 985 l 314 31 q 283 0 314 0 l 240 0 q 210 31 210 0 l 210 954 q 179 985 210 985 l 78 985 q 47 1015 47 985 l 47 1057 q 78 1088 47 1088 l 451 1088 l 451 1088 m 175 1365 q 200 1351 194 1365 l 239 1290 q 265 1272 251 1272 q 290 1290 281 1272 l 329 1351 q 354 1365 335 1365 l 385 1365 q 414 1346 414 1365 q 407 1325 414 1336 l 306 1167 q 278 1150 294 1150 l 250 1150 q 222 1167 232 1150 l 121 1325 q 114 1346 114 1336 q 143 1365 114 1365 l 175 1365 z "},"Ŧ":{"ha":529,"x_min":47,"x_max":482,"o":"m 444 533 q 414 503 444 503 l 344 503 q 314 472 314 503 l 314 31 q 283 0 314 0 l 240 0 q 210 31 210 0 l 210 472 q 179 503 210 503 l 114 503 q 83 533 83 503 l 83 567 q 114 597 83 597 l 179 597 q 210 628 210 597 l 210 954 q 179 985 210 985 l 78 985 q 47 1015 47 985 l 47 1057 q 78 1088 47 1088 l 451 1088 q 482 1057 482 1088 l 482 1015 q 451 985 482 985 l 344 985 q 314 954 314 985 l 314 628 q 344 597 314 597 l 414 597 q 444 567 444 597 l 444 533 l 444 533 z "},"Ũ":{"ha":529,"x_min":43,"x_max":485,"o":"m 43 0 m 58 1057 q 89 1088 58 1088 l 132 1088 q 163 1057 163 1088 l 163 214 q 192 124 163 154 q 264 93 221 93 q 337 124 307 93 q 367 214 367 154 l 367 1057 q 397 1088 367 1088 l 439 1088 q 469 1057 469 1088 l 469 224 q 452 122 469 165 q 406 49 435 78 q 340 5 376 19 q 264 -10 303 -10 q 190 5 226 -10 q 124 49 153 19 q 76 122 94 78 q 58 224 58 165 l 58 1057 m 376 1151 q 317 1164 344 1151 q 263 1192 289 1176 q 212 1219 238 1207 q 161 1232 186 1232 q 127 1221 142 1232 q 100 1176 113 1210 q 90 1158 97 1167 q 68 1150 83 1150 q 48 1159 53 1150 q 43 1188 43 1168 q 50 1238 43 1213 q 70 1282 57 1263 q 104 1314 83 1301 q 153 1326 125 1326 q 210 1314 182 1326 q 265 1285 239 1301 q 315 1257 290 1269 q 364 1244 340 1244 q 404 1262 392 1244 q 426 1301 417 1279 q 439 1320 432 1313 q 458 1328 446 1328 q 485 1303 485 1328 q 473 1222 485 1251 q 444 1176 461 1192 q 409 1156 428 1160 q 376 1151 390 1151 z "},"Ū":{"ha":529,"x_min":58,"x_max":469,"o":"m 58 0 m 58 1057 q 89 1088 58 1088 l 132 1088 q 163 1057 163 1088 l 163 214 q 192 124 163 154 q 264 93 221 93 q 337 124 307 93 q 367 214 367 154 l 367 1057 q 397 1088 367 1088 l 439 1088 q 469 1057 469 1088 l 469 224 q 452 122 469 165 q 406 49 435 78 q 340 5 376 19 q 264 -10 303 -10 q 190 5 226 -10 q 124 49 153 19 q 76 122 94 78 q 58 224 58 165 l 58 1057 m 444 1218 q 414 1188 444 1188 l 114 1188 q 83 1218 83 1188 l 83 1251 q 114 1282 83 1282 l 414 1282 q 444 1251 444 1282 l 444 1218 l 444 1218 z "},"Ů":{"ha":529,"x_min":58,"x_max":469,"o":"m 58 0 m 58 1057 q 89 1088 58 1088 l 132 1088 q 163 1057 163 1088 l 163 214 q 192 124 163 154 q 264 93 221 93 q 337 124 307 93 q 367 214 367 154 l 367 1057 q 397 1088 367 1088 l 439 1088 q 469 1057 469 1088 l 469 224 q 452 122 469 165 q 406 49 435 78 q 340 5 376 19 q 264 -10 303 -10 q 190 5 226 -10 q 124 49 153 19 q 76 122 94 78 q 58 224 58 165 l 58 1057 m 389 1231 q 353 1134 389 1171 q 264 1097 317 1097 q 176 1135 211 1097 q 142 1232 142 1174 q 177 1328 142 1292 q 265 1365 213 1365 q 353 1328 317 1365 q 389 1231 389 1292 m 311 1232 q 265 1289 311 1289 q 215 1232 215 1289 q 228 1189 215 1206 q 264 1172 240 1172 q 299 1189 288 1172 q 311 1232 311 1206 z "},"Ű":{"ha":529,"x_min":58,"x_max":497,"o":"m 58 0 m 58 1057 q 89 1088 58 1088 l 132 1088 q 163 1057 163 1088 l 163 214 q 192 124 163 154 q 264 93 221 93 q 337 124 307 93 q 367 214 367 154 l 367 1057 q 397 1088 367 1088 l 439 1088 q 469 1057 469 1088 l 469 224 q 452 122 469 165 q 406 49 435 78 q 340 5 376 19 q 264 -10 303 -10 q 190 5 226 -10 q 124 49 153 19 q 76 122 94 78 q 58 224 58 165 l 58 1057 m 463 1365 q 497 1343 497 1365 q 489 1319 497 1332 l 397 1165 q 371 1150 389 1150 l 346 1150 q 318 1171 318 1150 q 322 1189 318 1178 l 397 1347 q 425 1365 406 1365 l 463 1365 m 260 1365 q 294 1343 294 1365 q 286 1319 294 1332 l 194 1165 q 168 1150 186 1150 l 143 1150 q 115 1171 115 1150 q 119 1189 115 1178 l 194 1347 q 222 1365 203 1365 l 260 1365 z "},"Ų":{"ha":529,"x_min":58,"x_max":469,"o":"m 371 -271 q 340 -301 371 -301 l 288 -301 q 160 -263 203 -301 q 118 -156 118 -225 q 156 -53 118 -93 q 176 -28 169 -37 q 183 -11 183 -19 q 149 28 183 3 q 83 104 108 56 q 58 224 58 153 l 58 1057 q 89 1088 58 1088 l 132 1088 q 163 1057 163 1088 l 163 214 q 192 124 163 154 q 264 93 221 93 q 337 124 307 93 q 367 214 367 154 l 367 1057 q 397 1088 367 1088 l 439 1088 q 469 1057 469 1088 l 469 224 q 458 140 469 176 q 425 76 446 104 q 378 30 404 49 q 322 0 351 11 q 266 -27 288 -14 q 233 -55 244 -40 q 217 -85 221 -69 q 213 -118 213 -101 q 233 -176 213 -154 q 301 -199 253 -199 l 340 -199 q 371 -229 371 -199 l 371 -271 l 371 -271 z "},"Ŵ":{"ha":529,"x_min":21,"x_max":508,"o":"m 21 0 m 21 1056 q 51 1088 21 1088 l 90 1088 q 121 1058 118 1088 l 154 501 q 174 422 158 422 q 207 497 188 422 l 243 650 q 265 667 247 667 q 286 650 282 667 l 322 497 q 353 422 339 422 q 372 501 368 422 l 407 1058 q 438 1088 410 1088 l 478 1088 q 508 1056 508 1088 l 449 29 q 418 0 446 0 l 369 0 q 339 25 343 0 l 294 243 q 264 308 279 308 q 235 243 247 308 l 190 25 q 160 0 186 0 l 110 0 q 79 29 82 0 l 21 1056 l 21 1056 m 353 1150 q 328 1164 333 1150 l 289 1225 q 263 1243 276 1243 q 238 1225 247 1243 l 199 1164 q 174 1150 193 1150 l 143 1150 q 114 1169 114 1150 q 121 1190 114 1179 l 222 1349 q 250 1365 232 1365 l 278 1365 q 306 1349 294 1365 l 407 1190 q 414 1169 414 1179 q 385 1150 414 1150 l 353 1150 l 353 1150 z "},"Ŷ":{"ha":529,"x_min":51,"x_max":475,"o":"m 51 0 m 211 508 q 203 567 211 539 l 60 1031 q 53 1055 54 1049 q 51 1064 51 1061 q 83 1088 51 1088 l 126 1088 q 156 1065 150 1088 l 233 803 q 263 758 246 758 q 292 803 278 758 l 372 1065 q 401 1088 378 1088 l 443 1088 q 475 1064 475 1088 q 474 1055 475 1061 q 467 1031 472 1049 l 324 567 q 315 508 315 539 l 315 31 q 285 0 315 0 l 242 0 q 211 31 211 0 l 211 508 l 211 508 m 353 1150 q 328 1164 333 1150 l 289 1225 q 263 1243 276 1243 q 238 1225 247 1243 l 199 1164 q 174 1150 193 1150 l 143 1150 q 114 1169 114 1150 q 121 1190 114 1179 l 222 1349 q 250 1365 232 1365 l 278 1365 q 306 1349 294 1365 l 407 1190 q 414 1169 414 1179 q 385 1150 414 1150 l 353 1150 l 353 1150 z "},"Ź":{"ha":529,"x_min":58,"x_max":478,"o":"m 58 0 m 447 103 q 478 72 478 103 l 478 31 q 447 0 478 0 l 89 0 q 58 31 58 0 l 58 83 q 60 106 58 99 q 65 126 61 114 l 353 944 q 356 958 356 956 q 324 985 356 985 l 89 985 q 58 1015 58 985 l 58 1057 q 89 1088 58 1088 l 447 1088 q 478 1057 478 1088 l 478 1013 q 476 985 478 996 q 467 957 474 975 l 179 143 q 177 135 178 139 q 176 128 176 132 q 208 103 176 103 l 447 103 l 447 103 m 361 1365 q 396 1343 396 1365 q 388 1319 396 1332 l 296 1165 q 269 1150 288 1150 l 244 1150 q 217 1171 217 1150 q 221 1189 217 1178 l 296 1347 q 324 1365 304 1365 l 361 1365 l 361 1365 z "},"Ż":{"ha":529,"x_min":58,"x_max":478,"o":"m 58 0 m 447 103 q 478 72 478 103 l 478 31 q 447 0 478 0 l 89 0 q 58 31 58 0 l 58 83 q 60 106 58 99 q 65 126 61 114 l 353 944 q 356 958 356 956 q 324 985 356 985 l 89 985 q 58 1015 58 985 l 58 1057 q 89 1088 58 1088 l 447 1088 q 478 1057 478 1088 l 478 1013 q 476 985 478 996 q 467 957 474 975 l 179 143 q 177 135 178 139 q 176 128 176 132 q 208 103 176 103 l 447 103 l 447 103 m 317 1194 q 286 1164 317 1164 l 243 1164 q 213 1194 213 1164 l 213 1251 q 243 1282 213 1282 l 286 1282 q 317 1251 317 1282 l 317 1194 l 317 1194 z "},"Ž":{"ha":529,"x_min":58,"x_max":478,"o":"m 58 0 m 447 103 q 478 72 478 103 l 478 31 q 447 0 478 0 l 89 0 q 58 31 58 0 l 58 83 q 60 106 58 99 q 65 126 61 114 l 353 944 q 356 958 356 956 q 324 985 356 985 l 89 985 q 58 1015 58 985 l 58 1057 q 89 1088 58 1088 l 447 1088 q 478 1057 478 1088 l 478 1013 q 476 985 478 996 q 467 957 474 975 l 179 143 q 177 135 178 139 q 176 128 176 132 q 208 103 176 103 l 447 103 l 447 103 m 175 1365 q 200 1351 194 1365 l 239 1290 q 265 1272 251 1272 q 290 1290 281 1272 l 329 1351 q 354 1365 335 1365 l 385 1365 q 414 1346 414 1365 q 407 1325 414 1336 l 306 1167 q 278 1150 294 1150 l 250 1150 q 222 1167 232 1150 l 121 1325 q 114 1346 114 1336 q 143 1365 114 1365 l 175 1365 z "},"Ə":{"ha":529,"x_min":58,"x_max":469,"o":"m 469 224 q 452 122 469 165 q 406 49 435 78 q 340 5 376 19 q 264 -10 303 -10 q 190 5 226 -10 q 124 49 153 19 q 76 122 94 78 q 58 224 58 165 l 58 569 q 89 600 58 600 l 336 600 q 367 631 367 600 l 367 872 q 336 964 367 933 q 263 994 306 994 q 190 964 221 994 q 160 872 160 933 l 160 835 q 129 804 160 804 l 89 804 q 58 835 58 804 l 58 864 q 76 965 58 921 q 124 1038 94 1008 q 190 1082 153 1067 q 264 1097 226 1097 q 340 1082 303 1097 q 406 1038 376 1067 q 452 965 435 1008 q 469 864 469 921 l 469 224 m 263 93 q 336 124 306 93 q 367 214 367 154 l 367 467 q 336 497 367 497 l 190 497 q 160 467 160 497 l 160 214 q 190 124 160 154 q 263 93 221 93 z "},"ƒ":{"ha":529,"x_min":24,"x_max":471,"o":"m 54 497 q 24 528 24 497 l 24 569 q 54 600 24 600 l 117 600 q 147 626 143 600 l 183 864 q 208 961 192 919 q 251 1031 224 1003 q 321 1073 279 1058 q 424 1088 363 1088 l 447 1088 q 471 1064 471 1088 l 471 1014 q 440 983 471 983 l 403 983 q 318 945 343 983 q 285 849 293 907 l 258 658 q 256 644 257 651 q 256 626 256 636 q 285 600 256 600 l 385 600 q 415 569 415 600 l 415 528 q 385 497 415 497 l 263 497 q 232 471 236 497 l 156 -96 q 125 -122 151 -122 l 74 -122 q 44 -96 44 -122 q 44 -83 44 -89 q 47 -67 44 -78 l 121 449 q 122 460 122 456 q 122 469 122 464 q 93 497 122 497 l 54 497 l 54 497 z "},"Ɣ":{"ha":529,"x_min":40,"x_max":488,"o":"m 264 -197 q 284 -196 275 -197 q 299 -187 293 -194 q 309 -164 306 -179 q 313 -119 313 -149 q 313 -106 313 -118 q 310 -73 313 -93 q 304 -28 308 -53 q 293 22 300 -3 q 264 75 278 75 q 235 22 250 75 q 224 -28 228 -3 q 217 -73 219 -53 q 215 -106 215 -93 q 215 -119 215 -118 q 219 -164 215 -149 q 228 -187 222 -179 q 244 -196 235 -194 q 264 -197 253 -197 m 264 -301 q 152 -257 193 -301 q 111 -133 111 -212 q 115 -83 111 -111 q 128 -8 119 -54 q 153 107 138 38 q 194 279 169 176 q 203 323 201 311 q 206 349 206 335 q 204 374 206 363 q 196 413 203 385 l 47 1019 q 42 1046 43 1038 q 40 1060 40 1054 q 69 1088 40 1088 l 110 1088 q 128 1081 121 1088 q 139 1064 136 1075 l 235 679 q 264 625 247 625 q 293 679 281 625 l 389 1064 q 399 1081 392 1075 q 418 1088 407 1088 l 458 1088 q 488 1060 488 1088 q 486 1046 488 1054 q 481 1019 485 1038 l 332 413 q 324 374 325 385 q 322 349 322 363 q 324 323 322 335 q 333 279 326 311 q 374 107 358 176 q 399 -8 390 38 q 413 -83 408 -54 q 417 -133 417 -111 q 376 -257 417 -212 q 264 -301 335 -301 z "},"Ɲ":{"ha":529,"x_min":-146,"x_max":469,"o":"m 469 31 q 439 0 469 0 l 389 0 q 358 22 365 0 l 219 518 q 176 611 193 611 q 160 510 160 611 l 160 -68 q 142 -170 160 -126 q 97 -243 125 -214 q 31 -287 68 -272 q -44 -301 -6 -301 l -115 -301 q -146 -271 -146 -301 l -146 -229 q -115 -199 -146 -199 l -46 -199 q 28 -168 -3 -199 q 58 -78 58 -137 l 58 1057 q 89 1088 58 1088 l 147 1088 q 176 1065 169 1088 l 310 582 q 353 486 336 486 q 369 590 369 486 l 369 1057 q 400 1088 369 1088 l 439 1088 q 469 1057 469 1088 l 469 31 l 469 31 z "},"Ơ":{"ha":529,"x_min":58,"x_max":529,"o":"m 507 1231 q 529 1208 529 1231 l 529 1185 q 515 1090 529 1121 q 478 1039 500 1058 q 465 1026 471 1033 q 460 1007 460 1019 q 465 967 460 993 q 469 910 469 942 l 469 176 q 308 0 469 0 l 221 0 q 58 176 58 0 l 58 910 q 221 1088 58 1088 l 363 1088 q 393 1091 379 1088 q 417 1106 407 1094 q 434 1136 428 1117 q 440 1188 440 1156 l 440 1210 q 463 1231 440 1231 l 507 1231 m 163 168 q 221 103 163 103 l 308 103 q 367 168 367 103 l 367 919 q 308 985 367 985 l 221 985 q 163 919 163 985 l 163 168 z "},"Ư":{"ha":529,"x_min":58,"x_max":568,"o":"m 546 1231 q 568 1208 568 1231 l 568 1185 q 549 1077 568 1114 q 494 1026 529 1040 q 476 1014 483 1022 q 469 993 469 1006 l 469 224 q 452 122 469 165 q 406 49 435 78 q 340 5 376 19 q 264 -10 303 -10 q 190 5 226 -10 q 124 49 153 19 q 76 122 94 78 q 58 224 58 165 l 58 1057 q 89 1088 58 1088 l 132 1088 q 163 1057 163 1088 l 163 214 q 192 124 163 154 q 264 93 221 93 q 337 124 307 93 q 367 214 367 154 l 367 1065 q 389 1088 367 1088 l 411 1088 q 460 1108 442 1088 q 479 1188 479 1128 l 479 1210 q 501 1231 479 1231 l 546 1231 l 546 1231 z "},"Ǵ":{"ha":529,"x_min":58,"x_max":469,"o":"m 58 0 m 367 361 q 336 392 367 392 l 300 392 q 269 422 269 392 l 269 464 q 300 494 269 494 l 439 494 q 469 464 469 494 l 469 224 q 452 122 469 165 q 406 49 435 78 q 340 5 376 19 q 264 -10 303 -10 q 190 5 226 -10 q 124 49 153 19 q 76 122 94 78 q 58 224 58 165 l 58 864 q 76 965 58 921 q 124 1038 94 1008 q 190 1082 153 1067 q 264 1097 226 1097 q 340 1082 303 1097 q 406 1038 376 1067 q 452 965 435 1008 q 469 864 469 921 l 469 835 q 461 813 469 821 q 440 804 453 804 l 400 804 q 369 835 369 804 l 369 872 q 339 964 369 933 q 265 994 308 994 q 192 964 222 994 q 163 872 163 933 l 163 214 q 192 124 163 154 q 264 93 221 93 q 337 124 307 93 q 367 214 367 154 l 367 361 m 361 1365 q 396 1343 396 1365 q 388 1319 396 1332 l 296 1165 q 269 1150 288 1150 l 244 1150 q 217 1171 217 1150 q 221 1189 217 1178 l 296 1347 q 324 1365 304 1365 l 361 1365 l 361 1365 z "},"Ǹ":{"ha":529,"x_min":58,"x_max":469,"o":"m 58 0 m 469 31 q 439 0 469 0 l 389 0 q 358 22 365 0 l 219 518 q 176 611 193 611 q 160 510 160 611 l 160 31 q 129 0 160 0 l 89 0 q 58 31 58 0 l 58 1057 q 89 1088 58 1088 l 147 1088 q 166 1082 158 1088 q 176 1065 174 1076 l 310 582 q 353 486 336 486 q 369 590 369 486 l 369 1057 q 400 1088 369 1088 l 439 1088 q 469 1057 469 1088 l 469 31 l 469 31 m 308 1189 q 313 1171 313 1178 q 285 1150 313 1150 l 260 1150 q 233 1165 242 1150 l 142 1319 q 133 1343 133 1332 q 168 1365 133 1365 l 206 1365 q 233 1347 224 1365 l 308 1189 l 308 1189 z "},"Ɂ":{"ha":529,"x_min":78,"x_max":460,"o":"m 308 31 q 278 0 308 0 l 238 0 q 207 31 207 0 l 207 642 q 214 680 207 669 q 236 697 221 690 q 266 711 246 701 q 307 741 286 721 q 343 792 328 761 q 358 869 358 824 q 326 965 358 936 q 254 994 294 994 q 211 985 228 994 q 183 964 194 975 q 163 943 171 953 q 143 933 154 933 q 126 938 135 933 l 93 956 q 78 979 78 964 q 92 1014 78 993 q 131 1053 106 1035 q 189 1084 156 1071 q 263 1097 222 1097 q 337 1083 301 1097 q 399 1040 372 1068 q 443 967 426 1011 q 460 865 460 924 q 448 780 460 815 q 418 719 436 744 q 377 675 400 693 q 333 643 354 657 q 313 623 318 632 q 308 594 308 614 l 308 31 l 308 31 z "},"Ɍ":{"ha":529,"x_min":0,"x_max":501,"o":"m 500 736 q 474 615 500 664 q 408 538 449 565 q 394 508 394 529 q 394 497 394 503 q 397 485 394 492 l 492 79 q 501 29 501 40 q 471 0 501 0 l 426 0 q 396 24 400 0 l 296 479 q 265 503 292 503 l 218 503 q 188 472 188 503 l 188 31 q 157 0 188 0 l 114 0 q 83 31 83 0 l 83 472 q 53 503 83 503 l 31 503 q 0 533 0 503 l 0 575 q 31 606 0 606 l 53 606 q 83 636 83 606 l 83 1057 q 114 1088 83 1088 l 294 1088 q 370 1073 333 1088 q 436 1029 407 1058 q 483 956 465 1000 q 500 854 500 913 l 500 736 m 218 985 q 188 954 188 985 l 188 636 q 218 606 188 606 l 294 606 q 367 636 338 606 q 397 726 397 667 l 397 864 q 367 954 397 924 q 294 985 338 985 l 218 985 z "},"ˆ":{"ha":529,"x_min":114,"x_max":414,"o":"m 353 1150 q 328 1164 333 1150 l 289 1225 q 263 1243 276 1243 q 238 1225 247 1243 l 199 1164 q 174 1150 193 1150 l 143 1150 q 114 1169 114 1150 q 121 1190 114 1179 l 222 1349 q 250 1365 232 1365 l 278 1365 q 306 1349 294 1365 l 407 1190 q 414 1169 414 1179 q 385 1150 414 1150 l 353 1150 l 353 1150 z "},"ˇ":{"ha":529,"x_min":114,"x_max":414,"o":"m 175 1365 q 200 1351 194 1365 l 239 1290 q 265 1272 251 1272 q 290 1290 281 1272 l 329 1351 q 354 1365 335 1365 l 385 1365 q 414 1346 414 1365 q 407 1325 414 1336 l 306 1167 q 278 1150 294 1150 l 250 1150 q 222 1167 232 1150 l 121 1325 q 114 1346 114 1336 q 143 1365 114 1365 l 175 1365 z "},"˘":{"ha":529,"x_min":65,"x_max":463,"o":"m 265 1129 q 159 1148 207 1129 q 85 1226 111 1167 q 69 1271 74 1250 q 65 1304 65 1292 q 93 1339 65 1339 l 122 1339 q 144 1332 138 1339 q 153 1311 150 1325 q 189 1228 165 1253 q 264 1204 213 1204 q 339 1228 315 1204 q 375 1311 363 1253 q 384 1332 378 1325 q 406 1339 390 1339 l 435 1339 q 463 1304 463 1339 q 458 1271 463 1292 q 443 1226 454 1250 q 370 1148 417 1167 q 265 1129 324 1129 z "},"˙":{"ha":264,"x_min":81,"x_max":185,"o":"m 185 1194 q 154 1164 185 1164 l 111 1164 q 81 1194 81 1164 l 81 1251 q 111 1282 81 1282 l 154 1282 q 185 1251 185 1282 l 185 1194 l 185 1194 z "},"˚":{"ha":264,"x_min":8,"x_max":256,"o":"m 256 1231 q 219 1134 256 1171 q 131 1097 183 1097 q 43 1135 78 1097 q 8 1232 8 1174 q 44 1328 8 1292 q 132 1365 79 1365 q 219 1328 183 1365 q 256 1231 256 1292 m 178 1232 q 132 1289 178 1289 q 82 1232 82 1289 q 94 1189 82 1206 q 131 1172 107 1172 q 166 1189 154 1172 q 178 1232 178 1206 z "},"˛":{"ha":264,"x_min":6,"x_max":258,"o":"m 258 -271 q 228 -301 258 -301 l 175 -301 q 48 -263 90 -301 q 6 -157 6 -225 q 54 -41 6 -82 q 186 0 103 0 q 194 -7 194 0 q 180 -20 194 -15 q 147 -35 165 -25 q 115 -65 129 -46 q 100 -118 100 -83 q 120 -176 100 -154 q 189 -199 140 -199 l 228 -199 q 258 -229 258 -199 l 258 -271 l 258 -271 z "},"˜":{"ha":529,"x_min":43,"x_max":485,"o":"m 376 1151 q 317 1164 344 1151 q 263 1192 289 1176 q 212 1219 238 1207 q 161 1232 186 1232 q 127 1221 142 1232 q 100 1176 113 1210 q 90 1158 97 1167 q 68 1150 83 1150 q 48 1159 53 1150 q 43 1188 43 1168 q 50 1238 43 1213 q 70 1282 57 1263 q 104 1314 83 1301 q 153 1326 125 1326 q 210 1314 182 1326 q 265 1285 239 1301 q 315 1257 290 1269 q 364 1244 340 1244 q 404 1262 392 1244 q 426 1301 417 1279 q 439 1320 432 1313 q 458 1328 446 1328 q 485 1303 485 1328 q 473 1222 485 1251 q 444 1176 461 1192 q 409 1156 428 1160 q 376 1151 390 1151 z "},"˝":{"ha":529,"x_min":71,"x_max":453,"o":"m 418 1365 q 453 1343 453 1365 q 444 1319 453 1332 l 353 1165 q 326 1150 344 1150 l 301 1150 q 274 1171 274 1150 q 278 1189 274 1178 l 353 1347 q 381 1365 361 1365 l 418 1365 m 215 1365 q 250 1343 250 1365 q 242 1319 250 1332 l 150 1165 q 124 1150 142 1150 l 99 1150 q 71 1171 71 1150 q 75 1189 71 1178 l 150 1347 q 178 1365 158 1365 l 215 1365 z "},"̀":{"ha":0,"x_min":-393,"x_max":-214,"o":"m -214 1150 m -218 1189 q -214 1171 -214 1178 q -242 1150 -214 1150 l -267 1150 q -293 1165 -285 1150 l -385 1319 q -393 1343 -393 1332 q -358 1365 -393 1365 l -321 1365 q -293 1347 -303 1365 l -218 1189 l -218 1189 z "},"́":{"ha":0,"x_min":-311,"x_max":-132,"o":"m -132 1150 m -167 1365 q -132 1343 -132 1365 q -140 1319 -132 1332 l -232 1165 q -258 1150 -240 1150 l -283 1150 q -311 1171 -311 1150 q -307 1189 -311 1178 l -232 1347 q -204 1365 -224 1365 l -167 1365 l -167 1365 z "},"̂":{"ha":0,"x_min":-414,"x_max":-114,"o":"m -114 1150 m -175 1150 q -200 1164 -194 1150 l -239 1225 q -265 1243 -251 1243 q -290 1225 -281 1243 l -329 1164 q -354 1150 -335 1150 l -385 1150 q -414 1169 -414 1150 q -407 1190 -414 1179 l -306 1349 q -278 1365 -296 1365 l -250 1365 q -222 1349 -233 1365 l -121 1190 q -114 1169 -114 1179 q -143 1150 -114 1150 l -175 1150 l -175 1150 z "},"̃":{"ha":0,"x_min":-485,"x_max":-43,"o":"m -43 1150 m -151 1151 q -211 1164 -183 1151 q -265 1192 -239 1176 q -316 1219 -290 1207 q -367 1232 -342 1232 q -401 1221 -386 1232 q -428 1176 -415 1210 q -437 1158 -431 1167 q -460 1150 -444 1150 q -480 1159 -475 1150 q -485 1188 -485 1168 q -478 1238 -485 1213 q -458 1282 -471 1263 q -424 1314 -444 1301 q -375 1326 -403 1326 q -317 1314 -346 1326 q -263 1285 -289 1301 q -212 1257 -237 1269 q -164 1244 -187 1244 q -124 1262 -136 1244 q -101 1301 -111 1279 q -89 1320 -96 1313 q -69 1328 -82 1328 q -43 1303 -43 1328 q -55 1222 -43 1251 q -83 1176 -67 1192 q -119 1156 -100 1160 q -151 1151 -137 1151 z "},"̄":{"ha":0,"x_min":-444,"x_max":-83,"o":"m -83 1188 m -83 1218 q -114 1188 -83 1188 l -414 1188 q -444 1218 -444 1188 l -444 1251 q -414 1282 -444 1282 l -114 1282 q -83 1251 -83 1282 l -83 1218 l -83 1218 z "},"̆":{"ha":0,"x_min":-462,"x_max":-65,"o":"m -65 1129 m -262 1129 q -369 1148 -321 1129 q -443 1226 -417 1167 q -458 1271 -454 1250 q -462 1304 -462 1292 q -435 1339 -462 1339 l -406 1339 q -384 1332 -390 1339 q -375 1311 -378 1325 q -339 1228 -362 1253 q -264 1204 -315 1204 q -189 1228 -212 1204 q -153 1311 -165 1253 q -144 1332 -150 1325 q -122 1339 -137 1339 l -93 1339 q -65 1304 -65 1339 q -69 1271 -65 1292 q -85 1226 -74 1250 q -158 1148 -111 1167 q -262 1129 -204 1129 z "},"̇":{"ha":0,"x_min":-315,"x_max":-211,"o":"m -211 1164 m -211 1194 q -242 1164 -211 1164 l -285 1164 q -315 1194 -315 1164 l -315 1251 q -285 1282 -315 1282 l -242 1282 q -211 1251 -211 1282 l -211 1194 l -211 1194 z "},"̈":{"ha":0,"x_min":-440,"x_max":-87,"o":"m -87 1164 m -337 1194 q -368 1164 -337 1164 l -410 1164 q -440 1194 -440 1164 l -440 1251 q -410 1282 -440 1282 l -368 1282 q -337 1251 -337 1282 l -337 1194 m -87 1194 q -118 1164 -87 1164 l -161 1164 q -192 1194 -192 1164 l -192 1251 q -161 1282 -192 1282 l -118 1282 q -87 1251 -87 1282 l -87 1194 z "},"̉":{"ha":0,"x_min":-385,"x_max":-149,"o":"m -182 1182 q -206 1160 -193 1171 q -231 1135 -219 1150 q -271 1113 -246 1113 q -299 1133 -299 1113 q -262 1192 -299 1153 q -235 1224 -243 1211 q -228 1251 -228 1236 q -239 1279 -228 1271 q -269 1288 -250 1288 q -297 1283 -286 1288 q -317 1272 -308 1278 q -331 1262 -325 1267 q -346 1257 -337 1257 q -373 1272 -361 1257 q -385 1297 -385 1286 q -376 1319 -385 1307 q -351 1341 -367 1331 q -313 1358 -335 1351 q -267 1365 -292 1365 q -184 1338 -219 1365 q -149 1257 -149 1310 q -182 1182 -149 1215 z "},"̊":{"ha":0,"x_min":-386,"x_max":-139,"o":"m -139 1097 m -139 1231 q -175 1134 -139 1171 q -264 1097 -211 1097 q -351 1135 -317 1097 q -386 1232 -386 1174 q -351 1328 -386 1292 q -262 1365 -315 1365 q -175 1328 -211 1365 q -139 1231 -139 1292 m -217 1232 q -262 1289 -217 1289 q -312 1232 -312 1289 q -300 1189 -312 1206 q -264 1172 -287 1172 q -228 1189 -240 1172 q -217 1232 -217 1206 z "},"̋":{"ha":0,"x_min":-412,"x_max":-31,"o":"m -31 1150 m -65 1365 q -31 1343 -31 1365 q -39 1319 -31 1332 l -131 1165 q -157 1150 -139 1150 l -182 1150 q -210 1171 -210 1150 q -206 1189 -210 1178 l -131 1347 q -103 1365 -122 1365 l -65 1365 m -268 1365 q -233 1343 -233 1365 q -242 1319 -233 1332 l -333 1165 q -360 1150 -342 1150 l -385 1150 q -412 1171 -412 1150 q -408 1189 -412 1178 l -333 1347 q -306 1365 -325 1365 l -268 1365 z "},"̌":{"ha":0,"x_min":-414,"x_max":-114,"o":"m -114 1150 m -353 1365 q -328 1351 -333 1365 l -289 1290 q -262 1272 -276 1272 q -237 1290 -247 1272 l -199 1351 q -174 1365 -193 1365 l -143 1365 q -114 1346 -114 1365 q -121 1325 -114 1336 l -222 1167 q -250 1150 -233 1150 l -278 1150 q -306 1167 -296 1150 l -407 1325 q -414 1346 -414 1336 q -385 1365 -414 1365 l -353 1365 z "},"̓":{"ha":0,"x_min":-315,"x_max":-211,"o":"m -211 1092 m -211 1275 q -212 1253 -211 1264 q -217 1228 -214 1242 l -239 1117 q -271 1092 -243 1092 q -294 1113 -294 1092 q -294 1124 -294 1117 q -292 1142 -293 1131 l -283 1199 q -279 1231 -279 1221 q -285 1242 -279 1239 q -297 1249 -290 1246 q -310 1258 -304 1251 q -315 1278 -315 1264 l -315 1335 q -285 1365 -315 1365 l -242 1365 q -211 1335 -211 1365 l -211 1275 l -211 1275 z "},"̛":{"ha":0,"x_min":-157,"x_max":46,"o":"m 24 1231 q 46 1208 46 1231 l 46 1185 q 35 1102 46 1135 q 7 1050 25 1069 q -36 1023 -11 1031 q -90 1015 -61 1015 l -126 1015 q -157 1046 -157 1015 l -157 1069 q -139 1088 -157 1088 l -119 1088 q -90 1091 -103 1088 q -66 1106 -76 1094 q -50 1136 -56 1117 q -44 1188 -44 1156 l -44 1210 q -24 1231 -44 1231 l 24 1231 l 24 1231 z "},"̣":{"ha":0,"x_min":-315,"x_max":-211,"o":"m -211 -75 m -211 -162 q -242 -193 -211 -193 l -285 -193 q -315 -162 -315 -193 l -315 -106 q -285 -75 -315 -75 l -242 -75 q -211 -106 -211 -75 l -211 -162 l -211 -162 z "},"̦":{"ha":0,"x_min":-315,"x_max":-211,"o":"m -211 -28 m -211 -118 q -212 -140 -211 -129 q -217 -165 -214 -151 l -239 -276 q -271 -301 -243 -301 q -294 -281 -294 -301 q -294 -269 -294 -276 q -292 -251 -293 -262 l -283 -194 q -279 -162 -279 -172 q -285 -151 -279 -154 q -297 -144 -290 -147 q -310 -135 -304 -142 q -315 -115 -315 -129 l -315 -58 q -285 -28 -315 -28 l -242 -28 q -211 -58 -211 -28 l -211 -118 l -211 -118 z "},"̨":{"ha":0,"x_min":-389,"x_max":-136,"o":"m -136 0 m -136 -271 q -167 -301 -136 -301 l -219 -301 q -347 -263 -304 -301 q -389 -157 -389 -225 q -340 -41 -389 -82 q -208 0 -292 0 q -200 -7 -200 0 q -215 -20 -200 -15 q -247 -35 -229 -25 q -280 -65 -265 -46 q -294 -118 -294 -83 q -274 -176 -294 -154 q -206 -199 -254 -199 l -167 -199 q -136 -229 -136 -199 l -136 -271 l -136 -271 z "},"̭":{"ha":0,"x_min":-414,"x_max":-114,"o":"m -114 -62 m -175 -278 q -200 -264 -194 -278 l -239 -203 q -265 -185 -251 -185 q -290 -203 -281 -185 l -329 -264 q -354 -278 -335 -278 l -385 -278 q -414 -258 -414 -278 q -407 -237 -414 -249 l -306 -79 q -278 -62 -296 -62 l -250 -62 q -222 -79 -233 -62 l -121 -237 q -114 -258 -114 -249 q -143 -278 -114 -278 l -175 -278 l -175 -278 z "},"΄":{"ha":264,"x_min":78,"x_max":183,"o":"m 165 878 q 135 850 163 850 l 108 850 q 78 881 78 850 l 78 1057 q 108 1088 78 1088 l 151 1088 q 175 1078 167 1088 q 182 1054 183 1069 l 165 878 l 165 878 z "},"΅":{"ha":529,"x_min":58,"x_max":468,"o":"m 163 1194 q 132 1164 163 1164 l 89 1164 q 58 1194 58 1164 l 58 1251 q 89 1282 58 1282 l 132 1282 q 163 1251 163 1282 l 163 1194 m 304 1156 q 274 1128 301 1128 l 249 1128 q 218 1158 218 1128 l 218 1335 q 249 1365 218 1365 l 289 1365 q 313 1356 304 1365 q 319 1332 321 1347 l 304 1156 m 468 1194 q 438 1164 468 1164 l 396 1164 q 365 1194 365 1164 l 365 1251 q 396 1282 365 1282 l 438 1282 q 468 1251 468 1282 l 468 1194 z "},"Ά":{"ha":529,"x_min":14,"x_max":504,"o":"m 14 0 m 101 878 q 71 850 99 850 l 44 850 q 14 881 14 850 l 14 1057 q 44 1088 14 1088 l 88 1088 q 111 1078 103 1088 q 118 1054 119 1069 l 101 878 l 101 878 m 438 0 q 407 26 411 0 l 376 226 q 346 253 372 253 l 207 253 q 176 226 181 253 l 149 26 q 118 0 144 0 l 81 0 q 50 29 50 0 q 51 35 50 31 q 54 61 51 39 l 207 1061 q 238 1088 211 1088 l 318 1088 q 349 1061 344 1088 l 500 61 q 503 35 503 39 q 504 29 504 31 q 474 0 504 0 l 438 0 m 307 688 q 276 779 292 779 q 246 688 260 779 l 207 419 q 203 382 203 394 q 232 356 203 356 l 321 356 q 351 382 351 356 q 347 419 351 394 l 307 688 z "},"·":{"ha":264,"x_min":81,"x_max":185,"o":"m 81 669 m 185 700 q 154 669 185 669 l 111 669 q 81 700 81 669 l 81 757 q 111 788 81 788 l 154 788 q 185 757 185 788 l 185 700 l 185 700 z "},"Έ":{"ha":529,"x_min":-44,"x_max":529,"o":"m 0 0 m 43 878 q 13 850 40 850 l -14 850 q -44 881 -44 850 l -44 1057 q -14 1088 -44 1088 l 29 1088 q 53 1078 44 1088 q 60 1054 61 1069 l 43 878 l 43 878 m 419 600 q 450 569 450 600 l 450 528 q 419 497 450 497 l 240 497 q 210 467 210 497 l 210 133 q 240 103 210 103 l 499 103 q 529 72 529 103 l 529 31 q 499 0 529 0 l 136 0 q 106 31 106 0 l 106 1057 q 136 1088 106 1088 l 499 1088 q 529 1057 529 1088 l 529 1015 q 499 985 529 985 l 240 985 q 210 954 210 985 l 210 631 q 240 600 210 600 l 419 600 l 419 600 z "},"Ή":{"ha":529,"x_min":-33,"x_max":528,"o":"m 0 0 m 54 878 q 24 850 51 850 l -3 850 q -33 881 -33 850 l -33 1057 q -3 1088 -33 1088 l 40 1088 q 64 1078 56 1088 q 71 1054 72 1069 l 54 878 l 54 878 m 190 1088 q 221 1057 221 1088 l 221 631 q 251 600 221 600 l 394 600 q 425 631 425 600 l 425 1057 q 456 1088 425 1088 l 497 1088 q 528 1057 528 1088 l 528 31 q 497 0 528 0 l 456 0 q 425 31 425 0 l 425 467 q 394 497 425 497 l 251 497 q 221 467 221 497 l 221 31 q 190 0 221 0 l 147 0 q 117 31 117 0 l 117 1057 q 147 1088 117 1088 l 190 1088 l 190 1088 z "},"Ί":{"ha":529,"x_min":88,"x_max":403,"o":"m 88 0 m 175 878 q 144 850 172 850 l 118 850 q 88 881 88 850 l 88 1057 q 118 1088 88 1088 l 161 1088 q 185 1078 176 1088 q 192 1054 193 1069 l 175 878 l 175 878 m 403 31 q 372 0 403 0 l 328 0 q 297 31 297 0 l 297 1057 q 328 1088 297 1088 l 372 1088 q 403 1057 403 1088 l 403 31 l 403 31 z "},"Ό":{"ha":529,"x_min":-28,"x_max":514,"o":"m 0 0 m 60 878 q 29 850 57 850 l 3 850 q -28 881 -28 850 l -28 1057 q 3 1088 -28 1088 l 46 1088 q 69 1078 61 1088 q 76 1054 78 1069 l 60 878 l 60 878 m 103 910 q 265 1088 103 1088 l 353 1088 q 514 910 514 1088 l 514 176 q 353 0 514 0 l 265 0 q 103 176 103 0 l 103 910 m 207 168 q 265 103 207 103 l 353 103 q 411 168 411 103 l 411 919 q 353 985 411 985 l 265 985 q 207 919 207 985 l 207 168 z "},"Ύ":{"ha":529,"x_min":-29,"x_max":519,"o":"m 0 0 m 58 878 q 28 850 56 850 l 1 850 q -29 881 -29 850 l -29 1057 q 1 1088 -29 1088 l 44 1088 q 68 1078 60 1088 q 75 1054 76 1069 l 58 878 l 58 878 m 256 508 q 247 567 256 539 l 104 1031 q 97 1055 99 1049 q 96 1064 96 1061 q 128 1088 96 1088 l 171 1088 q 200 1065 194 1088 l 278 803 q 307 758 290 758 q 336 803 322 758 l 417 1065 q 446 1088 422 1088 l 488 1088 q 519 1064 519 1088 q 518 1055 519 1061 q 511 1031 517 1049 l 368 567 q 360 508 360 539 l 360 31 q 329 0 360 0 l 286 0 q 256 31 256 0 l 256 508 l 256 508 z "},"Ώ":{"ha":529,"x_min":-17,"x_max":514,"o":"m 0 0 m 71 878 q 40 850 68 850 l 14 850 q -17 881 -17 850 l -17 1057 q 14 1088 -17 1088 l 57 1088 q 81 1078 72 1088 q 88 1054 89 1069 l 71 878 l 71 878 m 308 994 q 236 964 265 994 q 207 872 207 933 l 207 385 q 222 251 207 322 q 272 128 238 179 q 285 103 282 114 q 289 72 289 93 l 289 31 q 258 0 289 0 l 133 0 q 103 31 103 0 l 103 72 q 133 103 103 103 l 144 103 q 169 121 169 103 q 165 139 169 128 q 121 253 139 188 q 103 394 103 319 l 103 864 q 121 965 103 921 q 168 1038 139 1008 q 234 1082 197 1067 q 308 1097 271 1097 q 383 1082 346 1097 q 449 1038 419 1067 q 496 965 478 1008 q 514 864 514 921 l 514 394 q 496 253 514 319 q 451 139 478 188 q 447 121 447 128 q 472 103 447 103 l 483 103 q 514 72 514 103 l 514 31 q 483 0 514 0 l 358 0 q 328 31 328 0 l 328 72 q 331 103 328 93 q 344 128 335 114 q 394 251 379 179 q 410 385 410 322 l 410 872 q 381 964 410 933 q 308 994 351 994 z "},"Γ":{"ha":529,"x_min":58,"x_max":482,"o":"m 451 1088 q 482 1057 482 1088 l 482 1015 q 451 985 482 985 l 193 985 q 163 954 163 985 l 163 31 q 132 0 163 0 l 89 0 q 58 31 58 0 l 58 1057 q 89 1088 58 1088 l 451 1088 l 451 1088 z "},"Δ":{"ha":529,"x_min":36,"x_max":490,"o":"m 303 1088 q 333 1061 329 1088 l 486 61 q 490 25 490 33 q 483 8 490 15 q 460 0 475 0 l 67 0 q 44 8 51 0 q 36 25 36 15 q 40 61 36 33 l 193 1061 q 224 1088 197 1088 l 303 1088 m 344 103 q 368 112 363 103 q 374 139 374 121 q 374 147 374 142 q 371 165 374 151 l 293 689 q 278 755 286 731 q 263 779 271 779 q 232 689 244 779 l 154 165 q 151 147 151 151 q 151 139 151 142 q 157 112 151 121 q 181 103 163 103 l 344 103 z "},"Θ":{"ha":529,"x_min":58,"x_max":469,"o":"m 58 910 q 221 1088 58 1088 l 308 1088 q 469 910 469 1088 l 469 176 q 308 0 469 0 l 221 0 q 58 176 58 0 l 58 910 m 163 168 q 221 103 163 103 l 308 103 q 367 168 367 103 l 367 919 q 308 985 367 985 l 221 985 q 163 919 163 985 l 163 168 m 307 600 q 338 569 338 600 l 338 528 q 307 497 338 497 l 218 497 q 188 528 188 497 l 188 569 q 218 600 188 600 l 307 600 z "},"Λ":{"ha":529,"x_min":38,"x_max":492,"o":"m 421 0 q 390 26 394 0 l 294 681 q 264 772 282 772 q 233 681 247 772 l 138 26 q 107 0 133 0 l 68 0 q 38 29 38 0 q 38 40 38 33 q 40 56 39 46 l 193 1061 q 224 1088 197 1088 l 304 1088 q 335 1061 331 1088 l 489 56 q 491 41 490 47 q 492 29 492 35 q 461 0 492 0 l 421 0 l 421 0 z "},"Ξ":{"ha":529,"x_min":47,"x_max":482,"o":"m 482 1015 q 451 985 482 985 l 78 985 q 47 1015 47 985 l 47 1057 q 78 1088 47 1088 l 451 1088 q 482 1057 482 1088 l 482 1015 m 482 31 q 451 0 482 0 l 78 0 q 47 31 47 0 l 47 72 q 78 103 47 103 l 451 103 q 482 72 482 103 l 482 31 m 372 600 q 403 569 403 600 l 403 528 q 372 497 403 497 l 156 497 q 125 528 125 497 l 125 569 q 156 600 125 600 l 372 600 z "},"Π":{"ha":529,"x_min":58,"x_max":469,"o":"m 58 1057 q 89 1088 58 1088 l 439 1088 q 469 1057 469 1088 l 469 31 q 439 0 469 0 l 397 0 q 367 31 367 0 l 367 954 q 336 985 367 985 l 193 985 q 163 954 163 985 l 163 31 q 132 0 163 0 l 89 0 q 58 31 58 0 l 58 1057 l 58 1057 z "},"Σ":{"ha":529,"x_min":54,"x_max":482,"o":"m 451 1088 q 482 1057 482 1088 l 482 1015 q 451 985 482 985 l 208 985 q 178 958 178 985 q 183 933 178 950 l 308 578 q 313 547 313 563 q 308 517 313 529 l 176 143 q 174 135 175 139 q 174 128 174 132 q 206 103 174 103 l 451 103 q 482 72 482 103 l 482 31 q 451 0 482 0 l 85 0 q 54 31 54 0 l 54 81 q 60 122 54 107 l 199 517 q 204 547 204 532 q 199 578 204 561 l 61 968 q 54 1008 54 986 l 54 1057 q 85 1088 54 1088 l 451 1088 z "},"Φ":{"ha":529,"x_min":14,"x_max":514,"o":"m 14 754 q 176 932 14 932 l 193 932 q 210 949 210 932 l 210 1057 q 240 1088 210 1088 l 283 1088 q 314 1057 314 1088 l 314 951 q 333 932 314 932 l 353 932 q 514 754 514 932 l 514 332 q 353 156 514 156 l 333 156 q 314 136 314 156 l 314 31 q 283 0 314 0 l 240 0 q 210 31 210 0 l 210 139 q 193 156 210 156 l 176 156 q 14 332 14 156 l 14 754 m 333 829 q 314 810 314 829 l 314 278 q 333 258 314 258 l 353 258 q 410 324 410 258 l 410 764 q 353 829 410 829 l 333 829 m 119 324 q 176 258 119 258 l 193 258 q 210 275 210 258 l 210 813 q 193 829 210 829 l 176 829 q 119 764 119 829 l 119 324 z "},"Ψ":{"ha":529,"x_min":14,"x_max":514,"o":"m 14 893 q 44 924 14 924 l 89 924 q 119 893 119 924 l 119 324 q 176 258 119 258 l 193 258 q 210 275 210 258 l 210 1057 q 240 1088 210 1088 l 283 1088 q 314 1057 314 1088 l 314 278 q 333 258 314 258 l 353 258 q 410 324 410 258 l 410 893 q 440 924 410 924 l 483 924 q 514 893 514 924 l 514 332 q 353 156 514 156 l 333 156 q 314 136 314 156 l 314 31 q 283 0 314 0 l 240 0 q 210 31 210 0 l 210 139 q 193 156 210 156 l 176 156 q 14 332 14 156 l 14 893 z "},"Ω":{"ha":529,"x_min":58,"x_max":469,"o":"m 264 994 q 192 964 221 994 q 163 872 163 933 l 163 385 q 178 251 163 322 q 228 128 193 179 q 241 103 238 114 q 244 72 244 93 l 244 31 q 214 0 244 0 l 89 0 q 58 31 58 0 l 58 72 q 89 103 58 103 l 100 103 q 125 121 125 103 q 121 139 125 128 q 76 253 94 188 q 58 394 58 319 l 58 864 q 76 965 58 921 q 124 1038 94 1008 q 190 1082 153 1067 q 264 1097 226 1097 q 338 1082 301 1097 q 404 1038 375 1067 q 451 965 433 1008 q 469 864 469 921 l 469 394 q 451 253 469 319 q 407 139 433 188 q 403 121 403 128 q 428 103 403 103 l 439 103 q 469 72 469 103 l 469 31 q 439 0 469 0 l 314 0 q 283 31 283 0 l 283 72 q 287 103 283 93 q 300 128 290 114 q 350 251 335 179 q 365 385 365 322 l 365 872 q 336 964 365 933 q 264 994 307 994 z "},"Ђ":{"ha":529,"x_min":0,"x_max":496,"o":"m 496 -68 q 478 -170 496 -126 q 432 -243 461 -214 q 366 -287 403 -272 q 292 -301 329 -301 l 218 -301 q 188 -271 188 -301 l 188 -229 q 218 -199 188 -199 l 289 -199 q 363 -168 332 -199 q 393 -78 393 -137 l 393 578 q 387 640 393 617 q 369 677 381 664 q 340 694 357 690 q 301 699 322 699 q 226 681 249 699 q 203 647 203 664 l 203 31 q 172 0 203 0 l 129 0 q 99 31 99 0 l 99 954 q 68 985 99 985 l 31 985 q 0 1015 0 985 l 0 1057 q 31 1088 0 1088 l 428 1088 q 458 1057 458 1088 l 458 1015 q 428 985 458 985 l 233 985 q 203 954 203 985 l 203 824 q 231 786 203 786 q 270 794 247 786 q 317 801 293 801 q 394 783 360 801 q 450 734 428 765 q 484 660 472 703 q 496 568 496 618 l 496 -68 z "},"Ѓ":{"ha":529,"x_min":58,"x_max":482,"o":"m 58 0 m 451 1088 q 482 1057 482 1088 l 482 1015 q 451 985 482 985 l 193 985 q 163 954 163 985 l 163 31 q 132 0 163 0 l 89 0 q 58 31 58 0 l 58 1057 q 89 1088 58 1088 l 451 1088 l 451 1088 m 368 1365 q 403 1343 403 1365 q 394 1319 403 1332 l 303 1165 q 276 1150 294 1150 l 251 1150 q 224 1171 224 1150 q 228 1189 224 1178 l 303 1347 q 331 1365 311 1365 l 368 1365 l 368 1365 z "},"Є":{"ha":529,"x_min":58,"x_max":469,"o":"m 372 600 q 403 569 403 600 l 403 528 q 372 497 403 497 l 193 497 q 163 467 163 497 l 163 214 q 192 124 163 154 q 267 93 222 93 q 339 124 308 93 q 369 214 369 154 l 369 268 q 400 299 369 299 l 439 299 q 469 268 469 299 l 469 224 q 452 122 469 165 q 406 49 435 78 q 340 5 376 19 q 264 -10 303 -10 q 190 5 226 -10 q 124 49 153 19 q 76 122 94 78 q 58 224 58 165 l 58 864 q 76 965 58 921 q 124 1038 94 1008 q 190 1082 153 1067 q 264 1097 226 1097 q 340 1082 303 1097 q 406 1038 376 1067 q 452 965 435 1008 q 469 864 469 921 l 469 835 q 461 813 469 821 q 440 804 453 804 l 400 804 q 369 835 369 804 l 369 872 q 339 964 369 933 q 267 994 308 994 q 192 964 222 994 q 163 872 163 933 l 163 631 q 193 600 163 600 l 372 600 l 372 600 z "},"Љ":{"ha":529,"x_min":0,"x_max":529,"o":"m 132 1058 q 163 1088 133 1088 l 292 1088 q 322 1057 322 1088 l 322 617 q 339 600 322 600 l 356 600 q 419 585 388 600 q 474 542 450 571 q 514 469 499 513 q 529 367 529 425 l 529 242 q 514 140 529 185 q 474 63 499 94 q 419 16 450 32 q 356 0 388 0 l 267 0 q 236 31 236 0 l 236 968 q 219 985 236 985 q 201 968 201 985 l 161 208 q 148 107 158 147 q 121 43 138 67 q 83 10 104 19 q 36 0 61 0 q 8 6 17 0 q 0 31 0 13 l 0 72 q 12 99 0 94 q 31 103 24 103 q 54 108 44 104 q 70 124 64 113 q 79 158 76 136 q 85 213 82 179 l 132 1058 m 322 129 q 339 113 322 113 l 356 113 q 417 143 392 113 q 442 233 442 174 l 442 376 q 417 467 442 436 q 356 497 392 497 l 339 497 q 322 481 322 497 l 322 129 z "},"Њ":{"ha":529,"x_min":8,"x_max":524,"o":"m 75 1088 q 106 1057 106 1088 l 106 631 q 136 600 106 600 l 172 600 q 203 631 203 600 l 203 1057 q 233 1088 203 1088 l 269 1088 q 300 1057 300 1088 l 300 617 q 317 600 300 600 l 332 600 q 401 585 367 600 q 463 542 436 571 q 507 469 490 513 q 524 367 524 425 l 524 242 q 507 140 524 185 q 463 63 490 94 q 401 16 436 32 q 332 0 367 0 l 233 0 q 203 31 203 0 l 203 467 q 172 497 203 497 l 136 497 q 106 467 106 497 l 106 31 q 75 0 106 0 l 39 0 q 8 31 8 0 l 8 1057 q 39 1088 8 1088 l 75 1088 m 300 129 q 317 113 300 113 l 332 113 q 399 143 371 113 q 426 233 426 174 l 426 376 q 399 467 426 436 q 332 497 371 497 l 317 497 q 300 482 300 497 l 300 129 z "},"Ћ":{"ha":529,"x_min":0,"x_max":496,"o":"m 496 31 q 465 0 496 0 l 424 0 q 393 31 393 0 l 393 578 q 387 640 393 617 q 369 677 381 664 q 340 694 357 690 q 301 699 322 699 q 226 681 249 699 q 203 647 203 664 l 203 31 q 172 0 203 0 l 129 0 q 99 31 99 0 l 99 954 q 68 985 99 985 l 31 985 q 0 1015 0 985 l 0 1057 q 31 1088 0 1088 l 428 1088 q 458 1057 458 1088 l 458 1015 q 428 985 458 985 l 233 985 q 203 954 203 985 l 203 824 q 231 786 203 786 q 270 794 247 786 q 317 801 293 801 q 394 783 360 801 q 450 734 428 765 q 484 660 472 703 q 496 568 496 618 l 496 31 z "},"Ќ":{"ha":529,"x_min":58,"x_max":458,"o":"m 58 0 m 132 1088 q 163 1057 163 1088 l 163 842 q 181 783 163 783 q 219 826 197 783 l 353 1071 q 379 1088 363 1088 l 421 1088 q 454 1064 454 1088 q 447 1042 454 1056 l 236 658 q 228 628 228 642 q 232 603 228 615 l 456 42 q 458 33 458 38 q 458 25 458 28 q 428 0 458 0 l 379 0 q 351 19 358 0 l 221 351 q 179 417 196 417 q 163 340 163 417 l 163 31 q 132 0 163 0 l 89 0 q 58 31 58 0 l 58 1057 q 89 1088 58 1088 l 132 1088 l 132 1088 m 361 1365 q 396 1343 396 1365 q 388 1319 396 1332 l 296 1165 q 269 1150 288 1150 l 244 1150 q 217 1171 217 1150 q 221 1189 217 1178 l 296 1347 q 324 1365 304 1365 l 361 1365 l 361 1365 z "},"Ѝ":{"ha":529,"x_min":58,"x_max":469,"o":"m 58 0 m 168 22 q 139 0 163 0 l 89 0 q 58 31 58 0 l 58 1057 q 89 1088 58 1088 l 132 1088 q 163 1057 163 1088 l 163 564 q 179 457 163 457 q 222 556 196 457 l 360 1065 q 389 1088 365 1088 l 439 1088 q 469 1057 469 1088 l 469 31 q 439 0 469 0 l 397 0 q 367 31 367 0 l 367 529 q 350 636 367 636 q 307 538 335 636 l 168 22 l 168 22 m 308 1189 q 313 1171 313 1178 q 285 1150 313 1150 l 260 1150 q 233 1165 242 1150 l 142 1319 q 133 1343 133 1332 q 168 1365 133 1365 l 206 1365 q 233 1347 224 1365 l 308 1189 l 308 1189 z "},"Ў":{"ha":529,"x_min":29,"x_max":503,"o":"m 29 0 m 399 1067 q 428 1088 406 1088 l 472 1088 q 503 1060 503 1088 q 502 1051 503 1057 q 496 1031 501 1046 l 169 21 q 140 0 163 0 l 96 0 q 64 26 64 0 q 65 35 64 29 q 71 53 67 40 l 199 449 q 204 485 204 464 q 200 514 204 501 l 36 1033 q 31 1053 32 1047 q 29 1061 29 1058 q 61 1088 29 1088 l 101 1088 q 131 1067 124 1088 l 235 735 q 264 693 247 693 q 293 735 278 693 l 399 1067 l 399 1067 m 268 1129 q 162 1148 210 1129 q 88 1226 114 1167 q 72 1271 76 1250 q 68 1304 68 1292 q 96 1339 68 1339 l 125 1339 q 147 1332 140 1339 q 156 1311 153 1325 q 192 1228 168 1253 q 267 1204 215 1204 q 342 1228 318 1204 q 378 1311 365 1253 q 387 1332 381 1325 q 408 1339 393 1339 l 438 1339 q 465 1304 465 1339 q 461 1271 465 1292 q 446 1226 457 1250 q 373 1148 419 1167 q 268 1129 326 1129 z "},"Џ":{"ha":529,"x_min":58,"x_max":469,"o":"m 250 -218 q 219 -187 219 -218 l 219 -31 q 189 0 219 0 l 89 0 q 58 31 58 0 l 58 1057 q 89 1088 58 1088 l 132 1088 q 163 1057 163 1088 l 163 133 q 193 103 163 103 l 336 103 q 367 133 367 103 l 367 1057 q 397 1088 367 1088 l 439 1088 q 469 1057 469 1088 l 469 31 q 439 0 469 0 l 339 0 q 308 -31 308 0 l 308 -187 q 278 -218 308 -218 l 250 -218 l 250 -218 z "},"A":{"ha":529,"x_min":36,"x_max":490,"o":"m 424 0 q 393 26 397 0 l 363 226 q 332 253 358 253 l 193 253 q 163 226 167 253 l 135 26 q 104 0 131 0 l 67 0 q 36 29 36 0 q 37 35 36 31 q 40 61 38 39 l 193 1061 q 224 1088 197 1088 l 304 1088 q 335 1061 331 1088 l 486 61 q 490 35 489 39 q 490 29 490 31 q 460 0 490 0 l 424 0 m 293 688 q 263 779 278 779 q 232 688 246 779 l 193 419 q 189 382 189 394 q 218 356 189 356 l 307 356 q 338 382 338 356 q 333 419 338 394 l 293 688 z "},"Б":{"ha":529,"x_min":58,"x_max":465,"o":"m 393 1088 q 424 1057 424 1088 l 424 1015 q 393 985 424 985 l 193 985 q 163 954 163 985 l 163 631 q 193 600 163 600 l 258 600 q 333 585 296 600 q 400 542 371 571 q 447 469 429 513 q 465 367 465 425 l 465 242 q 447 140 465 185 q 400 63 429 94 q 333 16 371 32 q 258 0 296 0 l 89 0 q 58 31 58 0 l 58 1057 q 89 1088 58 1088 l 393 1088 m 163 143 q 193 113 163 113 l 258 113 q 331 143 301 113 q 360 233 360 174 l 360 376 q 331 467 360 436 q 258 497 301 497 l 193 497 q 163 467 163 497 l 163 143 z "},"Д":{"ha":529,"x_min":14,"x_max":514,"o":"m 454 -218 q 424 -187 424 -218 l 424 -31 q 393 0 424 0 l 133 0 q 103 -31 103 0 l 103 -187 q 72 -218 103 -218 l 44 -218 q 14 -187 14 -218 l 14 72 q 44 103 14 103 q 88 128 75 103 q 106 213 101 154 l 161 1058 q 192 1088 163 1088 l 429 1088 q 460 1057 460 1088 l 460 131 q 468 110 460 114 q 487 103 476 106 q 506 97 497 101 q 514 76 514 92 l 514 -187 q 483 -218 514 -218 l 454 -218 m 357 954 q 326 985 357 985 l 275 985 q 244 956 246 985 l 196 208 q 190 160 193 176 q 188 132 188 144 q 219 103 188 103 l 326 103 q 357 133 357 103 l 357 954 z "},"Ж":{"ha":529,"x_min":32,"x_max":496,"o":"m 492 58 q 495 35 494 39 q 496 28 496 31 q 467 0 496 0 l 422 0 q 392 25 396 0 l 354 247 q 324 354 336 354 q 313 244 313 354 l 313 31 q 282 0 313 0 l 247 0 q 217 31 217 0 l 217 244 q 206 354 217 354 q 175 247 193 354 l 138 25 q 107 0 133 0 l 63 0 q 32 28 32 0 q 33 35 32 31 q 36 58 33 39 l 132 585 q 136 611 135 601 q 138 628 138 621 q 132 664 138 642 l 39 1036 q 35 1054 36 1050 q 35 1061 35 1058 q 65 1088 35 1088 l 103 1088 q 122 1081 114 1088 q 132 1064 129 1075 l 172 901 q 204 824 190 824 q 217 907 217 824 l 217 1057 q 247 1088 217 1088 l 282 1088 q 313 1057 313 1088 l 313 907 q 325 824 313 824 q 357 901 336 824 l 397 1064 q 408 1081 400 1075 q 426 1088 415 1088 l 464 1088 q 494 1061 494 1088 q 494 1054 494 1058 q 490 1036 493 1050 l 396 664 q 390 628 390 642 q 392 611 390 621 q 396 585 393 601 l 492 58 z "},"З":{"ha":529,"x_min":75,"x_max":472,"o":"m 75 0 m 261 994 q 179 953 208 994 q 149 933 167 933 q 131 939 140 933 l 100 956 q 85 979 85 964 q 88 992 85 983 q 163 1071 115 1044 q 261 1097 210 1097 q 335 1083 299 1097 q 401 1040 372 1069 q 449 967 431 1011 q 467 864 467 924 l 467 731 q 452 648 467 685 q 413 583 438 611 q 400 556 400 568 q 414 525 400 539 q 457 456 442 497 q 472 367 472 415 l 472 224 q 455 120 472 164 q 408 47 438 76 q 341 4 379 18 q 261 -10 303 -10 q 183 3 221 -10 q 117 43 146 15 q 88 76 100 58 q 75 104 75 93 q 90 129 75 121 l 125 149 q 135 153 131 151 q 143 154 139 154 q 175 132 161 154 q 261 93 201 93 q 340 122 310 93 q 369 214 369 151 l 369 378 q 340 469 369 440 q 261 497 310 497 q 235 524 235 497 l 235 574 q 240 593 235 586 q 261 600 246 600 q 333 628 304 600 q 363 719 363 657 l 363 872 q 333 965 363 935 q 261 994 304 994 z "},"И":{"ha":529,"x_min":58,"x_max":469,"o":"m 168 22 q 139 0 163 0 l 89 0 q 58 31 58 0 l 58 1057 q 89 1088 58 1088 l 132 1088 q 163 1057 163 1088 l 163 564 q 179 457 163 457 q 222 556 196 457 l 360 1065 q 389 1088 365 1088 l 439 1088 q 469 1057 469 1088 l 469 31 q 439 0 469 0 l 397 0 q 367 31 367 0 l 367 529 q 350 636 367 636 q 307 538 335 636 l 168 22 l 168 22 z "},"Й":{"ha":529,"x_min":58,"x_max":469,"o":"m 58 0 m 168 22 q 139 0 163 0 l 89 0 q 58 31 58 0 l 58 1057 q 89 1088 58 1088 l 132 1088 q 163 1057 163 1088 l 163 564 q 179 457 163 457 q 222 556 196 457 l 360 1065 q 389 1088 365 1088 l 439 1088 q 469 1057 469 1088 l 469 31 q 439 0 469 0 l 397 0 q 367 31 367 0 l 367 529 q 350 636 367 636 q 307 538 335 636 l 168 22 l 168 22 m 265 1129 q 159 1148 207 1129 q 85 1226 111 1167 q 69 1271 74 1250 q 65 1304 65 1292 q 93 1339 65 1339 l 122 1339 q 144 1332 138 1339 q 153 1311 150 1325 q 189 1228 165 1253 q 264 1204 213 1204 q 339 1228 315 1204 q 375 1311 363 1253 q 384 1332 378 1325 q 406 1339 390 1339 l 435 1339 q 463 1304 463 1339 q 458 1271 463 1292 q 443 1226 454 1250 q 370 1148 417 1167 q 265 1129 324 1129 z "},"Л":{"ha":529,"x_min":14,"x_max":469,"o":"m 171 1058 q 201 1088 171 1088 l 439 1088 q 469 1057 469 1088 l 469 31 q 439 0 469 0 l 397 0 q 367 31 367 0 l 367 954 q 336 985 367 985 l 285 985 q 254 956 256 985 l 207 208 q 161 47 200 93 q 44 0 122 0 q 14 31 14 0 l 14 72 q 44 103 14 103 q 94 127 76 103 q 115 213 111 151 l 171 1058 l 171 1058 z "},"У":{"ha":529,"x_min":29,"x_max":503,"o":"m 399 1067 q 428 1088 406 1088 l 472 1088 q 503 1060 503 1088 q 502 1051 503 1057 q 496 1031 501 1046 l 169 21 q 140 0 163 0 l 96 0 q 64 26 64 0 q 65 35 64 29 q 71 53 67 40 l 199 449 q 204 485 204 464 q 200 514 204 501 l 36 1033 q 31 1053 32 1047 q 29 1061 29 1058 q 61 1088 29 1088 l 101 1088 q 131 1067 124 1088 l 235 735 q 264 693 247 693 q 293 735 278 693 l 399 1067 l 399 1067 z "},"Ц":{"ha":529,"x_min":58,"x_max":514,"o":"m 132 1088 q 163 1057 163 1088 l 163 133 q 193 103 163 103 l 336 103 q 367 133 367 103 l 367 1057 q 397 1088 367 1088 l 439 1088 q 469 1057 469 1088 l 469 125 q 476 108 469 113 q 492 102 483 104 q 507 97 500 100 q 514 81 514 93 l 514 -187 q 483 -218 514 -218 l 454 -218 q 424 -187 424 -218 l 424 -31 q 393 0 424 0 l 89 0 q 58 31 58 0 l 58 1057 q 89 1088 58 1088 l 132 1088 l 132 1088 z "},"Ч":{"ha":529,"x_min":58,"x_max":469,"o":"m 58 1057 q 89 1088 58 1088 l 132 1088 q 163 1057 163 1088 l 163 681 q 169 618 163 642 q 190 581 176 594 q 221 564 203 568 q 260 560 239 560 q 338 575 310 560 q 367 610 367 590 l 367 1057 q 397 1088 367 1088 l 439 1088 q 469 1057 469 1088 l 469 31 q 439 0 469 0 l 397 0 q 367 31 367 0 l 367 436 q 338 471 367 471 q 301 464 326 471 q 246 457 276 457 q 167 474 201 457 q 108 523 132 492 q 71 597 83 554 q 58 690 58 640 l 58 1057 z "},"Ш":{"ha":529,"x_min":44,"x_max":485,"o":"m 306 133 q 336 103 306 103 l 356 103 q 386 133 386 103 l 386 1057 q 417 1088 386 1088 l 454 1088 q 485 1057 485 1088 l 485 31 q 454 0 485 0 l 75 0 q 44 31 44 0 l 44 1057 q 75 1088 44 1088 l 111 1088 q 142 1057 142 1088 l 142 133 q 172 103 142 103 l 189 103 q 219 133 219 103 l 219 1057 q 250 1088 219 1088 l 275 1088 q 306 1057 306 1088 l 306 133 l 306 133 z "},"Щ":{"ha":529,"x_min":44,"x_max":514,"o":"m 454 -218 q 424 -187 424 -218 l 424 -31 q 393 0 424 0 l 75 0 q 44 31 44 0 l 44 1057 q 75 1088 44 1088 l 111 1088 q 142 1057 142 1088 l 142 133 q 172 103 142 103 l 189 103 q 219 133 219 103 l 219 1057 q 250 1088 219 1088 l 275 1088 q 306 1057 306 1088 l 306 133 q 336 103 306 103 l 356 103 q 386 133 386 103 l 386 1057 q 417 1088 386 1088 l 454 1088 q 485 1057 485 1088 l 485 118 q 490 107 485 110 q 499 103 494 104 q 509 99 504 101 q 514 89 514 97 l 514 -187 q 483 -218 514 -218 l 454 -218 l 454 -218 z "},"Ъ":{"ha":529,"x_min":0,"x_max":514,"o":"m 31 985 q 0 1015 0 985 l 0 1057 q 31 1088 0 1088 l 181 1088 q 211 1057 211 1088 l 211 631 q 242 600 211 600 l 308 600 q 383 585 346 600 q 449 542 419 571 q 496 469 478 513 q 514 367 514 425 l 514 242 q 496 140 514 185 q 449 63 478 94 q 383 16 419 32 q 308 0 346 0 l 139 0 q 108 31 108 0 l 108 954 q 78 985 108 985 l 31 985 m 211 143 q 242 113 211 113 l 308 113 q 381 143 351 113 q 410 233 410 174 l 410 376 q 381 467 410 436 q 308 497 351 497 l 242 497 q 211 467 211 497 l 211 143 z "},"Ы":{"ha":529,"x_min":26,"x_max":501,"o":"m 397 1057 q 428 1088 397 1088 l 471 1088 q 501 1057 501 1088 l 501 31 q 471 0 501 0 l 428 0 q 397 31 397 0 l 397 1057 m 26 1057 q 57 1088 26 1088 l 100 1088 q 131 1057 131 1088 l 131 622 q 151 600 131 600 q 227 585 190 600 q 293 542 264 571 q 340 469 322 513 q 358 367 358 425 l 358 242 q 340 140 358 185 q 293 63 322 94 q 227 16 264 32 q 151 0 190 0 l 57 0 q 26 31 26 0 l 26 1057 m 131 138 q 151 113 131 113 q 224 143 194 113 q 254 233 254 174 l 254 376 q 224 467 254 436 q 151 497 194 497 q 131 475 131 497 l 131 138 z "},"Ь":{"ha":529,"x_min":58,"x_max":465,"o":"m 58 1057 q 89 1088 58 1088 l 132 1088 q 163 1057 163 1088 l 163 631 q 193 600 163 600 l 258 600 q 333 585 296 600 q 400 542 371 571 q 447 469 429 513 q 465 367 465 425 l 465 242 q 447 140 465 185 q 400 63 429 94 q 333 16 371 32 q 258 0 296 0 l 89 0 q 58 31 58 0 l 58 1057 m 163 143 q 193 113 163 113 l 258 113 q 331 143 301 113 q 360 233 360 174 l 360 376 q 331 467 360 436 q 258 497 301 497 l 193 497 q 163 467 163 497 l 163 143 z "},"Э":{"ha":529,"x_min":60,"x_max":471,"o":"m 336 600 q 367 631 367 600 l 367 872 q 337 964 367 933 q 263 994 307 994 q 190 964 221 994 q 160 872 160 933 l 160 835 q 129 804 160 804 l 89 804 q 68 813 76 804 q 60 835 60 821 l 60 864 q 77 965 60 921 q 124 1038 94 1008 q 190 1082 153 1067 q 265 1097 226 1097 q 340 1082 303 1097 q 406 1038 376 1067 q 453 965 435 1008 q 471 864 471 921 l 471 224 q 453 122 471 165 q 406 49 435 78 q 340 5 376 19 q 265 -10 303 -10 q 190 5 226 -10 q 124 49 153 19 q 77 122 94 78 q 60 224 60 165 l 60 268 q 90 299 60 299 l 129 299 q 160 268 160 299 l 160 214 q 190 124 160 154 q 263 93 221 93 q 337 124 307 93 q 367 214 367 154 l 367 467 q 336 497 367 497 l 157 497 q 126 528 126 497 l 126 569 q 157 600 126 600 l 336 600 z "},"Ю":{"ha":529,"x_min":19,"x_max":510,"o":"m 117 31 q 86 0 117 0 l 50 0 q 19 31 19 0 l 19 1057 q 50 1088 19 1088 l 86 1088 q 117 1057 117 1088 l 117 631 q 147 600 117 600 l 169 600 q 200 631 200 600 l 200 919 q 236 1053 200 1008 q 354 1097 272 1097 q 472 1053 435 1097 q 510 919 510 1008 l 510 168 q 472 35 510 79 q 354 -10 435 -10 q 236 35 272 -10 q 200 168 200 79 l 200 467 q 169 497 200 497 l 147 497 q 117 467 117 497 l 117 31 m 294 158 q 354 93 294 93 q 411 158 411 93 l 411 929 q 354 994 411 994 q 294 929 294 994 l 294 158 z "},"Я":{"ha":529,"x_min":58,"x_max":476,"o":"m 446 1088 q 476 1057 476 1088 l 476 31 q 446 0 476 0 l 403 0 q 372 31 372 0 l 372 472 q 342 503 372 503 l 294 503 q 264 479 268 503 l 164 24 q 133 0 160 0 l 89 0 q 58 29 58 0 q 68 79 58 40 l 163 485 q 165 497 164 492 q 165 508 165 503 q 151 538 165 529 q 85 615 111 565 q 60 736 60 664 l 60 854 q 77 956 60 913 q 124 1029 94 1000 q 190 1073 153 1058 q 265 1088 226 1088 l 446 1088 m 265 985 q 192 954 222 985 q 163 864 163 924 l 163 726 q 192 636 163 667 q 265 606 222 606 l 342 606 q 372 636 372 606 l 372 954 q 342 985 372 985 l 265 985 z "},"Ґ":{"ha":529,"x_min":58,"x_max":482,"o":"m 193 985 q 163 954 163 985 l 163 31 q 132 0 163 0 l 89 0 q 58 31 58 0 l 58 1057 q 89 1088 58 1088 l 363 1088 q 393 1118 393 1088 l 393 1274 q 424 1304 393 1304 l 451 1304 q 482 1274 482 1304 l 482 1015 q 451 985 482 985 l 193 985 l 193 985 z "},"Ғ":{"ha":529,"x_min":0,"x_max":482,"o":"m 360 533 q 329 503 360 503 l 193 503 q 163 472 163 503 l 163 31 q 132 0 163 0 l 89 0 q 58 31 58 0 l 58 474 q 49 495 58 490 q 29 503 40 500 q 9 510 18 506 q 0 532 0 515 l 0 567 q 9 588 0 583 q 29 596 18 593 q 49 603 40 599 q 58 625 58 608 l 58 1057 q 89 1088 58 1088 l 451 1088 q 482 1057 482 1088 l 482 1015 q 451 985 482 985 l 193 985 q 163 954 163 985 l 163 626 q 193 596 163 596 l 329 596 q 360 565 360 596 l 360 533 l 360 533 z "},"Җ":{"ha":529,"x_min":32,"x_max":514,"o":"m 354 247 q 324 354 336 354 q 313 244 313 354 l 313 31 q 282 0 313 0 l 247 0 q 217 31 217 0 l 217 244 q 206 354 217 354 q 175 247 193 354 l 138 25 q 107 0 133 0 l 63 0 q 32 28 32 0 q 33 35 32 31 q 36 58 33 39 l 132 585 q 136 611 135 601 q 138 628 138 621 q 132 664 138 642 l 39 1036 q 35 1054 36 1050 q 35 1061 35 1058 q 65 1088 35 1088 l 103 1088 q 122 1081 114 1088 q 132 1064 129 1075 l 172 901 q 204 824 190 824 q 217 907 217 824 l 217 1057 q 247 1088 217 1088 l 282 1088 q 313 1057 313 1088 l 313 907 q 325 824 313 824 q 357 901 336 824 l 397 1064 q 408 1081 400 1075 q 426 1088 415 1088 l 464 1088 q 494 1061 494 1088 q 494 1054 494 1058 q 490 1036 493 1050 l 396 664 q 390 628 390 642 q 392 611 390 621 q 396 585 393 601 l 481 118 q 488 107 482 110 q 499 103 493 104 q 509 99 504 101 q 514 88 514 96 l 514 -187 q 483 -218 514 -218 l 454 -218 q 424 -187 424 -218 l 424 -14 q 419 -3 424 -6 q 410 0 415 -1 q 399 3 404 1 q 393 14 394 6 l 354 247 z "},"Ҙ":{"ha":529,"x_min":75,"x_max":472,"o":"m 472 224 q 440 88 472 140 q 357 11 407 35 q 338 -19 338 1 l 338 -153 q 214 -301 338 -301 l 175 -301 q 144 -271 144 -301 l 144 -229 q 175 -199 144 -199 l 213 -199 q 247 -156 247 -199 l 247 -39 q 218 -7 247 -11 q 117 43 163 1 q 88 76 100 58 q 75 104 75 93 q 90 129 75 121 l 125 149 q 135 153 131 151 q 143 154 139 154 q 175 132 161 154 q 261 93 201 93 q 340 122 310 93 q 369 214 369 151 l 369 378 q 340 469 369 440 q 261 497 310 497 q 235 524 235 497 l 235 574 q 240 593 235 586 q 261 600 246 600 q 333 628 304 600 q 363 719 363 657 l 363 872 q 333 965 363 935 q 261 994 304 994 q 179 953 208 994 q 149 933 167 933 q 131 939 140 933 l 100 956 q 85 979 85 964 q 88 992 85 983 q 163 1071 115 1044 q 261 1097 210 1097 q 335 1083 299 1097 q 401 1040 372 1069 q 449 967 431 1011 q 467 864 467 924 l 467 731 q 452 648 467 685 q 413 583 438 611 q 400 556 400 568 q 414 525 400 539 q 457 456 442 497 q 472 367 472 415 l 472 224 z "},"Қ":{"ha":529,"x_min":58,"x_max":514,"o":"m 422 122 q 451 103 429 103 l 483 103 q 514 72 514 103 l 514 -187 q 483 -218 514 -218 l 454 -218 q 424 -187 424 -218 l 424 -31 q 414 -10 424 -15 q 392 -1 404 -4 q 367 6 379 3 q 351 19 356 8 l 221 351 q 179 417 194 417 q 163 340 163 417 l 163 31 q 132 0 163 0 l 89 0 q 58 31 58 0 l 58 1057 q 89 1088 58 1088 l 132 1088 q 163 1057 163 1088 l 163 842 q 181 783 163 783 q 219 826 197 783 l 353 1071 q 379 1088 363 1088 l 421 1088 q 454 1064 454 1088 q 447 1042 454 1056 l 236 658 q 228 628 228 642 q 232 603 228 615 l 422 122 z "},"Ҡ":{"ha":529,"x_min":0,"x_max":513,"o":"m 275 351 q 233 417 250 417 q 217 340 217 417 l 217 31 q 186 0 217 0 l 143 0 q 113 31 113 0 l 113 954 q 82 985 113 985 l 31 985 q 0 1015 0 985 l 0 1057 q 31 1088 0 1088 l 186 1088 q 217 1057 217 1088 l 217 842 q 235 783 217 783 q 274 826 251 783 l 407 1071 q 433 1088 417 1088 l 475 1088 q 508 1064 508 1088 q 501 1042 508 1056 l 290 658 q 282 628 282 642 q 286 603 282 615 l 510 42 q 513 33 513 38 q 513 25 513 28 q 482 0 513 0 l 433 0 q 406 19 413 0 l 275 351 z "},"Ң":{"ha":529,"x_min":58,"x_max":514,"o":"m 132 1088 q 163 1057 163 1088 l 163 631 q 193 600 163 600 l 336 600 q 367 631 367 600 l 367 1057 q 397 1088 367 1088 l 439 1088 q 469 1057 469 1088 l 469 125 q 476 108 469 113 q 492 102 483 104 q 507 97 500 100 q 514 81 514 93 l 514 -187 q 483 -218 514 -218 l 454 -218 q 424 -187 424 -218 l 424 -29 q 415 -8 424 -12 q 395 0 406 -3 q 376 8 385 3 q 367 29 367 13 l 367 467 q 336 497 367 497 l 193 497 q 163 467 163 497 l 163 31 q 132 0 163 0 l 89 0 q 58 31 58 0 l 58 1057 q 89 1088 58 1088 l 132 1088 l 132 1088 z "},"Ҫ":{"ha":529,"x_min":58,"x_max":469,"o":"m 58 864 q 76 965 58 921 q 124 1038 94 1008 q 190 1082 153 1067 q 264 1097 226 1097 q 340 1082 303 1097 q 406 1038 376 1067 q 452 965 435 1008 q 469 864 469 921 l 469 835 q 461 813 469 821 q 440 804 453 804 l 400 804 q 369 835 369 804 l 369 872 q 339 964 369 933 q 267 994 308 994 q 192 964 222 994 q 163 872 163 933 l 163 214 q 192 124 163 154 q 267 93 222 93 q 339 124 308 93 q 369 214 369 154 l 369 268 q 400 299 369 299 l 439 299 q 469 268 469 299 l 469 224 q 435 89 469 142 q 353 11 401 36 q 333 -18 333 1 l 333 -153 q 210 -301 333 -301 l 171 -301 q 140 -271 140 -301 l 140 -229 q 171 -199 140 -199 l 208 -199 q 243 -156 243 -199 l 243 -36 q 217 -4 243 -8 q 156 22 185 4 q 106 69 128 40 q 71 136 83 97 q 58 224 58 175 l 58 864 z "},"Ұ":{"ha":529,"x_min":51,"x_max":474,"o":"m 444 485 q 414 454 444 454 l 346 454 q 315 424 315 454 l 315 31 q 285 0 315 0 l 242 0 q 211 31 211 0 l 211 424 q 181 454 211 454 l 114 454 q 83 485 83 454 l 83 518 q 114 549 83 549 l 167 549 q 196 575 196 549 q 194 591 196 582 q 188 617 193 600 l 63 1019 q 51 1061 51 1056 q 83 1088 51 1088 l 126 1088 q 156 1065 149 1088 l 233 803 q 263 758 246 758 q 292 803 276 758 l 372 1065 q 401 1088 379 1088 l 443 1088 q 474 1061 474 1088 q 472 1047 474 1058 q 464 1019 469 1036 l 339 617 q 329 575 329 586 q 360 549 329 549 l 414 549 q 444 518 444 549 l 444 485 l 444 485 z "},"Ҳ":{"ha":529,"x_min":40,"x_max":529,"o":"m 457 125 q 486 103 464 103 l 499 103 q 529 72 529 103 l 529 -187 q 499 -218 529 -218 l 471 -218 q 440 -187 440 -218 l 440 -29 q 411 0 440 0 l 406 0 q 387 6 394 0 q 376 22 379 11 l 290 328 q 261 375 278 375 q 232 328 244 375 l 147 22 q 137 6 144 11 q 118 0 129 0 l 72 0 q 40 26 40 0 q 42 39 40 35 l 189 531 q 196 568 196 554 q 192 593 196 581 l 57 1049 q 54 1061 54 1057 q 86 1088 54 1088 l 126 1088 q 157 1065 150 1088 l 240 771 q 269 724 253 724 q 300 771 288 724 l 382 1065 q 392 1082 385 1076 q 411 1088 400 1088 l 451 1088 q 482 1061 482 1088 q 481 1049 482 1053 l 343 576 q 338 543 338 558 q 338 526 338 533 q 342 507 339 518 l 457 125 z "},"Ҷ":{"ha":529,"x_min":58,"x_max":514,"o":"m 58 1057 q 89 1088 58 1088 l 132 1088 q 163 1057 163 1088 l 163 681 q 169 618 163 642 q 190 581 176 594 q 221 564 203 568 q 260 560 239 560 q 338 575 310 560 q 367 610 367 590 l 367 1057 q 397 1088 367 1088 l 439 1088 q 469 1057 469 1088 l 469 125 q 476 108 469 113 q 492 102 483 104 q 507 97 500 100 q 514 81 514 93 l 514 -187 q 483 -218 514 -218 l 454 -218 q 424 -187 424 -218 l 424 -29 q 415 -8 424 -12 q 395 0 406 -3 q 376 8 385 3 q 367 29 367 13 l 367 436 q 338 471 367 471 q 300 464 321 471 q 246 457 279 457 q 167 474 201 457 q 108 523 132 492 q 71 597 83 554 q 58 690 58 640 l 58 1057 z "},"Һ":{"ha":529,"x_min":60,"x_max":471,"o":"m 471 31 q 440 0 471 0 l 397 0 q 367 31 367 0 l 367 407 q 360 469 367 446 q 340 506 353 493 q 308 524 326 519 q 269 528 290 528 q 191 513 219 528 q 163 478 163 497 l 163 31 q 132 0 163 0 l 90 0 q 60 31 60 0 l 60 1057 q 90 1088 60 1088 l 132 1088 q 163 1057 163 1088 l 163 651 q 192 617 163 617 q 228 624 203 617 q 283 631 253 631 q 363 613 328 631 q 422 563 397 594 q 458 490 446 532 q 471 397 471 447 l 471 31 z "},"Ӄ":{"ha":529,"x_min":58,"x_max":485,"o":"m 132 1088 q 163 1057 163 1088 l 163 842 q 178 783 163 788 q 219 826 194 779 l 353 1071 q 379 1088 363 1088 l 421 1088 q 451 1075 444 1088 q 447 1042 458 1063 l 228 643 q 226 617 221 632 l 472 0 q 482 -37 479 -18 q 485 -76 485 -57 q 472 -157 485 -117 q 433 -229 458 -197 q 369 -281 407 -261 q 279 -301 331 -301 l 238 -301 q 207 -271 207 -301 l 207 -229 q 238 -199 207 -199 l 279 -199 q 352 -169 326 -199 q 378 -92 378 -140 q 374 -49 378 -72 q 358 0 369 -25 l 221 351 q 178 417 194 419 q 163 340 163 414 l 163 31 q 132 0 163 0 l 89 0 q 58 31 58 0 l 58 1057 q 89 1088 58 1088 l 132 1088 l 132 1088 z "},"Ӈ":{"ha":529,"x_min":58,"x_max":469,"o":"m 132 1088 q 163 1057 163 1088 l 163 631 q 193 600 163 600 l 336 600 q 367 631 367 600 l 367 1057 q 397 1088 367 1088 l 439 1088 q 469 1057 469 1088 l 469 -68 q 452 -170 469 -126 q 406 -243 435 -214 q 340 -287 376 -272 q 264 -301 303 -301 l 193 -301 q 163 -271 163 -301 l 163 -229 q 193 -199 163 -199 l 263 -199 q 336 -168 306 -199 q 367 -78 367 -137 l 367 467 q 336 497 367 497 l 193 497 q 163 467 163 497 l 163 31 q 132 0 163 0 l 89 0 q 58 31 58 0 l 58 1057 q 89 1088 58 1088 l 132 1088 l 132 1088 z "},"Ӣ":{"ha":529,"x_min":58,"x_max":469,"o":"m 58 0 m 168 22 q 139 0 163 0 l 89 0 q 58 31 58 0 l 58 1057 q 89 1088 58 1088 l 132 1088 q 163 1057 163 1088 l 163 564 q 179 457 163 457 q 222 556 196 457 l 360 1065 q 389 1088 365 1088 l 439 1088 q 469 1057 469 1088 l 469 31 q 439 0 469 0 l 397 0 q 367 31 367 0 l 367 529 q 350 636 367 636 q 307 538 335 636 l 168 22 l 168 22 m 444 1218 q 414 1188 444 1188 l 114 1188 q 83 1218 83 1188 l 83 1251 q 114 1282 83 1282 l 414 1282 q 444 1251 444 1282 l 444 1218 l 444 1218 z "},"Ө":{"ha":529,"x_min":58,"x_max":469,"o":"m 58 910 q 221 1088 58 1088 l 308 1088 q 469 910 469 1088 l 469 176 q 308 0 469 0 l 221 0 q 58 176 58 0 l 58 910 m 308 103 q 367 168 367 103 l 367 467 q 336 497 367 497 l 193 497 q 163 467 163 497 l 163 168 q 221 103 163 103 l 308 103 m 163 631 q 193 600 163 600 l 336 600 q 367 631 367 600 l 367 919 q 308 985 367 985 l 221 985 q 163 919 163 985 l 163 631 z "},"Ӯ":{"ha":529,"x_min":29,"x_max":503,"o":"m 29 0 m 399 1067 q 428 1088 406 1088 l 472 1088 q 503 1060 503 1088 q 502 1051 503 1057 q 496 1031 501 1046 l 169 21 q 140 0 163 0 l 96 0 q 64 26 64 0 q 65 35 64 29 q 71 53 67 40 l 199 449 q 204 485 204 464 q 200 514 204 501 l 36 1033 q 31 1053 32 1047 q 29 1061 29 1058 q 61 1088 29 1088 l 101 1088 q 131 1067 124 1088 l 235 735 q 264 693 247 693 q 293 735 278 693 l 399 1067 l 399 1067 m 447 1218 q 417 1188 447 1188 l 117 1188 q 86 1218 86 1188 l 86 1251 q 117 1282 86 1282 l 417 1282 q 447 1251 447 1282 l 447 1218 l 447 1218 z "},"Ԓ":{"ha":529,"x_min":14,"x_max":469,"o":"m 171 1058 q 201 1088 171 1088 l 439 1088 q 469 1057 469 1088 l 469 -68 q 452 -170 469 -126 q 406 -243 435 -214 q 340 -287 376 -272 q 264 -301 303 -301 l 193 -301 q 163 -271 163 -301 l 163 -229 q 193 -199 163 -199 l 263 -199 q 336 -168 306 -199 q 367 -78 367 -137 l 367 954 q 336 985 367 985 l 285 985 q 254 956 256 985 l 207 208 q 162 47 200 93 q 49 0 124 0 q 22 6 31 0 q 14 31 14 13 l 14 72 q 44 103 14 103 q 94 127 76 103 q 115 213 111 151 l 171 1058 l 171 1058 z "},"֏":{"ha":529,"x_min":44,"x_max":514,"o":"m 514 301 q 505 280 514 285 q 485 272 496 275 q 465 265 474 269 q 456 243 456 260 l 456 31 q 425 0 456 0 l 383 0 q 353 31 353 0 l 353 242 q 322 272 353 272 l 140 272 q 110 303 110 272 l 110 335 q 140 365 110 365 l 322 365 q 353 396 353 365 l 353 458 q 322 489 353 489 l 140 489 q 110 519 110 489 l 110 551 q 140 582 110 582 l 322 582 q 353 613 353 582 l 353 874 q 322 964 353 933 q 249 994 292 994 q 174 964 204 994 q 144 874 144 933 l 144 819 q 114 789 144 789 l 75 789 q 44 819 44 789 l 44 864 q 62 966 44 922 q 108 1039 79 1010 q 174 1083 138 1068 q 250 1097 211 1097 q 326 1083 289 1097 q 392 1039 363 1068 q 438 966 421 1010 q 456 864 456 922 l 456 611 q 465 590 456 594 q 485 582 474 585 q 505 574 496 579 q 514 553 514 569 l 514 518 q 505 497 514 501 q 485 489 496 492 q 465 481 474 486 q 456 460 456 476 l 456 394 q 465 373 456 378 q 485 365 474 368 q 505 358 496 363 q 514 336 514 353 l 514 301 l 514 301 z "},"Ḍ":{"ha":529,"x_min":38,"x_max":489,"o":"m 38 0 m 221 985 q 190 954 190 985 l 190 133 q 221 103 190 103 l 283 103 q 356 133 326 103 q 385 224 385 164 l 385 864 q 356 954 385 924 q 283 985 326 985 l 221 985 m 68 0 q 38 31 38 0 l 38 78 q 45 96 38 92 q 63 103 53 100 q 80 110 72 106 q 88 128 88 114 l 88 960 q 80 978 88 974 q 63 985 72 982 q 45 992 53 988 q 38 1010 38 996 l 38 1057 q 68 1088 38 1088 l 283 1088 q 358 1073 321 1088 q 424 1029 394 1058 q 471 956 453 1000 q 489 854 489 913 l 489 233 q 471 131 489 175 q 424 58 453 88 q 358 15 394 29 q 283 0 321 0 l 68 0 m 301 -162 q 271 -193 301 -193 l 228 -193 q 197 -162 197 -193 l 197 -106 q 228 -75 197 -75 l 271 -75 q 301 -106 301 -75 l 301 -162 l 301 -162 z "},"Ḓ":{"ha":529,"x_min":38,"x_max":489,"o":"m 38 0 m 221 985 q 190 954 190 985 l 190 133 q 221 103 190 103 l 283 103 q 356 133 326 103 q 385 224 385 164 l 385 864 q 356 954 385 924 q 283 985 326 985 l 221 985 m 68 0 q 38 31 38 0 l 38 78 q 45 96 38 92 q 63 103 53 100 q 80 110 72 106 q 88 128 88 114 l 88 960 q 80 978 88 974 q 63 985 72 982 q 45 992 53 988 q 38 1010 38 996 l 38 1057 q 68 1088 38 1088 l 283 1088 q 358 1073 321 1088 q 424 1029 394 1058 q 471 956 453 1000 q 489 854 489 913 l 489 233 q 471 131 489 175 q 424 58 453 88 q 358 15 394 29 q 283 0 321 0 l 68 0 m 339 -278 q 314 -264 319 -278 l 275 -203 q 249 -185 263 -185 q 224 -203 233 -185 l 185 -264 q 160 -278 179 -278 l 129 -278 q 100 -258 100 -278 q 107 -237 100 -249 l 208 -79 q 236 -62 218 -62 l 264 -62 q 292 -79 281 -62 l 393 -237 q 400 -258 400 -249 q 371 -278 400 -278 l 339 -278 l 339 -278 z "},"Ḥ":{"ha":529,"x_min":58,"x_max":469,"o":"m 58 0 m 132 1088 q 163 1057 163 1088 l 163 631 q 193 600 163 600 l 336 600 q 367 631 367 600 l 367 1057 q 397 1088 367 1088 l 439 1088 q 469 1057 469 1088 l 469 31 q 439 0 469 0 l 397 0 q 367 31 367 0 l 367 467 q 336 497 367 497 l 193 497 q 163 467 163 497 l 163 31 q 132 0 163 0 l 89 0 q 58 31 58 0 l 58 1057 q 89 1088 58 1088 l 132 1088 l 132 1088 m 317 -162 q 286 -193 317 -193 l 243 -193 q 213 -162 213 -193 l 213 -106 q 243 -75 213 -75 l 286 -75 q 317 -106 317 -75 l 317 -162 l 317 -162 z "},"Ḽ":{"ha":529,"x_min":58,"x_max":482,"o":"m 58 0 m 451 103 q 482 72 482 103 l 482 31 q 451 0 482 0 l 89 0 q 58 31 58 0 l 58 1057 q 89 1088 58 1088 l 132 1088 q 163 1057 163 1088 l 163 133 q 193 103 163 103 l 451 103 l 451 103 m 361 -278 q 336 -264 342 -278 l 297 -203 q 271 -185 285 -185 q 246 -203 256 -185 l 207 -264 q 182 -278 201 -278 l 151 -278 q 122 -258 122 -278 q 129 -237 122 -249 l 231 -79 q 258 -62 240 -62 l 286 -62 q 314 -79 303 -62 l 415 -237 q 422 -258 422 -249 q 393 -278 422 -278 l 361 -278 l 361 -278 z "},"Ṅ":{"ha":529,"x_min":58,"x_max":469,"o":"m 58 0 m 469 31 q 439 0 469 0 l 389 0 q 358 22 365 0 l 219 518 q 176 611 193 611 q 160 510 160 611 l 160 31 q 129 0 160 0 l 89 0 q 58 31 58 0 l 58 1057 q 89 1088 58 1088 l 147 1088 q 166 1082 158 1088 q 176 1065 174 1076 l 310 582 q 353 486 336 486 q 369 590 369 486 l 369 1057 q 400 1088 369 1088 l 439 1088 q 469 1057 469 1088 l 469 31 l 469 31 m 317 1194 q 286 1164 317 1164 l 243 1164 q 213 1194 213 1164 l 213 1251 q 243 1282 213 1282 l 286 1282 q 317 1251 317 1282 l 317 1194 l 317 1194 z "},"Ṋ":{"ha":529,"x_min":58,"x_max":469,"o":"m 58 0 m 469 31 q 439 0 469 0 l 389 0 q 358 22 365 0 l 219 518 q 176 611 193 611 q 160 510 160 611 l 160 31 q 129 0 160 0 l 89 0 q 58 31 58 0 l 58 1057 q 89 1088 58 1088 l 147 1088 q 166 1082 158 1088 q 176 1065 174 1076 l 310 582 q 353 486 336 486 q 369 590 369 486 l 369 1057 q 400 1088 369 1088 l 439 1088 q 469 1057 469 1088 l 469 31 l 469 31 m 353 -278 q 328 -264 333 -278 l 289 -203 q 263 -185 276 -185 q 238 -203 247 -185 l 199 -264 q 174 -278 193 -278 l 143 -278 q 114 -258 114 -278 q 121 -237 114 -249 l 222 -79 q 250 -62 232 -62 l 278 -62 q 306 -79 294 -62 l 407 -237 q 414 -258 414 -249 q 385 -278 414 -278 l 353 -278 l 353 -278 z "},"Ṛ":{"ha":529,"x_min":53,"x_max":471,"o":"m 53 0 m 157 31 q 126 0 157 0 l 83 0 q 53 31 53 0 l 53 1057 q 83 1088 53 1088 l 264 1088 q 340 1073 303 1088 q 406 1029 376 1058 q 452 956 435 1000 q 469 854 469 913 l 469 736 q 444 615 469 664 q 378 538 418 565 q 364 508 364 529 q 365 497 364 503 q 367 485 365 492 l 461 79 q 471 29 471 40 q 440 0 471 0 l 396 0 q 365 24 369 0 l 265 479 q 235 503 261 503 l 188 503 q 157 472 157 503 l 157 31 m 188 985 q 157 954 157 985 l 157 636 q 188 606 157 606 l 264 606 q 337 636 307 606 q 367 726 367 667 l 367 864 q 337 954 367 924 q 264 985 307 985 l 188 985 m 317 -162 q 286 -193 317 -193 l 243 -193 q 213 -162 213 -193 l 213 -106 q 243 -75 213 -75 l 286 -75 q 317 -106 317 -75 l 317 -162 l 317 -162 z "},"Ṭ":{"ha":529,"x_min":47,"x_max":482,"o":"m 47 0 m 451 1088 q 482 1057 482 1088 l 482 1015 q 451 985 482 985 l 344 985 q 314 954 314 985 l 314 31 q 283 0 314 0 l 240 0 q 210 31 210 0 l 210 954 q 179 985 210 985 l 78 985 q 47 1015 47 985 l 47 1057 q 78 1088 47 1088 l 451 1088 l 451 1088 m 317 -162 q 286 -193 317 -193 l 243 -193 q 213 -162 213 -193 l 213 -106 q 243 -75 213 -75 l 286 -75 q 317 -106 317 -75 l 317 -162 l 317 -162 z "},"Ẁ":{"ha":529,"x_min":21,"x_max":508,"o":"m 21 0 m 21 1056 q 51 1088 21 1088 l 90 1088 q 121 1058 118 1088 l 154 501 q 174 422 158 422 q 207 497 188 422 l 243 650 q 265 667 247 667 q 286 650 282 667 l 322 497 q 353 422 339 422 q 372 501 368 422 l 407 1058 q 438 1088 410 1088 l 478 1088 q 508 1056 508 1088 l 449 29 q 418 0 446 0 l 369 0 q 339 25 343 0 l 294 243 q 264 308 279 308 q 235 243 247 308 l 190 25 q 160 0 186 0 l 110 0 q 79 29 82 0 l 21 1056 l 21 1056 m 308 1189 q 313 1171 313 1178 q 285 1150 313 1150 l 260 1150 q 233 1165 242 1150 l 142 1319 q 133 1343 133 1332 q 168 1365 133 1365 l 206 1365 q 233 1347 224 1365 l 308 1189 l 308 1189 z "},"Ẃ":{"ha":529,"x_min":21,"x_max":508,"o":"m 21 0 m 21 1056 q 51 1088 21 1088 l 90 1088 q 121 1058 118 1088 l 154 501 q 174 422 158 422 q 207 497 188 422 l 243 650 q 265 667 247 667 q 286 650 282 667 l 322 497 q 353 422 339 422 q 372 501 368 422 l 407 1058 q 438 1088 410 1088 l 478 1088 q 508 1056 508 1088 l 449 29 q 418 0 446 0 l 369 0 q 339 25 343 0 l 294 243 q 264 308 279 308 q 235 243 247 308 l 190 25 q 160 0 186 0 l 110 0 q 79 29 82 0 l 21 1056 l 21 1056 m 361 1365 q 396 1343 396 1365 q 388 1319 396 1332 l 296 1165 q 269 1150 288 1150 l 244 1150 q 217 1171 217 1150 q 221 1189 217 1178 l 296 1347 q 324 1365 304 1365 l 361 1365 l 361 1365 z "},"Ẅ":{"ha":529,"x_min":21,"x_max":508,"o":"m 21 0 m 21 1056 q 51 1088 21 1088 l 90 1088 q 121 1058 118 1088 l 154 501 q 174 422 158 422 q 207 497 188 422 l 243 650 q 265 667 247 667 q 286 650 282 667 l 322 497 q 353 422 339 422 q 372 501 368 422 l 407 1058 q 438 1088 410 1088 l 478 1088 q 508 1056 508 1088 l 449 29 q 418 0 446 0 l 369 0 q 339 25 343 0 l 294 243 q 264 308 279 308 q 235 243 247 308 l 190 25 q 160 0 186 0 l 110 0 q 79 29 82 0 l 21 1056 l 21 1056 m 190 1194 q 160 1164 190 1164 l 118 1164 q 88 1194 88 1164 l 88 1251 q 118 1282 88 1282 l 160 1282 q 190 1251 190 1282 l 190 1194 m 440 1194 q 410 1164 440 1164 l 367 1164 q 336 1194 336 1164 l 336 1251 q 367 1282 336 1282 l 410 1282 q 440 1251 440 1282 l 440 1194 z "},"Ẓ":{"ha":529,"x_min":58,"x_max":478,"o":"m 58 0 m 447 103 q 478 72 478 103 l 478 31 q 447 0 478 0 l 89 0 q 58 31 58 0 l 58 83 q 60 106 58 99 q 65 126 61 114 l 353 944 q 356 958 356 956 q 324 985 356 985 l 89 985 q 58 1015 58 985 l 58 1057 q 89 1088 58 1088 l 447 1088 q 478 1057 478 1088 l 478 1013 q 476 985 478 996 q 467 957 474 975 l 179 143 q 177 135 178 139 q 176 128 176 132 q 208 103 176 103 l 447 103 l 447 103 m 317 -162 q 286 -193 317 -193 l 243 -193 q 213 -162 213 -193 l 213 -106 q 243 -75 213 -75 l 286 -75 q 317 -106 317 -75 l 317 -162 l 317 -162 z "},"ẞ":{"ha":529,"x_min":58,"x_max":483,"o":"m 428 1088 q 458 1057 458 1088 l 458 1014 q 447 954 458 990 l 349 657 q 342 635 344 644 q 339 618 339 625 q 361 589 339 597 q 450 515 417 568 q 483 367 483 463 l 483 233 q 466 130 483 174 q 419 57 449 86 q 352 14 390 28 q 272 0 314 0 l 246 0 q 218 28 218 0 l 218 76 q 246 103 218 103 l 272 103 q 351 132 321 103 q 381 224 381 161 l 381 378 q 351 469 381 440 q 263 497 321 497 q 229 528 229 497 l 229 576 q 231 603 229 592 q 239 629 233 614 l 338 926 q 344 957 344 947 q 314 985 344 985 l 264 985 q 192 954 221 985 q 163 864 163 924 l 163 31 q 132 0 163 0 l 89 0 q 58 31 58 0 l 58 854 q 76 956 58 913 q 124 1029 94 1000 q 190 1073 153 1058 q 264 1088 226 1088 l 428 1088 z "},"Ạ":{"ha":529,"x_min":36,"x_max":490,"o":"m 36 0 m 424 0 q 393 26 397 0 l 363 226 q 332 253 358 253 l 193 253 q 163 226 167 253 l 135 26 q 104 0 131 0 l 67 0 q 36 29 36 0 q 37 35 36 31 q 40 61 38 39 l 193 1061 q 224 1088 197 1088 l 304 1088 q 335 1061 331 1088 l 486 61 q 490 35 489 39 q 490 29 490 31 q 460 0 490 0 l 424 0 m 293 688 q 263 779 278 779 q 232 688 246 779 l 193 419 q 189 382 189 394 q 218 356 189 356 l 307 356 q 338 382 338 356 q 333 419 338 394 l 293 688 m 317 -162 q 286 -193 317 -193 l 243 -193 q 213 -162 213 -193 l 213 -106 q 243 -75 213 -75 l 286 -75 q 317 -106 317 -75 l 317 -162 l 317 -162 z "},"Ả":{"ha":529,"x_min":36,"x_max":490,"o":"m 36 0 m 424 0 q 393 26 397 0 l 363 226 q 332 253 358 253 l 193 253 q 163 226 167 253 l 135 26 q 104 0 131 0 l 67 0 q 36 29 36 0 q 37 35 36 31 q 40 61 38 39 l 193 1061 q 224 1088 197 1088 l 304 1088 q 335 1061 331 1088 l 486 61 q 490 35 489 39 q 490 29 490 31 q 460 0 490 0 l 424 0 m 293 688 q 263 779 278 779 q 232 688 246 779 l 193 419 q 189 382 189 394 q 218 356 189 356 l 307 356 q 338 382 338 356 q 333 419 338 394 l 293 688 m 353 1182 q 328 1160 342 1171 q 304 1135 315 1150 q 264 1113 289 1113 q 236 1133 236 1113 q 272 1192 236 1153 q 299 1224 292 1211 q 307 1251 307 1236 q 296 1279 307 1271 q 265 1288 285 1288 q 238 1283 249 1288 q 218 1272 226 1278 q 203 1262 210 1267 q 189 1257 197 1257 q 162 1272 174 1257 q 150 1297 150 1286 q 159 1319 150 1307 q 184 1341 168 1331 q 222 1358 200 1351 q 268 1365 243 1365 q 351 1338 315 1365 q 386 1257 386 1310 q 353 1182 386 1215 z "},"Ấ":{"ha":529,"x_min":36,"x_max":538,"o":"m 36 0 m 424 0 q 393 26 397 0 l 363 226 q 332 253 358 253 l 193 253 q 163 226 167 253 l 135 26 q 104 0 131 0 l 67 0 q 36 29 36 0 q 37 35 36 31 q 40 61 38 39 l 193 1061 q 224 1088 197 1088 l 304 1088 q 335 1061 331 1088 l 486 61 q 490 35 489 39 q 490 29 490 31 q 460 0 490 0 l 424 0 m 293 688 q 263 779 278 779 q 232 688 246 779 l 193 419 q 189 382 189 394 q 218 356 189 356 l 307 356 q 338 382 338 356 q 333 419 338 394 l 293 688 m 344 1150 q 319 1164 325 1150 l 281 1225 q 254 1243 268 1243 q 229 1225 239 1243 l 190 1164 q 165 1150 185 1150 l 135 1150 q 106 1169 106 1150 q 113 1190 106 1179 l 214 1349 q 242 1365 224 1365 l 269 1365 q 297 1349 286 1365 l 399 1190 q 406 1169 406 1179 q 376 1150 406 1150 l 344 1150 l 344 1150 m 503 1521 q 538 1499 538 1521 q 529 1475 538 1488 l 438 1321 q 411 1306 429 1306 l 386 1306 q 358 1326 358 1306 q 363 1344 358 1333 l 438 1503 q 465 1521 446 1521 l 503 1521 l 503 1521 z "},"Ầ":{"ha":529,"x_min":36,"x_max":500,"o":"m 36 0 m 424 0 q 393 26 397 0 l 363 226 q 332 253 358 253 l 193 253 q 163 226 167 253 l 135 26 q 104 0 131 0 l 67 0 q 36 29 36 0 q 37 35 36 31 q 40 61 38 39 l 193 1061 q 224 1088 197 1088 l 304 1088 q 335 1061 331 1088 l 486 61 q 490 35 489 39 q 490 29 490 31 q 460 0 490 0 l 424 0 m 293 688 q 263 779 278 779 q 232 688 246 779 l 193 419 q 189 382 189 394 q 218 356 189 356 l 307 356 q 338 382 338 356 q 333 419 338 394 l 293 688 m 353 1150 q 328 1164 333 1150 l 289 1225 q 263 1243 276 1243 q 238 1225 247 1243 l 199 1164 q 174 1150 193 1150 l 143 1150 q 114 1169 114 1150 q 121 1190 114 1179 l 222 1349 q 250 1365 232 1365 l 278 1365 q 306 1349 294 1365 l 407 1190 q 414 1169 414 1179 q 385 1150 414 1150 l 353 1150 l 353 1150 m 496 1344 q 500 1326 500 1333 q 472 1306 500 1306 l 447 1306 q 421 1321 429 1306 l 329 1475 q 321 1499 321 1488 q 356 1521 321 1521 l 393 1521 q 421 1503 411 1521 l 496 1344 l 496 1344 z "},"Ẩ":{"ha":529,"x_min":36,"x_max":529,"o":"m 36 0 m 424 0 q 393 26 397 0 l 363 226 q 332 253 358 253 l 193 253 q 163 226 167 253 l 135 26 q 104 0 131 0 l 67 0 q 36 29 36 0 q 37 35 36 31 q 40 61 38 39 l 193 1061 q 224 1088 197 1088 l 304 1088 q 335 1061 331 1088 l 486 61 q 490 35 489 39 q 490 29 490 31 q 460 0 490 0 l 424 0 m 293 688 q 263 779 278 779 q 232 688 246 779 l 193 419 q 189 382 189 394 q 218 356 189 356 l 307 356 q 338 382 338 356 q 333 419 338 394 l 293 688 m 353 1150 q 328 1164 333 1150 l 289 1225 q 263 1243 276 1243 q 238 1225 247 1243 l 199 1164 q 174 1150 193 1150 l 143 1150 q 114 1169 114 1150 q 121 1190 114 1179 l 222 1349 q 250 1365 232 1365 l 278 1365 q 306 1349 294 1365 l 407 1190 q 414 1169 414 1179 q 385 1150 414 1150 l 353 1150 l 353 1150 m 496 1338 q 472 1316 485 1326 q 447 1290 458 1306 q 407 1268 432 1268 q 379 1289 379 1268 q 415 1347 379 1308 q 442 1379 435 1367 q 450 1407 450 1392 q 439 1435 450 1426 q 408 1443 428 1443 q 381 1438 392 1443 q 361 1428 369 1433 q 347 1417 353 1422 q 332 1413 340 1413 q 305 1427 317 1413 q 293 1453 293 1442 q 302 1474 293 1463 q 327 1497 311 1486 q 365 1514 343 1507 q 411 1521 386 1521 q 494 1493 458 1521 q 529 1413 529 1465 q 496 1338 529 1371 z "},"Ẫ":{"ha":529,"x_min":36,"x_max":490,"o":"m 36 0 m 424 0 q 393 26 397 0 l 363 226 q 332 253 358 253 l 193 253 q 163 226 167 253 l 135 26 q 104 0 131 0 l 67 0 q 36 29 36 0 q 37 35 36 31 q 40 61 38 39 l 193 1061 q 224 1088 197 1088 l 304 1088 q 335 1061 331 1088 l 486 61 q 490 35 489 39 q 490 29 490 31 q 460 0 490 0 l 424 0 m 293 688 q 263 779 278 779 q 232 688 246 779 l 193 419 q 189 382 189 394 q 218 356 189 356 l 307 356 q 338 382 338 356 q 333 419 338 394 l 293 688 m 353 1125 q 328 1139 333 1125 l 289 1200 q 263 1218 276 1218 q 238 1200 247 1218 l 199 1139 q 174 1125 193 1125 l 143 1125 q 114 1144 114 1125 q 121 1165 114 1154 l 222 1324 q 250 1340 232 1340 l 278 1340 q 306 1324 294 1340 l 407 1165 q 414 1144 414 1154 q 385 1125 414 1125 l 353 1125 l 353 1125 m 376 1344 q 317 1357 344 1344 q 263 1385 289 1369 q 212 1413 238 1400 q 161 1425 186 1425 q 127 1414 142 1425 q 100 1369 113 1403 q 90 1351 97 1360 q 68 1343 83 1343 q 48 1352 53 1343 q 43 1381 43 1361 q 50 1431 43 1406 q 70 1475 57 1456 q 104 1507 83 1494 q 153 1519 125 1519 q 210 1507 182 1519 q 265 1478 239 1494 q 315 1450 290 1463 q 364 1438 340 1438 q 404 1455 392 1438 q 426 1494 417 1472 q 439 1513 432 1506 q 458 1521 446 1521 q 485 1496 485 1521 q 473 1415 485 1444 q 444 1369 461 1385 q 409 1349 428 1353 q 376 1344 390 1344 z "},"Ậ":{"ha":529,"x_min":36,"x_max":490,"o":"m 36 0 m 424 0 q 393 26 397 0 l 363 226 q 332 253 358 253 l 193 253 q 163 226 167 253 l 135 26 q 104 0 131 0 l 67 0 q 36 29 36 0 q 37 35 36 31 q 40 61 38 39 l 193 1061 q 224 1088 197 1088 l 304 1088 q 335 1061 331 1088 l 486 61 q 490 35 489 39 q 490 29 490 31 q 460 0 490 0 l 424 0 m 293 688 q 263 779 278 779 q 232 688 246 779 l 193 419 q 189 382 189 394 q 218 356 189 356 l 307 356 q 338 382 338 356 q 333 419 338 394 l 293 688 m 353 1150 q 328 1164 333 1150 l 289 1225 q 263 1243 276 1243 q 238 1225 247 1243 l 199 1164 q 174 1150 193 1150 l 143 1150 q 114 1169 114 1150 q 121 1190 114 1179 l 222 1349 q 250 1365 232 1365 l 278 1365 q 306 1349 294 1365 l 407 1190 q 414 1169 414 1179 q 385 1150 414 1150 l 353 1150 l 353 1150 m 317 -162 q 286 -193 317 -193 l 243 -193 q 213 -162 213 -193 l 213 -106 q 243 -75 213 -75 l 286 -75 q 317 -106 317 -75 l 317 -162 l 317 -162 z "},"Ắ":{"ha":529,"x_min":36,"x_max":490,"o":"m 36 0 m 424 0 q 393 26 397 0 l 363 226 q 332 253 358 253 l 193 253 q 163 226 167 253 l 135 26 q 104 0 131 0 l 67 0 q 36 29 36 0 q 37 35 36 31 q 40 61 38 39 l 193 1061 q 224 1088 197 1088 l 304 1088 q 335 1061 331 1088 l 486 61 q 490 35 489 39 q 490 29 490 31 q 460 0 490 0 l 424 0 m 293 688 q 263 779 278 779 q 232 688 246 779 l 193 419 q 189 382 189 394 q 218 356 189 356 l 307 356 q 338 382 338 356 q 333 419 338 394 l 293 688 m 265 1129 q 159 1148 207 1129 q 85 1226 111 1167 q 69 1271 74 1250 q 65 1304 65 1292 q 93 1339 65 1339 l 122 1339 q 144 1332 138 1339 q 153 1311 150 1325 q 189 1228 165 1253 q 264 1204 213 1204 q 339 1228 315 1204 q 375 1311 363 1253 q 384 1332 378 1325 q 406 1339 390 1339 l 435 1339 q 463 1304 463 1339 q 458 1271 463 1292 q 443 1226 454 1250 q 370 1148 417 1167 q 265 1129 324 1129 m 361 1521 q 396 1499 396 1521 q 388 1475 396 1488 l 296 1321 q 269 1306 288 1306 l 244 1306 q 217 1326 217 1306 q 221 1344 217 1333 l 296 1503 q 324 1521 304 1521 l 361 1521 l 361 1521 z "},"Ằ":{"ha":529,"x_min":36,"x_max":490,"o":"m 36 0 m 424 0 q 393 26 397 0 l 363 226 q 332 253 358 253 l 193 253 q 163 226 167 253 l 135 26 q 104 0 131 0 l 67 0 q 36 29 36 0 q 37 35 36 31 q 40 61 38 39 l 193 1061 q 224 1088 197 1088 l 304 1088 q 335 1061 331 1088 l 486 61 q 490 35 489 39 q 490 29 490 31 q 460 0 490 0 l 424 0 m 293 688 q 263 779 278 779 q 232 688 246 779 l 193 419 q 189 382 189 394 q 218 356 189 356 l 307 356 q 338 382 338 356 q 333 419 338 394 l 293 688 m 265 1129 q 159 1148 207 1129 q 85 1226 111 1167 q 69 1271 74 1250 q 65 1304 65 1292 q 93 1339 65 1339 l 122 1339 q 144 1332 138 1339 q 153 1311 150 1325 q 189 1228 165 1253 q 264 1204 213 1204 q 339 1228 315 1204 q 375 1311 363 1253 q 384 1332 378 1325 q 406 1339 390 1339 l 435 1339 q 463 1304 463 1339 q 458 1271 463 1292 q 443 1226 454 1250 q 370 1148 417 1167 q 265 1129 324 1129 m 308 1344 q 313 1326 313 1333 q 285 1306 313 1306 l 260 1306 q 233 1321 242 1306 l 142 1475 q 133 1499 133 1488 q 168 1521 133 1521 l 206 1521 q 233 1503 224 1521 l 308 1344 l 308 1344 z "},"Ẳ":{"ha":529,"x_min":36,"x_max":490,"o":"m 36 0 m 424 0 q 393 26 397 0 l 363 226 q 332 253 358 253 l 193 253 q 163 226 167 253 l 135 26 q 104 0 131 0 l 67 0 q 36 29 36 0 q 37 35 36 31 q 40 61 38 39 l 193 1061 q 224 1088 197 1088 l 304 1088 q 335 1061 331 1088 l 486 61 q 490 35 489 39 q 490 29 490 31 q 460 0 490 0 l 424 0 m 293 688 q 263 779 278 779 q 232 688 246 779 l 193 419 q 189 382 189 394 q 218 356 189 356 l 307 356 q 338 382 338 356 q 333 419 338 394 l 293 688 m 265 1129 q 159 1148 207 1129 q 85 1226 111 1167 q 69 1271 74 1250 q 65 1304 65 1292 q 93 1339 65 1339 l 122 1339 q 144 1332 138 1339 q 153 1311 150 1325 q 189 1228 165 1253 q 264 1204 213 1204 q 339 1228 315 1204 q 375 1311 363 1253 q 384 1332 378 1325 q 406 1339 390 1339 l 435 1339 q 463 1304 463 1339 q 458 1271 463 1292 q 443 1226 454 1250 q 370 1148 417 1167 q 265 1129 324 1129 m 336 1338 q 312 1316 325 1326 q 288 1290 299 1306 q 247 1268 272 1268 q 219 1289 219 1268 q 256 1347 219 1308 q 283 1379 275 1367 q 290 1407 290 1392 q 279 1435 290 1426 q 249 1443 268 1443 q 221 1438 232 1443 q 201 1428 210 1433 q 187 1417 193 1422 q 172 1413 181 1413 q 145 1427 157 1413 q 133 1453 133 1442 q 142 1474 133 1463 q 167 1497 151 1486 q 205 1514 183 1507 q 251 1521 226 1521 q 334 1493 299 1521 q 369 1413 369 1465 q 336 1338 369 1371 z "},"Ẵ":{"ha":529,"x_min":36,"x_max":490,"o":"m 36 0 m 424 0 q 393 26 397 0 l 363 226 q 332 253 358 253 l 193 253 q 163 226 167 253 l 135 26 q 104 0 131 0 l 67 0 q 36 29 36 0 q 37 35 36 31 q 40 61 38 39 l 193 1061 q 224 1088 197 1088 l 304 1088 q 335 1061 331 1088 l 486 61 q 490 35 489 39 q 490 29 490 31 q 460 0 490 0 l 424 0 m 293 688 q 263 779 278 779 q 232 688 246 779 l 193 419 q 189 382 189 394 q 218 356 189 356 l 307 356 q 338 382 338 356 q 333 419 338 394 l 293 688 m 265 1114 q 159 1133 207 1114 q 85 1211 111 1151 q 69 1256 74 1235 q 65 1289 65 1276 q 93 1324 65 1324 l 122 1324 q 144 1317 138 1324 q 153 1296 150 1310 q 189 1213 165 1238 q 264 1189 213 1189 q 339 1213 315 1189 q 375 1296 363 1238 q 384 1317 378 1310 q 406 1324 390 1324 l 435 1324 q 463 1289 463 1324 q 458 1256 463 1276 q 443 1211 454 1235 q 370 1133 417 1151 q 265 1114 324 1114 m 376 1344 q 317 1357 344 1344 q 263 1385 289 1369 q 212 1413 238 1400 q 161 1425 186 1425 q 127 1414 142 1425 q 100 1369 113 1403 q 90 1351 97 1360 q 68 1343 83 1343 q 48 1352 53 1343 q 43 1381 43 1361 q 50 1431 43 1406 q 70 1475 57 1456 q 104 1507 83 1494 q 153 1519 125 1519 q 210 1507 182 1519 q 265 1478 239 1494 q 315 1450 290 1463 q 364 1438 340 1438 q 404 1455 392 1438 q 426 1494 417 1472 q 439 1513 432 1506 q 458 1521 446 1521 q 485 1496 485 1521 q 473 1415 485 1444 q 444 1369 461 1385 q 409 1349 428 1353 q 376 1344 390 1344 z "},"Ặ":{"ha":529,"x_min":36,"x_max":490,"o":"m 36 0 m 424 0 q 393 26 397 0 l 363 226 q 332 253 358 253 l 193 253 q 163 226 167 253 l 135 26 q 104 0 131 0 l 67 0 q 36 29 36 0 q 37 35 36 31 q 40 61 38 39 l 193 1061 q 224 1088 197 1088 l 304 1088 q 335 1061 331 1088 l 486 61 q 490 35 489 39 q 490 29 490 31 q 460 0 490 0 l 424 0 m 293 688 q 263 779 278 779 q 232 688 246 779 l 193 419 q 189 382 189 394 q 218 356 189 356 l 307 356 q 338 382 338 356 q 333 419 338 394 l 293 688 m 265 1129 q 159 1148 207 1129 q 85 1226 111 1167 q 69 1271 74 1250 q 65 1304 65 1292 q 93 1339 65 1339 l 122 1339 q 144 1332 138 1339 q 153 1311 150 1325 q 189 1228 165 1253 q 264 1204 213 1204 q 339 1228 315 1204 q 375 1311 363 1253 q 384 1332 378 1325 q 406 1339 390 1339 l 435 1339 q 463 1304 463 1339 q 458 1271 463 1292 q 443 1226 454 1250 q 370 1148 417 1167 q 265 1129 324 1129 m 317 -162 q 286 -193 317 -193 l 243 -193 q 213 -162 213 -193 l 213 -106 q 243 -75 213 -75 l 286 -75 q 317 -106 317 -75 l 317 -162 l 317 -162 z "},"Ẹ":{"ha":529,"x_min":58,"x_max":482,"o":"m 58 0 m 372 600 q 403 569 403 600 l 403 528 q 372 497 403 497 l 193 497 q 163 467 163 497 l 163 133 q 193 103 163 103 l 451 103 q 482 72 482 103 l 482 31 q 451 0 482 0 l 89 0 q 58 31 58 0 l 58 1057 q 89 1088 58 1088 l 451 1088 q 482 1057 482 1088 l 482 1015 q 451 985 482 985 l 193 985 q 163 954 163 985 l 163 631 q 193 600 163 600 l 372 600 l 372 600 m 324 -162 q 293 -193 324 -193 l 250 -193 q 219 -162 219 -193 l 219 -106 q 250 -75 219 -75 l 293 -75 q 324 -106 324 -75 l 324 -162 l 324 -162 z "},"Ẻ":{"ha":529,"x_min":58,"x_max":482,"o":"m 58 0 m 372 600 q 403 569 403 600 l 403 528 q 372 497 403 497 l 193 497 q 163 467 163 497 l 163 133 q 193 103 163 103 l 451 103 q 482 72 482 103 l 482 31 q 451 0 482 0 l 89 0 q 58 31 58 0 l 58 1057 q 89 1088 58 1088 l 451 1088 q 482 1057 482 1088 l 482 1015 q 451 985 482 985 l 193 985 q 163 954 163 985 l 163 631 q 193 600 163 600 l 372 600 l 372 600 m 361 1182 q 337 1160 350 1171 q 313 1135 324 1150 q 272 1113 297 1113 q 244 1133 244 1113 q 281 1192 244 1153 q 308 1224 300 1211 q 315 1251 315 1236 q 304 1279 315 1271 q 274 1288 293 1288 q 246 1283 257 1288 q 226 1272 235 1278 q 212 1262 218 1267 q 197 1257 206 1257 q 170 1272 182 1257 q 158 1297 158 1286 q 167 1319 158 1307 q 192 1341 176 1331 q 230 1358 208 1351 q 276 1365 251 1365 q 359 1338 324 1365 q 394 1257 394 1310 q 361 1182 394 1215 z "},"Ẽ":{"ha":529,"x_min":51,"x_max":493,"o":"m 51 0 m 372 600 q 403 569 403 600 l 403 528 q 372 497 403 497 l 193 497 q 163 467 163 497 l 163 133 q 193 103 163 103 l 451 103 q 482 72 482 103 l 482 31 q 451 0 482 0 l 89 0 q 58 31 58 0 l 58 1057 q 89 1088 58 1088 l 451 1088 q 482 1057 482 1088 l 482 1015 q 451 985 482 985 l 193 985 q 163 954 163 985 l 163 631 q 193 600 163 600 l 372 600 l 372 600 m 385 1151 q 325 1164 353 1151 q 272 1192 297 1176 q 220 1219 246 1207 q 169 1232 194 1232 q 135 1221 150 1232 q 108 1176 121 1210 q 99 1158 106 1167 q 76 1150 92 1150 q 56 1159 61 1150 q 51 1188 51 1168 q 58 1238 51 1213 q 78 1282 65 1263 q 113 1314 92 1301 q 161 1326 133 1326 q 219 1314 190 1326 q 273 1285 247 1301 q 324 1257 299 1269 q 372 1244 349 1244 q 413 1262 400 1244 q 435 1301 425 1279 q 447 1320 440 1313 q 467 1328 454 1328 q 493 1303 493 1328 q 481 1222 493 1251 q 453 1176 469 1192 q 417 1156 436 1160 q 385 1151 399 1151 z "},"Ế":{"ha":529,"x_min":58,"x_max":538,"o":"m 58 0 m 372 600 q 403 569 403 600 l 403 528 q 372 497 403 497 l 193 497 q 163 467 163 497 l 163 133 q 193 103 163 103 l 451 103 q 482 72 482 103 l 482 31 q 451 0 482 0 l 89 0 q 58 31 58 0 l 58 1057 q 89 1088 58 1088 l 451 1088 q 482 1057 482 1088 l 482 1015 q 451 985 482 985 l 193 985 q 163 954 163 985 l 163 631 q 193 600 163 600 l 372 600 l 372 600 m 344 1150 q 319 1164 325 1150 l 281 1225 q 254 1243 268 1243 q 229 1225 239 1243 l 190 1164 q 165 1150 185 1150 l 135 1150 q 106 1169 106 1150 q 113 1190 106 1179 l 214 1349 q 242 1365 224 1365 l 269 1365 q 297 1349 286 1365 l 399 1190 q 406 1169 406 1179 q 376 1150 406 1150 l 344 1150 l 344 1150 m 503 1521 q 538 1499 538 1521 q 529 1475 538 1488 l 438 1321 q 411 1306 429 1306 l 386 1306 q 358 1326 358 1306 q 363 1344 358 1333 l 438 1503 q 465 1521 446 1521 l 503 1521 l 503 1521 z "},"Ề":{"ha":529,"x_min":58,"x_max":507,"o":"m 58 0 m 372 600 q 403 569 403 600 l 403 528 q 372 497 403 497 l 193 497 q 163 467 163 497 l 163 133 q 193 103 163 103 l 451 103 q 482 72 482 103 l 482 31 q 451 0 482 0 l 89 0 q 58 31 58 0 l 58 1057 q 89 1088 58 1088 l 451 1088 q 482 1057 482 1088 l 482 1015 q 451 985 482 985 l 193 985 q 163 954 163 985 l 163 631 q 193 600 163 600 l 372 600 l 372 600 m 361 1150 q 336 1164 342 1150 l 297 1225 q 271 1243 285 1243 q 246 1225 256 1243 l 207 1164 q 182 1150 201 1150 l 151 1150 q 122 1169 122 1150 q 129 1190 122 1179 l 231 1349 q 258 1365 240 1365 l 286 1365 q 314 1349 303 1365 l 415 1190 q 422 1169 422 1179 q 393 1150 422 1150 l 361 1150 l 361 1150 m 503 1344 q 507 1326 507 1333 q 479 1306 507 1306 l 454 1306 q 428 1321 436 1306 l 336 1475 q 328 1499 328 1488 q 363 1521 328 1521 l 400 1521 q 428 1503 418 1521 l 503 1344 l 503 1344 z "},"Ể":{"ha":529,"x_min":58,"x_max":529,"o":"m 58 0 m 372 600 q 403 569 403 600 l 403 528 q 372 497 403 497 l 193 497 q 163 467 163 497 l 163 133 q 193 103 163 103 l 451 103 q 482 72 482 103 l 482 31 q 451 0 482 0 l 89 0 q 58 31 58 0 l 58 1057 q 89 1088 58 1088 l 451 1088 q 482 1057 482 1088 l 482 1015 q 451 985 482 985 l 193 985 q 163 954 163 985 l 163 631 q 193 600 163 600 l 372 600 l 372 600 m 353 1150 q 328 1164 333 1150 l 289 1225 q 263 1243 276 1243 q 238 1225 247 1243 l 199 1164 q 174 1150 193 1150 l 143 1150 q 114 1169 114 1150 q 121 1190 114 1179 l 222 1349 q 250 1365 232 1365 l 278 1365 q 306 1349 294 1365 l 407 1190 q 414 1169 414 1179 q 385 1150 414 1150 l 353 1150 l 353 1150 m 496 1338 q 472 1316 485 1326 q 447 1290 458 1306 q 407 1268 432 1268 q 379 1289 379 1268 q 415 1347 379 1308 q 442 1379 435 1367 q 450 1407 450 1392 q 439 1435 450 1426 q 408 1443 428 1443 q 381 1438 392 1443 q 361 1428 369 1433 q 347 1417 353 1422 q 332 1413 340 1413 q 305 1427 317 1413 q 293 1453 293 1442 q 302 1474 293 1463 q 327 1497 311 1486 q 365 1514 343 1507 q 411 1521 386 1521 q 494 1493 458 1521 q 529 1413 529 1465 q 496 1338 529 1371 z "},"Ễ":{"ha":529,"x_min":47,"x_max":489,"o":"m 47 0 m 372 600 q 403 569 403 600 l 403 528 q 372 497 403 497 l 193 497 q 163 467 163 497 l 163 133 q 193 103 163 103 l 451 103 q 482 72 482 103 l 482 31 q 451 0 482 0 l 89 0 q 58 31 58 0 l 58 1057 q 89 1088 58 1088 l 451 1088 q 482 1057 482 1088 l 482 1015 q 451 985 482 985 l 193 985 q 163 954 163 985 l 163 631 q 193 600 163 600 l 372 600 l 372 600 m 357 1125 q 332 1139 338 1125 l 293 1200 q 267 1218 281 1218 q 242 1200 251 1218 l 203 1139 q 178 1125 197 1125 l 147 1125 q 118 1144 118 1125 q 125 1165 118 1154 l 226 1324 q 254 1340 236 1340 l 282 1340 q 310 1324 299 1340 l 411 1165 q 418 1144 418 1154 q 389 1125 418 1125 l 357 1125 l 357 1125 m 381 1344 q 321 1357 349 1344 q 267 1385 293 1369 q 216 1413 242 1400 q 165 1425 190 1425 q 131 1414 146 1425 q 104 1369 117 1403 q 94 1351 101 1360 q 72 1343 88 1343 q 52 1352 57 1343 q 47 1381 47 1361 q 54 1431 47 1406 q 74 1475 61 1456 q 108 1507 88 1494 q 157 1519 129 1519 q 215 1507 186 1519 q 269 1478 243 1494 q 319 1450 294 1463 q 368 1438 344 1438 q 408 1455 396 1438 q 431 1494 421 1472 q 443 1513 436 1506 q 463 1521 450 1521 q 489 1496 489 1521 q 477 1415 489 1444 q 449 1369 465 1385 q 413 1349 432 1353 q 381 1344 394 1344 z "}}}
